<svg width="45" height="54" viewBox="0 0 45 54" fill="none" xmlns="http://www.w3.org/2000/svg">
<path d="M10.2421 54.0009H5.17963C4.89571 53.9958 4.61767 53.9192 4.37126 53.7781C4.12484 53.6369 3.91802 53.4359 3.76995 53.1936C3.62188 52.9513 3.53735 52.6756 3.52418 52.3919C3.51101 52.1083 3.56964 51.8259 3.69463 51.5709L13.6678 32.0634H2.61463C2.31051 32.066 2.01137 31.9863 1.74882 31.8328C1.48627 31.6793 1.27009 31.4577 1.12313 31.1914C0.976167 30.9252 0.903892 30.6241 0.913948 30.3202C0.924003 30.0162 1.01602 29.7206 1.18025 29.4647L19.2028 0.777159C19.3505 0.546569 19.5521 0.355401 19.7903 0.220161C20.0284 0.0849203 20.2959 0.00967112 20.5696 0.000909353H43.2328C43.5697 -0.0150323 43.9037 0.0703822 44.1917 0.246129C44.4796 0.421875 44.7083 0.679887 44.8481 0.986863C44.988 1.29384 45.0326 1.63569 44.9763 1.96829C44.92 2.30089 44.7653 2.60898 44.5321 2.85278L29.2434 20.2509H38.3221C38.6436 20.2577 38.9564 20.3561 39.2237 20.5347C39.4911 20.7132 39.7019 20.9644 39.8313 21.2587C39.9607 21.553 40.0034 21.8782 39.9543 22.1959C39.9051 22.5136 39.7663 22.8107 39.554 23.0522L11.4909 53.4272C11.3346 53.605 11.1427 53.7481 10.9276 53.8469C10.7124 53.9458 10.4789 53.9982 10.2421 54.0009ZM7.98088 50.6259H9.5165L34.4409 23.6259H25.5478C25.2108 23.6419 24.8768 23.5564 24.5888 23.3807C24.3009 23.2049 24.0723 22.9469 23.9324 22.64C23.7925 22.333 23.7479 21.9911 23.8042 21.6585C23.8605 21.3259 24.0152 21.0178 24.2484 20.774L39.5371 3.37591H21.4978L5.6015 28.6884H16.4521C16.736 28.6935 17.0141 28.7701 17.2605 28.9113C17.5069 29.0524 17.7137 29.2534 17.8618 29.4957C18.0099 29.738 18.0944 30.0137 18.1076 30.2974C18.1207 30.581 18.0621 30.8634 17.9371 31.1184L7.98088 50.6259Z" fill="#003049"/>
</svg>
