<svg width="87" height="85" viewBox="0 0 87 85" fill="none" xmlns="http://www.w3.org/2000/svg">
<path d="M36.9528 49.4228C36.892 49.2865 35.4184 46.0443 31.7971 43.2395C28.4456 40.644 22.5628 37.9646 13.5667 39.9419C13.1395 40.0354 12.8704 40.4117 12.9563 40.7962C13.0192 41.0776 14.5658 47.723 20.8645 50.7335C22.8483 51.682 25.0655 52.1557 27.5038 52.1557C30.2341 52.1557 33.2406 51.5611 36.4998 50.3719C36.917 50.2191 37.1189 49.7964 36.9528 49.4228ZM21.6553 49.4476C17.158 47.3035 15.3287 42.8957 14.7726 41.1979C21.0634 39.9902 26.4074 41.0336 30.6649 44.3064C33.0674 46.1525 34.4666 48.252 35.0685 49.2986C29.736 51.0989 25.2265 51.1498 21.6553 49.4476Z" fill="#003049"/>
<path d="M51.0888 27.3352C54.0632 20.2772 49.6482 13.2599 49.4592 12.9646C49.241 12.6233 48.7593 12.496 48.3671 12.6762C42.3025 15.4498 38.1967 19.2752 36.1649 24.0452C36.0038 24.424 36.2178 24.8473 36.6437 24.9906C37.0688 25.1338 37.5447 24.9441 37.7057 24.5653C39.5064 20.337 43.0976 16.8949 48.3872 14.3256C49.349 16.1437 51.763 21.5752 49.5415 26.831C47.8583 30.8142 43.8841 33.9017 37.7215 36.0203C37.8324 34.4332 37.8045 31.4661 36.6043 28.1519C34.9897 23.6919 30.8617 17.7671 20.3656 14.8686C19.9455 14.7528 19.4961 14.9507 19.3465 15.3193C19.217 15.6389 16.2176 23.217 20.5295 29.6931C23.35 33.9297 28.6109 36.6435 36.1684 37.7665C37.6978 41.3658 38.4758 44.8576 38.4772 48.1513C38.4786 50.4571 38.0585 56.2355 34.1474 60.0838C33.8418 60.3842 33.8683 60.8477 34.2054 61.1195C34.3628 61.2462 34.561 61.3092 34.7579 61.3092C34.9826 61.3092 35.2066 61.2277 35.369 61.068C39.6645 56.8409 40.1261 50.6264 40.1247 48.1507C40.1233 44.7716 39.3539 41.2086 37.8374 37.5488C44.7344 35.271 49.1916 31.8372 51.0888 27.3352ZM21.953 28.9559C18.7375 24.1369 20.0679 18.4285 20.6648 16.4958C28.0763 18.7201 32.9028 22.7707 35.0155 28.5441C36.2407 31.8913 36.167 34.9196 36.0468 36.2616C29.2085 35.1813 24.4686 32.7259 21.953 28.9559Z" fill="#003049"/>
<path d="M64.5537 49.7686C66.1203 47.6787 67.2661 44.1564 66.0817 41.3611C65.3825 39.7103 63.9569 38.5861 61.9601 38.1112C59.023 37.4116 56.3042 38.609 53.8659 41.6692C51.424 38.6097 48.703 37.4122 45.7651 38.1112C43.7705 38.5861 42.3471 39.7091 41.6471 41.3585C40.462 44.1532 41.6063 47.6774 43.1715 49.7686C46.0042 53.5481 50.2574 57.164 53.3269 59.5322C53.4815 59.6518 53.6741 59.7117 53.8666 59.7117C54.0591 59.7117 54.2523 59.6512 54.4069 59.5315C57.4843 57.1513 61.7426 53.5252 64.5537 49.7686ZM53.8659 58.0043C50.9302 55.7011 47.112 52.3838 44.5428 48.9557C43.1608 47.1089 42.2519 44.0844 43.1887 41.8761C43.7004 40.6703 44.7102 39.8797 46.1902 39.5276C46.5674 39.4379 46.9424 39.3933 47.3153 39.3933C49.3514 39.3933 51.3152 40.7302 53.1666 43.3823C53.3169 43.5974 53.5817 43.7286 53.8666 43.7286H53.8673C54.1521 43.7286 54.4162 43.5968 54.5665 43.3816C56.7529 40.2445 59.0967 38.9477 61.535 39.5276C63.0179 39.8803 64.0291 40.671 64.5409 41.8786C65.4762 44.087 64.5659 47.1102 63.1832 48.955C63.1832 48.9557 63.1832 48.9557 63.1825 48.9557C60.6326 52.364 56.8087 55.689 53.8659 58.0043Z" fill="#003049"/>
<path d="M85.361 44.5696C85.361 44.5696 82.6951 42.3791 80.2009 40.3445C79.1496 39.4864 78.5549 38.2685 78.5692 37.003C78.6064 33.7678 78.4003 26.9078 77.3568 24.1023C77.3561 24.0997 77.3547 24.0966 77.354 24.094C77.3511 24.087 77.3483 24.08 77.3461 24.073C75.5956 19.3762 72.798 15.1307 69.03 11.4537C61.3143 3.93098 50.3187 -0.241296 38.8679 0.0107979C28.9937 0.226605 19.506 3.95135 12.1546 10.4994C4.80246 17.0468 0.62364 25.4933 0.387467 34.2815C0.0961878 45.1082 5.29628 55.281 14.6544 62.1913C18.6558 65.1464 20.2739 69.8757 18.7767 74.2409C17.4627 78.072 15.4245 81.6656 14.3259 83.4665C14.1091 83.8224 14.2572 84.2674 14.6573 84.4602C15.0574 84.6531 15.5576 84.5214 15.7745 84.1655C16.9017 82.3162 18.9957 78.6233 20.3519 74.6687C22.0438 69.737 20.2202 64.3965 15.7065 61.0633C6.73836 54.4407 1.75512 44.6918 2.03423 34.3165C2.50085 16.9424 19.3872 1.90341 38.9087 1.47625C49.8842 1.24007 60.419 5.23346 67.8133 12.4423C71.4239 15.9659 74.1055 20.0338 75.7824 24.5345C75.7831 24.5377 75.7845 24.5403 75.7859 24.5434C75.7881 24.5498 75.7902 24.5562 75.7931 24.5625V24.5632C76.6977 26.9956 76.9639 33.3266 76.9217 36.9883C76.9024 38.669 77.6918 40.2866 79.0873 41.4248C81.5772 43.4562 84.2388 45.6423 84.2388 45.6423C85.1699 46.4202 85.5485 47.5432 85.2529 48.6477C84.958 49.749 84.0534 50.5976 82.8339 50.9165L79.5153 51.7848C79.1017 51.8931 78.8512 52.268 78.9428 52.6436L80.0514 57.1908L77.3891 59.2585C77.0878 59.4928 77.0191 59.8856 77.2259 60.1905L78.8054 62.5122L77.5028 64.7823C77.3969 64.9669 77.3833 65.184 77.4671 65.3782L79.1875 69.3709C79.7458 70.6658 79.6542 72.1153 78.9356 73.3471C78.2235 74.5681 76.9596 75.4613 75.4668 75.7968C73.148 76.3194 65.7844 76.8013 60.0053 76.9649C58.0751 77.0197 56.3997 78.0993 55.7377 79.7157C55.211 80.9997 54.6728 82.2926 54.1375 83.5575C53.9779 83.937 54.1926 84.3597 54.6184 84.5023C54.7143 84.5341 54.8124 84.5494 54.9083 84.5494C55.2418 84.5494 55.5552 84.3679 55.6798 84.0745C56.2165 82.8044 56.7569 81.507 57.285 80.2179C57.7159 79.1675 58.8037 78.466 60.0576 78.4304C65.0136 78.2903 73.1966 77.8211 75.8704 77.2183C77.8192 76.7803 79.4695 75.6153 80.3978 74.0225C81.3331 72.419 81.4527 70.5321 80.7262 68.8457L79.1367 65.1579L80.4815 62.8158C80.611 62.5892 80.6003 62.3199 80.4529 62.1028L78.9936 59.9581L81.5006 58.0108C81.7268 57.8357 81.8277 57.5645 81.764 57.3035L80.7155 52.9988L83.2984 52.3228C85.0919 51.8542 86.4216 50.6071 86.8553 48.9876C87.2897 47.3656 86.7329 45.7155 85.361 44.5696Z" fill="#003049"/>
</svg>
