<svg width="94" height="84" viewBox="0 0 94 84" fill="none" xmlns="http://www.w3.org/2000/svg">
<path d="M41.6129 42.1492C45.9442 45.2953 51.8778 45.0555 55.9395 41.5813C56.4332 41.161 55.795 40.4164 55.3043 40.8375C51.6036 44 46.1762 44.2563 42.1903 41.3578C41.6606 40.9789 41.0926 41.7703 41.6129 42.1492Z" fill="#003049"/>
<path d="M26.5271 44.3109C27.12 42.8124 28.8497 42.0843 30.3669 42.7734C30.6067 43.764 31.0817 44.6968 31.7646 45.4515C32.1958 45.9202 32.9278 45.2757 32.4911 44.7937C31.0294 43.1835 30.7356 40.8015 31.8067 38.8671C32.1208 38.2968 31.2599 37.8304 30.9505 38.3929C30.3974 39.3882 30.1521 40.5421 30.2122 41.6788C28.2505 41.1421 26.3177 42.1734 25.6169 43.9515C25.3794 44.5523 26.2872 44.914 26.5271 44.3109Z" fill="#003049"/>
<path d="M71.4443 42.9812C72.038 43.2609 72.4404 42.3679 71.8607 42.0969C70.1974 41.3109 69.4021 39.389 70.0138 37.6617C70.2294 37.05 69.3068 36.725 69.0919 37.3351C68.3193 39.5133 69.3068 41.9758 71.4443 42.9812Z" fill="#003049"/>
<path d="M33.056 26.7602C33.8388 26.5524 37.4716 25.5086 38.0349 24.9227C38.5825 24.3547 38.2529 23.5391 37.1779 23.6821C35.9341 23.8485 34.849 24.793 33.0036 26.1289C32.845 26.2438 31.8341 26.8563 32.2122 26.9735C32.3911 27.0289 32.8685 26.8094 33.056 26.7602Z" fill="#003049"/>
<path d="M60.856 26.7602C61.0427 26.8094 61.5208 27.0289 61.6997 26.9734C62.0771 26.8563 61.0661 26.2438 60.9083 26.1289C58.9177 24.6883 57.9279 23.8414 56.7341 23.682C55.6646 23.5399 55.3286 24.3539 55.8763 24.9227C56.4279 25.4953 60.0083 26.5352 60.856 26.7602Z" fill="#003049"/>
<path d="M30.8755 75.4094C30.67 75.2008 30.6943 74.843 30.8513 74.5946C31.0091 74.3469 31.2724 74.1492 31.5216 73.9938C30.5513 74.0516 29.3997 74.1899 29.0802 75.1883C28.8716 75.8406 29.27 76.568 29.8474 76.936C31.3529 77.8953 36.9122 77.6828 41.0997 74.2727C38.5802 75.2633 35.9154 75.7844 33.2099 75.8899C33.5372 75.4914 33.8654 75.0922 34.1927 74.693C31.8677 75.4719 31.2544 75.7938 30.8755 75.4094Z" fill="#003049"/>
<path d="M54.0419 74.1781C53.6301 73.9852 53.2145 73.7899 52.8567 73.5102C51.8653 72.7367 51.8669 71.6711 52.4176 71.2242C51.8739 71.518 51.3192 71.8196 50.8973 72.2719C50.4762 72.7242 50.2036 73.3617 50.3426 73.9641C50.5028 74.661 51.1473 75.1266 51.7676 75.4821C53.8809 76.6938 56.2872 77.3906 58.7208 77.4961C56.495 76.9867 54.2395 75.8977 52.334 74.6406C52.8286 74.2977 53.4426 74.1313 54.0419 74.1781Z" fill="#003049"/>
<path d="M1.69969 63.325C2.2286 63.2062 2.68954 62.8937 3.1372 62.5882C2.80048 62.8406 2.45438 63.1047 2.2497 63.4726C1.73251 64.4023 2.46141 65.4422 4.02548 64.5961C8.43798 62.2086 9.08095 57.4906 13.1669 56.8468C13.3989 56.8101 13.4809 56.5312 13.3208 56.3593C13.1684 56.1945 13.0364 56.0117 12.8958 55.8367C16.1544 54.7906 19.0044 52.8179 21.1731 50.132C22.3599 50.2875 23.5145 50.1312 24.5247 49.6625C24.5606 55.2757 30.6411 58.539 35.4224 55.725C30.9645 59.7679 30.8599 64.6031 33.2442 67.6601C31.6083 69.0257 31.2075 70.9289 31.6653 72.3875C29.6364 72.4859 26.5575 74.0445 26.4849 75.9648C26.402 78.2672 30.0466 79.2718 32.3536 79.2718C34.7231 79.2718 37.4309 78.5109 40.4442 76.9914C44.42 74.9875 44.8497 71.7453 40.8481 69.7078C41.5755 68.4336 40.8567 66.7609 39.1177 66.2304C38.0669 65.9117 37.0724 66.0703 36.0872 66.3054C33.713 63.1992 36.7841 58.3406 40.4114 56.2578C42.288 56.6703 43.9059 56.2718 45.2255 55.3539C47.7286 57.439 51.3755 58.2632 54.8591 56.9328C56.3559 59.5468 56.5614 62.8382 55.4599 65.6343C54.4067 65.4937 53.3528 65.4164 52.2505 65.8703C50.4091 66.6281 49.8294 68.5343 50.7708 69.8023C46.6411 72.3797 47.3474 75.8492 51.9044 77.6351C56.1817 79.3117 61.2606 80.3211 65.1989 77.9218C69.4177 75.3539 65.1724 71.6015 60.9153 71.8187C61.2536 70.3523 60.7505 68.6648 59.563 67.4757C59.2372 67.15 58.8544 66.8726 58.4419 66.6234C60.6927 62.8453 60.1474 58.464 57.5474 55.3726C57.5966 55.3328 57.6544 55.3039 57.7028 55.2632C59.5692 56.9914 62.5466 57.5836 65.1263 56.6945C67.5489 55.8507 69.4231 53.6078 69.8739 51.1023C70.9239 51.4765 72.0708 51.5125 73.1786 51.2406C75.2997 53.7156 78.0091 55.5507 81.0958 56.5414C80.9552 56.7156 80.8239 56.8984 80.6708 57.0632C80.5114 57.2351 80.5934 57.514 80.8247 57.55C84.8302 58.1812 85.6348 62.9562 89.9661 65.2992C90.5114 65.5937 91.2645 65.8093 91.6856 65.3554C91.9716 65.0461 91.9473 64.5437 91.7427 64.1757C91.538 63.8086 91.1919 63.5445 90.8552 63.2914C91.3028 63.5976 91.7638 63.9101 92.2927 64.0289C93.8528 64.3789 94.5552 62.8039 93.4903 61.739C93.0059 61.2554 92.3263 61.0336 91.6731 60.8273C92.1567 60.2789 92.652 59.7125 92.8997 59.0242C93.1466 58.3359 93.0927 57.4875 92.5731 56.9718C92.0544 56.457 91.027 56.4976 90.6997 57.1515C90.4755 57.6007 90.62 58.1703 90.3825 58.6117C90.1395 59.0632 89.5466 59.239 89.0466 59.1257C88.0591 58.9031 86.688 57.364 86.8075 56.0172C86.8825 55.1695 87.6864 54.3656 88.5192 54.5437C88.9302 54.632 89.3145 54.9343 89.7231 54.8734C90.2786 54.7906 90.4974 54.1351 90.2724 53.6211C89.6755 52.2554 85.9684 51.532 83.2544 52.4961C83.0583 52.5656 83.07 52.7172 82.8356 53.389C82.4013 53.1797 79.4888 52.3922 76.6747 49.4726C79.4466 46.9726 80.0934 43.1547 79.1794 39.5515C86.1692 34.6375 82.5802 23.7906 74.37 23.7773C75.4809 18.2789 70.8153 13.1797 65.0591 14.4109C63.8856 9.27262 57.5919 6.92028 53.5434 11.2656C49.5224 6.10231 41.5864 6.74528 38.4364 12.45C34.4122 9.67262 29.3755 11.5547 27.8966 15.8711C22.2966 14.6437 17.3856 19.3015 18.2606 24.8992C15.7974 25.4226 13.9349 26.4414 12.7169 27.9328C8.9786 32.5093 10.2755 39.2726 14.5505 40.4117C14.1224 43.4453 15.0489 46.6062 17.4856 48.5953C15.7599 50.4445 13.5747 51.8789 11.1809 52.664C11.17 52.6679 11.1677 52.6812 11.1567 52.6859C11.0763 52.4554 10.9872 52.2289 10.9224 51.9945C10.8966 51.9015 10.8286 51.825 10.738 51.7929C8.88251 51.1336 6.78407 51.1781 4.95985 51.9211C3.10985 52.6742 3.50516 54.0562 4.26923 54.1695C4.67782 54.2304 5.06219 53.9281 5.47313 53.8406C6.30594 53.6625 7.10985 54.4656 7.18485 55.3132C7.3036 56.6554 5.93719 58.1984 4.94579 58.4226C4.44579 58.5351 3.85282 58.3593 3.60985 57.9086C3.37235 57.4664 3.51688 56.8968 3.29266 56.4484C2.96532 55.7937 1.93798 55.7531 1.41923 56.2687C0.899695 56.7843 0.845789 57.632 1.09266 58.3203C1.34032 59.0093 1.83485 59.5757 2.31923 60.1242C1.6661 60.3297 0.986414 60.5515 0.502039 61.0359C-0.558899 62.0953 0.13407 63.6765 1.69969 63.325ZM36.9716 67.1047C40.1544 66.6336 40.6505 68.8562 39.7599 69.4914C39.4395 69.7172 39.5036 70.214 39.8747 70.35C40.4692 70.5664 40.9013 70.857 41.5036 71.2625C43.1739 72.3843 43.295 74.457 40.0044 76.1179C31.8614 80.2179 27.4083 77.4515 27.4638 76.0007C27.4981 75.0546 29.7364 73.1656 32.3841 73.3734C32.7747 73.3992 33.0466 72.9773 32.8411 72.6343C31.6841 70.7047 33.0606 67.6859 36.9716 67.1047ZM34.2434 57.9414C33.6099 60.4547 33.0786 62.9929 32.9708 65.5828C32.0278 63.0492 32.5302 60.032 34.2434 57.9414ZM59.7599 72.1781C59.5981 72.5195 59.8708 72.9382 60.2841 72.8718C63.2177 72.3757 65.8239 74.2172 65.9614 75.2687C66.0802 76.1648 65.0169 76.8875 64.6903 77.0867C61.7013 78.907 57.5192 78.7859 52.2606 76.7234C50.9388 76.2054 48.7669 75.0523 49.0684 73.1523C49.2684 71.8937 51.0653 70.7007 51.8091 70.3484C52.1669 70.1804 52.188 69.6789 51.845 69.4828C51.4075 69.2297 51.195 68.6 51.3614 68.0461C52.0786 65.6523 57.013 66.3086 58.8708 68.1679C59.9708 69.2687 60.345 70.9554 59.7599 72.1781ZM59.1138 60.1687C59.1138 60.8836 58.713 60.8922 58.713 60.1687C58.713 59.4461 59.1138 59.4531 59.1138 60.1687ZM58.0302 58.4312C58.0888 59.1148 57.4114 59.1734 57.3528 58.489C57.2942 57.8054 57.9716 57.7468 58.0302 58.4312ZM89.5802 63.739C89.3841 63.7515 89.3341 64.0461 89.7083 64.2047C90.095 64.3695 90.4841 64.4234 90.8778 64.2773C90.9505 64.5375 90.6903 64.7961 90.4208 64.8218C89.6145 64.8992 87.8677 63.2132 87.1966 62.2859C87.877 62.9328 88.7075 63.3922 89.5802 63.739ZM82.4786 54.2867C82.2481 54.7984 81.9794 55.289 81.6716 55.757C81.2075 55.4531 75.2559 54.0812 71.6942 47.3578C71.4458 46.8882 71.1372 46.2242 71.4747 45.814C71.7216 45.5156 72.3083 45.5773 72.6677 45.8312C73.5684 46.4773 75.5786 52.0054 82.4786 54.2867ZM15.5927 40.1172C15.645 39.8422 15.4544 39.5812 15.1802 39.5414C11.3177 38.9961 10.1005 32.6836 13.4739 28.5523C14.6192 27.1492 16.4513 26.2125 18.9184 25.7679C19.1934 25.7187 19.37 25.4507 19.3106 25.1797C18.777 22.8132 19.5606 20.2047 21.3028 18.5367C22.9872 16.9398 25.6489 16.2968 27.9606 16.9015C29.3153 17.3726 30.3341 18.6047 30.6575 19.9992C29.4724 19.789 28.2153 20.0101 27.2005 20.65C26.6583 20.9961 27.17 21.8218 27.7239 21.4781C29.6583 20.2523 32.2458 20.9679 33.277 23.014C33.5755 23.5906 34.4411 23.1507 34.1528 22.5718C33.6466 21.5718 32.7669 20.7797 31.7403 20.3265C31.5427 18.5945 30.4075 17.0023 28.8505 16.225C30.1802 12.2601 34.8224 10.732 38.2989 13.5695C38.5544 13.7789 38.9231 13.6765 39.052 13.3968C40.2434 10.8336 42.938 8.96403 45.7567 8.74528C48.5755 8.532 51.5278 9.96481 53.1036 12.3265C53.2661 12.5718 53.6661 12.6539 53.895 12.3578C55.4192 10.4281 57.7638 9.56559 59.8614 10.1375C62.0833 10.7531 63.8638 12.7843 64.1888 15.0789C64.2286 15.3695 64.5161 15.5617 64.8044 15.4812C70.1794 13.9765 74.5786 18.8414 73.3278 23.8781C72.2231 24.1078 71.2356 24.7406 70.4661 25.5937C69.7919 24.0531 68.3153 22.9125 66.6348 22.7382C66.6177 22.7367 66.6044 22.7523 66.588 22.7531C66.7598 21.4507 66.5317 20.0968 65.9309 18.9289C65.6294 18.3507 64.7661 18.8023 65.0591 19.3757C66.1395 21.4734 65.7645 24.0351 64.1278 25.7382C63.6786 26.2054 64.3833 26.8836 64.8317 26.4172C65.5786 25.6429 66.1138 24.675 66.4013 23.639C66.4489 23.6609 66.4809 23.7062 66.5356 23.7117C67.9427 23.8578 69.2489 24.8953 69.7099 26.2367C69.7341 26.3093 69.788 26.3578 69.8388 26.4086C69.3309 27.1687 68.9708 28.0101 68.813 28.8203C68.6888 29.4562 69.6481 29.6422 69.7724 29.007C70.1395 27.1257 71.7309 25.0406 73.7638 24.7757C73.7684 24.775 73.7708 24.7773 73.7747 24.7773C81.563 24.2023 85.0864 34.5937 78.3489 38.9297C78.1692 39.0461 78.0856 39.2664 78.1442 39.4742C79.0888 42.8242 78.5927 46.4336 76.0169 48.7523C75.0177 47.5718 74.6177 46.7922 74.488 46.5953C74.1559 46.0304 73.813 45.4476 73.2356 45.0351C72.5114 44.5187 71.3427 44.4304 70.7177 45.1937C70.0809 45.9672 70.3591 46.9289 70.8286 47.8148C71.3122 48.7281 71.8747 49.5757 72.4817 50.3781C71.4864 50.514 70.5317 50.3836 69.6888 49.9625C69.3692 49.8031 69.0067 50.0289 68.9833 50.3625C68.7997 52.7523 67.0825 54.9765 64.8067 55.7703C62.4591 56.5773 59.7544 55.9851 58.1716 54.3398C57.0567 52.189 57.47 49.6523 59.0677 47.9703C59.5184 47.5 58.802 46.8265 58.3606 47.2961C56.5919 49.1492 56.0263 51.9039 57.1411 54.4234C53.7231 57.407 48.7677 57.2586 45.577 54.364C45.3974 54.2031 45.1294 54.1937 44.9419 54.3445C42.5911 56.2297 39.2731 55.5007 37.7755 53.6648C38.4083 52.4382 38.4903 50.9445 37.9317 49.6757C37.67 49.0812 36.7763 49.4781 37.0372 50.0695C37.4778 51.0734 37.413 52.2562 36.9075 53.2257C36.6036 53.3601 35.1888 55.657 32.0247 55.7836C28.2825 55.9586 25.1036 52.9132 25.5442 48.8492C25.5903 48.4336 25.1255 48.1539 24.7809 48.3922C23.9427 48.9695 22.9216 49.2406 21.8505 49.207C22.3872 48.4507 23.4661 46.8507 23.6106 45.9328C23.9059 44.1906 22.113 43.3609 20.7544 44.3328C19.7544 45.0468 19.7184 45.9164 18.127 47.8601C15.8333 46.007 15.0567 42.9578 15.5927 40.1172ZM18.6044 48.8429C18.6091 48.8367 18.6052 48.8281 18.6099 48.8211C20.3341 46.8297 20.5263 45.6992 21.3239 45.1289C21.9661 44.6711 22.7942 44.882 22.645 45.7734C22.5974 46.075 22.4481 46.3734 22.2989 46.6523C20.1458 50.7156 16.6372 53.6687 12.4224 54.9695C12.377 54.9836 12.3591 55.0289 12.3208 55.0531C12.013 54.5859 11.7442 54.0945 11.5138 53.5836C16.0458 52.0875 18.8005 48.6711 18.6044 48.8429ZM1.00516 61.8304C1.10438 61.5992 1.2911 61.4187 1.47391 61.2445C1.35126 61.4156 1.52782 61.7257 1.72001 61.8101C2.28095 62.057 3.85282 61.2562 4.5036 60.7672C4.36923 61.4273 4.1997 61.9422 4.39969 62.064C4.59969 62.1859 4.62938 62.0773 7.80204 59.6398L7.64266 59.8906C4.94501 63.0398 4.84813 63.2359 4.31923 63.4648C3.64735 63.7562 3.15594 63.3203 3.2661 62.6797C3.31532 62.3929 3.47157 62.1382 3.62469 61.8914C3.11219 62.1765 2.57235 62.4109 2.01376 62.5914C1.70751 62.6906 1.32938 62.7586 1.09735 62.5351C0.916883 62.3601 0.905945 62.0625 1.00516 61.8304Z" fill="#003049"/>
<path d="M33.8818 32.2952C36.845 35.7499 42.4193 34.9952 44.3724 30.9101C44.6529 30.3242 43.7669 29.9077 43.4888 30.4874C41.8177 33.9874 37.0958 34.5382 34.624 31.6585C34.2115 31.171 33.4552 31.7999 33.8818 32.2952Z" fill="#003049"/>
<path d="M61.9497 30.9101C62.2301 30.3242 61.3442 29.9077 61.0661 30.4874C59.3989 33.9796 54.6786 34.5429 52.2028 31.6585C51.7864 31.171 51.0364 31.7992 51.4606 32.2952C54.4801 35.8202 60.0262 34.9335 61.9497 30.9101Z" fill="#003049"/>
<path d="M21.413 36.611C20.6841 35.9047 19.9357 35.1704 19.556 34.2297C18.813 32.3915 19.9068 30.6032 22.0576 30.9805C22.7591 31.1032 23.4068 31.4274 24.0427 31.7469C23.7794 30.4094 23.5162 29.0719 23.2521 27.7336C23.8091 28.1485 24.3654 28.5633 24.9224 28.9782C23.581 26.3649 22.7138 23.5133 22.3888 20.593C21.1083 23.0196 20.7607 25.9235 21.4333 28.5829C20.188 28.461 18.8826 28.4344 17.7412 28.9477C16.2122 29.6352 15.1943 31.3211 15.2966 32.9938C15.399 34.6665 16.6162 36.2149 18.2177 36.7102C16.963 38.661 17.131 41.4172 18.613 43.2016C18.6583 41.2805 19.1474 39.7133 19.9091 37.9493C20.1943 37.2891 20.6966 36.5485 21.413 36.611Z" fill="#003049"/>
<path d="M74.9255 29.9555C74.9255 30.0234 74.9185 30.0914 74.9052 30.1586C74.8919 30.2258 74.8724 30.2906 74.8458 30.3539C74.82 30.4172 74.788 30.4766 74.7497 30.5336C74.7122 30.5906 74.6685 30.643 74.62 30.6914C74.5724 30.7398 74.5193 30.7828 74.4622 30.8211C74.406 30.8594 74.3458 30.8914 74.2825 30.9172C74.2193 30.9438 74.1544 30.9633 74.0872 30.9766C74.02 30.9898 73.9521 30.9969 73.8841 30.9969C73.8154 30.9969 73.7474 30.9898 73.6802 30.9766C73.6138 30.9633 73.5482 30.9438 73.4849 30.9172C73.4216 30.8914 73.3622 30.8594 73.3052 30.8211C73.2482 30.7828 73.1958 30.7398 73.1474 30.6914C73.099 30.643 73.056 30.5906 73.0177 30.5336C72.9794 30.4766 72.9474 30.4172 72.9216 30.3539C72.895 30.2906 72.8755 30.2258 72.8622 30.1586C72.849 30.0914 72.8419 30.0234 72.8419 29.9555C72.8419 29.8867 72.849 29.8187 72.8622 29.7523C72.8755 29.6852 72.895 29.6195 72.9216 29.557C72.9474 29.4938 72.9794 29.4336 73.0177 29.3766C73.056 29.3195 73.099 29.2672 73.1474 29.2188C73.1958 29.1703 73.2482 29.1273 73.3052 29.0891C73.3622 29.0516 73.4216 29.0195 73.4849 28.993C73.5482 28.9672 73.6138 28.9469 73.6802 28.9336C73.7474 28.9203 73.8154 28.9141 73.8841 28.9141C73.9521 28.9141 74.02 28.9203 74.0872 28.9336C74.1544 28.9469 74.2193 28.9672 74.2825 28.993C74.3458 29.0195 74.406 29.0516 74.4622 29.0891C74.5193 29.1273 74.5724 29.1703 74.62 29.2188C74.6685 29.2672 74.7122 29.3195 74.7497 29.3766C74.788 29.4336 74.82 29.4938 74.8458 29.557C74.8724 29.6195 74.8919 29.6852 74.9052 29.7523C74.9185 29.8187 74.9255 29.8867 74.9255 29.9555Z" fill="#003049"/>
<path d="M78.1427 29.8062C78.1427 28.625 76.7498 28.625 76.7498 29.8062C76.7498 30.9875 78.1427 30.9883 78.1427 29.8062Z" fill="#003049"/>
<path d="M76.624 34.3062C77.7115 34.3062 77.7122 32.6625 76.624 32.6625C75.5365 32.6625 75.5349 34.3062 76.624 34.3062Z" fill="#003049"/>
<path d="M76.0763 7.41016C79.6662 8.60703 80.9966 9.93672 82.1935 13.5258C82.3263 14.0125 83.0349 14.0125 83.1685 13.5258C84.3208 9.93672 85.6513 8.60703 89.2412 7.41016C89.7287 7.27734 89.7287 6.56875 89.2412 6.43594C85.6513 5.28359 84.3208 3.95391 83.1685 0.365625C83.0349 -0.121875 82.3263 -0.121875 82.1935 0.365625C80.9966 3.95391 79.6662 5.28359 76.0763 6.43594C75.5888 6.56875 75.5888 7.27734 76.0763 7.41016Z" fill="#003049"/>
<path d="M12.4912 74.7234C12.4076 74.4164 11.9615 74.4164 11.8779 74.7234C11.1256 76.9789 10.2888 77.8148 8.03181 78.5398C7.72556 78.6234 7.72556 79.0688 8.03181 79.1523C10.2888 79.9047 11.1256 80.7406 11.8779 82.9977C11.9615 83.3039 12.4076 83.3039 12.4912 82.9977C13.2154 80.7406 14.0521 79.9047 16.3092 79.1523C16.6154 79.0688 16.6154 78.6234 16.3092 78.5398C14.0521 77.8148 13.2154 76.9789 12.4912 74.7234Z" fill="#003049"/>
</svg>
