<svg width="77" height="72" viewBox="0 0 77 72" fill="none" xmlns="http://www.w3.org/2000/svg">
<mask id="mask0_1097_75" style="mask-type:luminance" maskUnits="userSpaceOnUse" x="8" y="0" width="35" height="35">
<path d="M8.69666 0.627319H42.4567V34.2817H8.69666V0.627319Z" fill="white"/>
</mask>
<g mask="url(#mask0_1097_75)">
<path d="M25.5799 2.71779C33.7074 2.71779 40.3199 9.33029 40.3199 17.4578C40.3199 25.5847 33.7074 32.1972 25.5799 32.1972C17.4524 32.1972 10.8399 25.5847 10.8399 17.4578C10.8399 9.33029 17.4524 2.71779 25.5799 2.71779ZM13.6874 29.3497C15.2312 30.894 17.0299 32.1065 19.033 32.9534C21.1068 33.8309 23.3099 34.2759 25.5799 34.2759C27.8499 34.2759 30.0524 33.8309 32.1268 32.9534C34.1293 32.1065 35.928 30.894 37.4724 29.3497C39.0168 27.8053 40.2293 26.0072 41.0762 24.004C41.9537 21.9303 42.3987 19.7278 42.3987 17.4578C42.3987 15.1872 41.9537 12.9853 41.0762 10.9109C40.2293 8.90779 39.0168 7.10966 37.4724 5.56529C35.928 4.02091 34.1293 2.80841 32.1268 1.96154C30.0524 1.08404 27.8499 0.639038 25.5799 0.639038C23.3099 0.639038 21.1068 1.08404 19.033 1.96154C17.0299 2.80841 15.2312 4.02091 13.6874 5.56529C12.143 7.10966 10.9305 8.90779 10.083 10.9109C9.20617 12.9853 8.76117 15.1872 8.76117 17.4578C8.76117 19.7278 9.20617 21.9303 10.083 24.004C10.9305 26.0072 12.143 27.8053 13.6874 29.3497Z" fill="#003049"/>
</g>
<mask id="mask1_1097_75" style="mask-type:luminance" maskUnits="userSpaceOnUse" x="0" y="31" width="51" height="41">
<path d="M0.848022 31.7172H50.3224V71.3728H0.848022V31.7172Z" fill="white"/>
</mask>
<g mask="url(#mask1_1097_75)">
<path d="M29.0605 43.901C31.1167 42.0154 34.323 42.1541 36.2086 44.2091C38.0936 46.2654 37.9548 49.4723 35.8992 51.3573L34.3311 52.7954L26.8461 45.9316L29.0605 43.901ZM42.7523 32.3066C42.238 32.051 41.6142 32.261 41.3592 32.7754C41.1036 33.2891 41.3136 33.9135 41.828 34.1685C45.7786 36.1291 48.2323 40.0848 48.2323 44.4923C48.2323 45.7566 48.0348 47.0966 47.6892 48.1691C47.683 48.1891 47.6773 48.2085 47.6723 48.2285L41.6867 65.8479C41.1386 67.4766 39.818 68.7054 38.153 69.1341C37.913 69.196 37.6661 69.2404 37.4192 69.2666C35.9786 69.4173 34.5398 68.9429 33.4717 67.9635L15.258 51.8529C13.2023 49.9679 13.0636 46.761 14.9486 44.7054C16.8342 42.6498 20.0411 42.511 22.0967 44.396L33.2917 54.6629C33.3555 54.7216 33.4248 54.7704 33.498 54.8098C33.5211 54.8416 33.5455 54.8723 33.5723 54.9016C33.7773 55.1254 34.058 55.2385 34.3386 55.2385C34.5898 55.2385 34.8417 55.1479 35.0411 54.9654L37.3042 52.8898C40.2048 50.2298 40.4005 45.7054 37.7405 42.8048C35.0805 39.9041 30.5561 39.7085 27.6555 42.3685L25.3086 44.521L23.5017 42.8641C20.6011 40.2041 16.0773 40.3998 13.4167 43.2998C10.7567 46.201 10.9523 50.7248 13.853 53.3848L23.838 62.1666L17.7917 67.9635C16.7242 68.9429 15.2855 69.4179 13.8448 69.2666C13.598 69.2404 13.3511 69.196 13.1105 69.1341C11.4461 68.7054 10.1255 67.4766 9.57734 65.8479L3.46859 47.6848C3.12421 46.6135 2.92671 45.2748 2.92671 44.0116C2.92671 39.6048 5.38046 35.6485 9.33109 33.6879C9.84546 33.4323 10.0555 32.8091 9.80046 32.2948C9.54484 31.7804 8.92109 31.5704 8.40671 31.826C6.17234 32.9348 4.28484 34.6373 2.94796 36.7485C1.57421 38.9198 0.847961 41.431 0.847961 44.0116C0.847961 45.5054 1.07609 47.0373 1.49109 48.3254C1.49171 48.3273 1.49234 48.3285 1.49296 48.3298C1.49359 48.3329 1.49421 48.3354 1.49546 48.3379L7.60734 66.5104C8.38046 68.8085 10.2436 70.5423 12.5923 71.1473C12.9311 71.2341 13.2792 71.2966 13.6273 71.3335C13.8761 71.3598 14.1242 71.3729 14.3723 71.3729C16.1492 71.3729 17.8748 70.7079 19.1967 69.4954L25.5798 63.756L32.0667 69.4954C33.3892 70.7085 35.1148 71.3729 36.8917 71.3729C37.1392 71.3729 37.388 71.3598 37.6361 71.3335C37.9848 71.2966 38.333 71.2341 38.6717 71.1473C41.0205 70.5423 42.8836 68.8085 43.6567 66.5104L49.6617 48.8335C49.6723 48.8029 49.6805 48.7716 49.6886 48.741C50.0898 47.466 50.3111 45.961 50.3111 44.4923C50.3111 41.9116 49.5848 39.4004 48.2111 37.2298C46.8742 35.1179 44.9867 33.4154 42.7523 32.3066Z" fill="#003049"/>
</g>
<path d="M63.8434 35.3301C62.0478 37.1438 60.2478 38.6126 59.2478 39.3888C58.2477 38.6169 56.449 37.1569 54.654 35.3482C51.3815 32.0507 49.6521 29.1519 49.654 26.9644C49.6552 24.0744 51.769 21.8951 54.5709 21.8951C55.1428 21.8951 55.7709 22.0588 56.4396 22.3807C56.759 22.5344 57.0796 22.7219 57.3921 22.9382C57.5171 23.0244 57.6409 23.1157 57.7628 23.2107L57.3853 23.6138C57.1946 23.8169 57.0953 24.0819 57.1046 24.3607C57.114 24.6394 57.2309 24.8976 57.4334 25.0876C57.6278 25.2694 57.8809 25.3694 58.1465 25.3694C58.434 25.3694 58.7115 25.2488 58.909 25.0382L59.9952 23.8688C60.8903 22.9582 62.4552 21.8951 63.9284 21.8951C66.7265 21.8951 68.8396 24.0744 68.8421 26.9651C68.8446 29.1319 67.1165 32.0244 63.8434 35.3301ZM68.9415 21.8988C67.6421 20.5513 65.8615 19.8094 63.9284 19.8094C61.8678 19.8094 60.0671 21.0588 59.249 21.7294C59.0315 21.5501 58.8071 21.3794 58.5771 21.2213C58.1759 20.9444 57.7615 20.7026 57.3453 20.5019C56.3915 20.0419 55.4584 19.8094 54.5709 19.8094C52.6371 19.8094 50.8565 20.5513 49.5559 21.8982C48.2746 23.2251 47.569 25.0238 47.5677 26.9632C47.5671 28.5438 48.1802 30.3126 49.3909 32.2194C50.314 33.6732 51.5909 35.2251 53.189 36.8332C55.879 39.5407 58.5271 41.462 58.639 41.5426C58.8177 41.6719 59.029 41.7401 59.249 41.7401C59.4709 41.7401 59.6834 41.6713 59.8628 41.5407C59.974 41.4594 62.6228 39.5251 65.3109 36.8126C69.0409 33.0488 70.9309 29.7344 70.9284 26.9626C70.9259 25.0232 70.2203 23.2251 68.9415 21.8988Z" fill="#003049"/>
<path d="M64.0472 23.5902C63.469 23.5902 62.9984 24.0602 62.9984 24.6383C62.9984 25.2171 63.469 25.6877 64.0472 25.6877C64.3859 25.6877 64.6615 25.9627 64.6615 26.3015C64.6615 26.8796 65.1322 27.3508 65.7103 27.3508C66.2884 27.3508 66.759 26.8796 66.759 26.3015C66.759 24.8065 65.5428 23.5902 64.0472 23.5902Z" fill="#003049"/>
<path d="M59.4533 16.3772C60.0208 16.3772 60.482 15.9153 60.482 15.3485V13.3522C60.482 12.7847 60.0208 12.3241 59.4533 12.3241C58.8864 12.3241 58.4252 12.7847 58.4252 13.3522V15.3485C58.4252 15.9153 58.8864 16.3772 59.4533 16.3772Z" fill="#003049"/>
<path d="M59.4533 43.3041C58.8864 43.3041 58.4252 43.7653 58.4252 44.3322V46.3291C58.4252 46.8953 58.8864 47.3572 59.4533 47.3572C60.0208 47.3572 60.482 46.8953 60.482 46.3291V44.3322C60.482 43.7653 60.0208 43.3041 59.4533 43.3041Z" fill="#003049"/>
<mask id="mask2_1097_75" style="mask-type:luminance" maskUnits="userSpaceOnUse" x="72" y="29" width="5" height="3">
<path d="M72.4613 29.6415H77.0001V31.7159H72.4613V29.6415Z" fill="white"/>
</mask>
<g mask="url(#mask2_1097_75)">
<path d="M75.971 29.6547H73.5042C72.9367 29.6547 72.476 30.1159 72.476 30.6834C72.476 31.2503 72.9367 31.7115 73.5042 31.7115H75.971C76.5373 31.7115 76.9992 31.2503 76.9992 30.6834C76.9992 30.1159 76.5373 29.6547 75.971 29.6547Z" fill="#003049"/>
</g>
<path d="M70.8643 20.4336C71.1393 20.4336 71.3974 20.3267 71.5911 20.1323L73.0711 18.653C73.4724 18.2517 73.4724 17.5992 73.0711 17.1986C72.8774 17.0042 72.6186 16.8973 72.3443 16.8973C72.0693 16.8973 71.8111 17.0042 71.6174 17.1986L70.1368 18.678C69.7361 19.0792 69.7361 19.7311 70.1368 20.1323C70.3311 20.3267 70.5893 20.4336 70.8643 20.4336Z" fill="#003049"/>
<path d="M70.557 39.4378C70.3626 39.2435 70.1045 39.1366 69.8301 39.1366C69.5557 39.1366 69.297 39.2435 69.1026 39.4378C68.702 39.8385 68.702 40.491 69.1026 40.8916L70.6763 42.4653C70.8707 42.6597 71.1288 42.7666 71.4038 42.7666C71.6782 42.7666 71.9363 42.6597 72.1307 42.4653C72.5313 42.0647 72.5313 41.4122 72.1307 41.0116L70.557 39.4378Z" fill="#003049"/>
<path d="M47.532 19.4215C47.7264 19.6202 47.987 19.7284 48.2645 19.7284C48.5364 19.7284 48.7926 19.624 48.9864 19.4334C49.3901 19.0359 49.3951 18.3834 48.9976 17.9796L47.5414 16.4996C47.3489 16.3034 47.0914 16.1946 46.8164 16.1927C46.8139 16.1927 46.8108 16.1927 46.8083 16.1927C46.5364 16.1927 46.2808 16.2971 46.087 16.4877C45.6833 16.8859 45.6776 17.5384 46.0758 17.9421L47.532 19.4215Z" fill="#003049"/>
</svg>
