<svg width="117" height="16" viewBox="0 0 117 16" fill="none" xmlns="http://www.w3.org/2000/svg">
<path d="M116.707 8.70711C117.098 8.31658 117.098 7.68342 116.707 7.29289L110.343 0.928932C109.953 0.538408 109.319 0.538408 108.929 0.928932C108.538 1.31946 108.538 1.95262 108.929 2.34315L114.586 8L108.929 13.6569C108.538 14.0474 108.538 14.6805 108.929 15.0711C109.319 15.4616 109.953 15.4616 110.343 15.0711L116.707 8.70711ZM2.9 9C3.45228 9 3.9 8.55228 3.9 8C3.9 7.44772 3.45228 7 2.9 7V9ZM8.7 7C8.14772 7 7.7 7.44772 7.7 8C7.7 8.55228 8.14772 9 8.7 9V7ZM14.5 9C15.0523 9 15.5 8.55228 15.5 8C15.5 7.44772 15.0523 7 14.5 7V9ZM20.3 7C19.7477 7 19.3 7.44772 19.3 8C19.3 8.55228 19.7477 9 20.3 9V7ZM26.1 9C26.6523 9 27.1 8.55228 27.1 8C27.1 7.44772 26.6523 7 26.1 7V9ZM31.9 7C31.3477 7 30.9 7.44772 30.9 8C30.9 8.55228 31.3477 9 31.9 9V7ZM37.7 9C38.2523 9 38.7 8.55228 38.7 8C38.7 7.44772 38.2523 7 37.7 7V9ZM43.5 7C42.9477 7 42.5 7.44772 42.5 8C42.5 8.55228 42.9477 9 43.5 9V7ZM49.3 9C49.8523 9 50.3 8.55228 50.3 8C50.3 7.44772 49.8523 7 49.3 7V9ZM55.1 7C54.5477 7 54.1 7.44772 54.1 8C54.1 8.55228 54.5477 9 55.1 9V7ZM60.9 9C61.4523 9 61.9 8.55228 61.9 8C61.9 7.44772 61.4523 7 60.9 7V9ZM66.7 7C66.1477 7 65.7 7.44772 65.7 8C65.7 8.55228 66.1477 9 66.7 9V7ZM72.5 9C73.0523 9 73.5 8.55228 73.5 8C73.5 7.44772 73.0523 7 72.5 7V9ZM78.3 7C77.7477 7 77.3 7.44772 77.3 8C77.3 8.55228 77.7477 9 78.3 9V7ZM84.1 9C84.6523 9 85.1 8.55228 85.1 8C85.1 7.44772 84.6523 7 84.1 7V9ZM89.9 7C89.3477 7 88.9 7.44772 88.9 8C88.9 8.55228 89.3477 9 89.9 9V7ZM95.7 9C96.2523 9 96.7 8.55228 96.7 8C96.7 7.44772 96.2523 7 95.7 7V9ZM101.5 7C100.948 7 100.5 7.44772 100.5 8C100.5 8.55228 100.948 9 101.5 9V7ZM107.3 9C107.852 9 108.3 8.55228 108.3 8C108.3 7.44772 107.852 7 107.3 7V9ZM113.1 7C112.548 7 112.1 7.44772 112.1 8C112.1 8.55228 112.548 9 113.1 9V7ZM0 8V9H2.9V8V7H0V8ZM8.7 8V9H14.5V8V7H8.7V8ZM20.3 8V9H26.1V8V7H20.3V8ZM31.9 8V9H37.7V8V7H31.9V8ZM43.5 8V9H49.3V8V7H43.5V8ZM55.1 8V9H60.9V8V7H55.1V8ZM66.7 8V9H72.5V8V7H66.7V8ZM78.3 8V9H84.1V8V7H78.3V8ZM89.9 8V9H95.7V8V7H89.9V8ZM101.5 8V9H107.3V8V7H101.5V8ZM113.1 8V9H116V8V7H113.1V8Z" fill="#003049"/>
</svg>
