<svg width="194" height="223" viewBox="0 0 194 223" fill="none" xmlns="http://www.w3.org/2000/svg">
<path d="M133.028 88.5193L133 88.5225C131.351 90.4732 130.262 92.2917 130.401 94.1516C130.532 95.8824 131.718 97.7806 133.093 99.9305H133.095L133.118 99.9704L133.144 100.01C133.934 101.245 134.766 102.549 135.307 103.826C136.147 105.807 136.272 107.679 136.107 109.448L136.142 109.463V109.461C137.367 107.735 138.228 106.168 138.328 104.785C138.45 103.099 137.422 101.547 136.132 99.6867L136.131 99.6851L136.127 99.6787L136.123 99.6723C135.853 99.2819 135.576 98.8834 135.315 98.4802V98.4786C133.853 96.2283 132.879 93.8966 132.774 91.5044C132.731 90.5051 132.843 89.5138 133.037 88.54L133.029 88.5193H133.028Z" fill="#003049"/>
<path d="M116.869 68.7011C117.758 71.9188 118.392 74.735 118.059 76.5168C117.905 77.3519 117.525 77.9719 117.045 78.7369C116.375 79.8095 115.566 81.0813 115.713 83.1739C115.879 85.5789 117.347 89.125 119.089 92.848C115.704 89.8262 113.032 86.822 112.481 83.3078C111.832 79.1656 114.087 74.1373 116.867 68.7011H116.869ZM105.19 98.1902C106.208 98.9696 107.402 99.5736 108.892 99.7696C109.321 99.827 109.764 99.8477 110.211 99.8477C111.133 99.8477 112.113 99.7569 113.055 99.6676V99.6692C114.027 99.5784 114.962 99.4907 115.837 99.4907C116.604 99.4907 117.286 99.5593 117.868 99.7314C119.454 100.202 120.541 101.518 121.796 103.083C122.273 103.678 122.775 104.304 123.32 104.871C124.426 106.022 125.69 106.906 126.995 107.665C120.753 107.389 114.988 106.906 111.275 105.056C108.216 103.534 106.528 101.057 105.188 98.1902H105.19ZM133.016 88.5369C132.822 89.5107 132.712 90.5052 132.755 91.506C132.859 93.9014 133.836 96.2379 135.297 98.4898C135.562 98.8978 135.842 99.3027 136.115 99.6963C137.406 101.559 138.429 103.105 138.308 104.784C138.209 106.161 137.351 107.724 136.126 109.45C136.293 107.678 136.166 105.802 135.326 103.818C134.773 102.511 133.915 101.177 133.11 99.9194C131.733 97.7695 130.551 95.8745 130.422 94.1501C130.283 92.2997 131.365 90.486 133.015 88.5369H133.016ZM145.303 107.335C144.826 109.217 144.474 111.312 144.417 113.839C144.391 114.905 144.42 116.048 144.448 117.196C144.542 120.962 144.614 124.768 143.188 127.641C141.675 130.692 138.408 132.818 134.564 134.869C137.476 129.313 140.19 123.905 140.96 120.512C141.463 118.294 141.159 116.888 140.915 115.769C140.709 114.824 140.596 114.25 140.883 113.428C141.4 111.946 143.121 109.791 145.301 107.335H145.303ZM120.125 113.852C121.827 116.82 123.165 119.513 123.304 121.685C123.385 122.94 123.062 124.052 122.628 125.499C122.163 127.056 121.608 128.895 121.599 131.366C121.584 135.012 122.77 140.017 124.173 145.198C121.291 141.819 118.853 138.568 117.857 135.427C116.706 131.799 117.463 128.234 118.282 124.482C118.376 124.049 118.47 123.617 118.561 123.182C119.231 120.004 119.702 116.909 120.125 113.852ZM117.125 65.1964C116.775 65.1964 116.449 65.3908 116.287 65.7048C113.163 71.7164 109.762 78.1679 110.613 83.601C111.472 89.0835 116.602 93.3006 121.269 97.1973H121.267C124.056 100.501 126.756 103.754 128.981 107.034C127.289 106.146 125.719 105.187 124.409 103.826C123.918 103.316 123.459 102.744 122.973 102.138C121.782 100.654 120.415 98.9106 118.297 98.2827C117.52 98.0532 116.679 97.9814 115.837 97.9814C114.88 97.9814 113.872 98.0755 112.916 98.1647C111.957 98.254 111.05 98.3384 110.211 98.3384C109.816 98.3384 109.443 98.3193 109.101 98.2747H109.099L109.088 98.2731C106.694 97.9575 105.237 96.3431 103.577 94.4593C103.428 94.2903 103.22 94.2027 103.009 94.2027C102.874 94.2027 102.737 94.2393 102.616 94.3142C102.302 94.5071 102.173 94.8959 102.308 95.237C103.982 99.4509 105.757 103.996 110.602 106.408C115.332 108.765 122.942 109.033 130.278 109.307C130.288 109.307 130.298 109.307 130.307 109.307C130.35 109.307 130.393 109.303 130.433 109.297H130.435C132.824 113.254 134.405 117.277 134.521 121.502C134.601 124.404 133.987 127.451 133.002 130.58C131.974 133.846 130.564 137.14 129.161 140.409C128.262 142.506 127.367 144.594 126.597 146.632C124.965 140.732 123.542 135.181 123.556 131.372C123.564 129.209 124.042 127.606 124.504 126.062C124.923 124.662 125.365 123.22 125.258 121.559C125.043 118.22 122.597 114.15 120.375 110.41C120.196 110.108 119.874 109.93 119.533 109.93C119.47 109.93 119.404 109.936 119.337 109.949C118.929 110.033 118.619 110.366 118.564 110.779C118.032 114.762 117.503 118.705 116.645 122.779C116.556 123.203 116.464 123.633 116.368 124.065C115.568 127.737 114.656 131.817 115.99 136.019C117.453 140.632 121.604 145.29 125.526 149.719C125.527 149.721 125.527 149.721 125.529 149.723H125.527C122.785 158.611 123.763 165.974 124.708 173.143C124.774 173.635 125.194 173.994 125.677 173.994C125.72 173.994 125.763 173.991 125.806 173.986C126.342 173.916 126.72 173.423 126.649 172.888C125.696 165.654 124.778 158.619 127.464 150.088C128.348 147.278 129.625 144.296 130.961 141.182C131.389 140.182 131.823 139.17 132.248 138.15L132.247 138.152C132.398 138.15 132.549 138.115 132.691 138.044C137.481 135.604 142.729 132.974 144.942 128.513C146.625 125.118 146.496 120.775 146.406 117.146C146.377 115.989 146.35 114.894 146.374 113.884C146.469 109.668 147.435 106.769 148.442 103.76C148.587 103.322 148.409 102.841 148.012 102.607C147.856 102.514 147.684 102.471 147.513 102.471C147.247 102.471 146.984 102.579 146.794 102.785L146.739 102.846C143.478 106.384 139.937 110.201 139.034 112.783C138.55 114.171 138.794 115.231 139.003 116.185V116.187C139.224 117.207 139.46 118.278 139.052 120.079C138.582 122.146 137.291 125.109 135.622 128.497C136.202 126.138 136.542 123.773 136.478 121.449C136.408 118.891 135.849 116.415 134.937 114.003H134.935C135.044 113.944 135.141 113.863 135.221 113.763L135.252 113.723V113.725C137.455 110.951 139.999 107.807 140.207 104.921C140.384 102.449 138.867 100.327 137.68 98.611C137.404 98.2141 137.141 97.8332 136.894 97.4539C135.536 95.3613 134.741 93.3564 134.656 91.4232C134.57 89.4581 135.201 87.4659 135.911 85.2697C136.046 84.8489 135.874 84.3883 135.493 84.162C135.342 84.0696 135.173 84.0266 135.005 84.0266C134.754 84.0266 134.505 84.1254 134.32 84.3166C131.558 87.1806 128.24 90.5179 128.524 94.2935C128.697 96.5997 130.221 98.9377 131.507 100.946C132.336 102.24 133.095 103.432 133.573 104.56C134.589 106.961 134.362 109.165 133.869 111.52V111.522C131.192 105.963 126.828 100.74 122.539 95.6673H122.538C120.056 90.5498 117.788 85.7765 117.599 83.0432C117.498 81.5977 118 80.7769 118.649 79.741C119.117 78.9935 119.69 78.0946 119.919 76.8627C120.431 74.1118 119.162 69.8008 118.034 65.8801C117.927 65.5072 117.603 65.2394 117.219 65.2012C117.187 65.198 117.155 65.1964 117.125 65.1964Z" fill="black" fill-opacity="0.992"/>
<path d="M116.878 68.6835L116.851 68.6898C114.072 74.1261 111.812 79.1608 112.462 83.3109C113.013 86.8331 115.691 89.8405 119.076 92.8623L119.105 92.8591V92.8575L119.106 92.8383C117.364 89.1169 115.9 85.5756 115.732 83.1738V83.1723C115.589 81.1036 116.379 79.8413 117.047 78.7735L117.063 78.748C117.543 77.983 117.922 77.3598 118.08 76.5199H118.078C118.411 74.7318 117.777 71.9124 116.888 68.6946L116.88 68.6835H116.878Z" fill="#003049"/>
<mask id="mask0_1194_77" style="mask-type:luminance" maskUnits="userSpaceOnUse" x="7" y="42" width="187" height="181">
<path d="M7.98993 42.7914H193.63V223H7.98993V42.7914Z" fill="white"/>
</mask>
<g mask="url(#mask0_1194_77)">
<path d="M137.055 44.4266C138.47 44.4266 139.897 44.4808 141.339 44.5875H141.338C152.623 45.6299 159.887 47.1375 163.129 49.109H163.127C159.219 52.6344 155.241 56.3622 153.909 60.8773C152.535 65.5326 154.005 70.9131 155.442 76.0402H155.441C153.833 78.7575 152.073 81.5673 150.054 84.5397C145.14 91.7785 138.701 99.9608 132.271 106.076C129.083 109.107 125.891 111.638 122.786 114.097C119.64 116.59 116.575 119.017 113.753 121.794C108.237 127.222 103.668 133.963 99.159 140.651L53.8901 93.8536V93.852C53.7467 93.7037 53.5538 93.6288 53.3626 93.6288C53.1793 93.6288 52.996 93.6974 52.8542 93.836C52.5625 94.1165 52.5545 94.5803 52.8366 94.872L107.635 151.522V151.52C107.778 151.67 107.971 151.743 108.162 151.743C108.345 151.743 108.529 151.675 108.67 151.538C108.962 151.256 108.97 150.792 108.688 150.502L100.201 141.728H100.2C104.782 134.931 109.318 128.215 114.779 122.839C117.538 120.127 120.539 117.747 123.696 115.246C126.796 112.79 130.038 110.223 133.281 107.139C139.812 100.928 146.316 92.6535 151.267 85.3621C153.3 82.3674 155.074 79.5353 156.693 76.802H156.69C156.845 76.6857 156.948 76.5135 156.977 76.3239H156.974C159.181 72.5706 161.106 68.9974 163.027 65.4338C163.218 65.0768 163.086 64.6321 162.729 64.4409C162.619 64.3803 162.499 64.3532 162.381 64.3532C162.122 64.3532 161.868 64.4919 161.736 64.7389C160.042 67.8834 158.351 71.0215 156.473 74.2743C155.178 69.552 154.19 65.1055 155.315 61.2932C156.579 57.0092 160.542 53.409 164.75 49.6206C164.801 49.5744 164.844 49.5234 164.879 49.4676H164.877C167.92 47.7591 169.968 46.9033 171.02 46.9033C171.195 46.9033 171.343 46.9272 171.464 46.975C171.517 46.9957 171.571 47.01 171.627 47.0196C173.225 47.2587 175.076 48.3743 177.178 50.3665C187.896 61.5817 192.728 70.8207 191.67 78.085C191.667 78.1121 191.663 78.1408 191.663 78.1679C191.566 81.5514 189.998 84.4759 186.959 86.9415H186.957C186.949 86.9446 186.943 86.9494 186.935 86.9542C174.07 95.0871 166.221 101.242 163.385 105.419H163.384C162.813 106.023 161.876 107.63 160.576 110.239C160.56 110.269 160.547 110.301 160.536 110.335C157.616 119.087 155.214 125.34 153.331 129.095C153.326 129.104 153.321 129.114 153.316 129.125C152.132 131.78 149.099 137.046 144.222 144.922C139.503 152.427 132.599 162.694 123.507 175.726H123.505C120.004 180.13 117.176 182.382 115.022 182.485C115.004 182.485 114.986 182.487 114.969 182.49C114.119 182.592 113.248 182.645 112.352 182.645C101.907 182.645 88.3135 175.637 71.5743 161.625L71.5552 161.609C56.3572 149.713 43.3315 133.661 32.4797 113.45C32.4414 113.379 32.392 113.315 32.3362 113.262C31.4676 107.993 31.0102 100.364 30.9656 90.3744L30.9672 90.376C31.0803 86.6179 31.2445 84.2225 31.4597 83.1898C31.4708 83.1324 31.4772 83.075 31.4756 83.0176H31.474C31.4852 82.5889 32.0079 79.9736 33.0422 75.1684C33.2064 74.4002 33.1857 73.2942 32.9801 71.8518C32.8861 70.9816 32.3649 69.4628 31.4134 67.2953C31.3114 67.061 31.0947 66.8969 30.8413 66.8634C30.8078 66.8586 30.7759 66.857 30.7425 66.857C30.5241 66.857 30.3153 66.9542 30.1751 67.1264C28.7104 68.9241 27.5837 70.4764 26.7963 71.7833C25.9979 72.8782 24.7978 75.8219 23.1961 80.6175L23.1945 80.619C21.3648 83.7412 20.3799 85.5629 20.2365 86.084C20.2301 86.1111 20.2221 86.1398 20.2173 86.1669C19.8253 87.1391 19.379 88.3902 18.8802 89.917V89.9186L19.3105 63.1181C24.1268 52.3778 35.1938 45.378 51.9776 45.378C56.4273 45.378 61.2803 45.8705 66.5237 46.916L66.4377 46.9001H66.4361C79.7503 50.0748 88.3884 59.9895 92.3489 76.6442C92.4254 76.963 92.7043 77.1925 93.0326 77.2068C93.0422 77.2068 93.0517 77.2068 93.0629 77.2068C93.3784 77.2068 93.6605 77.0044 93.7593 76.7016C98.9056 60.906 108.079 50.9482 121.282 46.8236H121.283C126.334 45.225 131.592 44.4266 137.055 44.4266ZM12.3474 55.857C15.9971 56.1231 17.8124 58.5281 17.7964 63.0703C17.7964 63.1611 17.8124 63.2488 17.8427 63.3285H17.8411L17.3327 95.06C17.3263 95.4266 17.5924 95.7421 17.9558 95.7963C17.9925 95.8027 18.0291 95.8043 18.0658 95.8043C18.3861 95.8043 18.6762 95.5939 18.7686 95.2768C19.9209 91.337 20.8676 88.4555 21.6087 86.6355V86.6339C21.6326 86.5749 21.6485 86.5143 21.6565 86.4506V86.4522C21.7888 86.0187 22.7355 84.299 24.4997 81.2916C24.5252 81.247 24.546 81.2008 24.5619 81.153C26.1445 76.4115 27.2888 73.5699 27.9948 72.6264C28.0108 72.6073 28.0235 72.5865 28.0363 72.5642C28.6499 71.5442 29.4866 70.3569 30.548 69.0038L30.5496 69.0054C31.1361 70.4286 31.4612 71.4311 31.5234 72.008L31.5266 72.0335C31.7099 73.3165 31.7386 74.2584 31.6095 74.8608C30.5624 79.7218 30.0301 82.4248 30.0093 82.9698C29.7846 84.1253 29.6141 86.5876 29.5009 90.3569V90.3808C29.5503 101.739 30.1352 110.1 31.2541 115.46H31.2525L30.4397 124.487C30.4046 124.89 30.701 125.246 31.1042 125.282C31.1266 125.284 31.1489 125.285 31.1712 125.285C31.5457 125.285 31.8661 124.999 31.8995 124.618L32.6087 116.743C43.2693 135.917 55.9508 151.257 70.6516 162.763C87.6537 176.993 101.562 184.108 112.376 184.108C113.315 184.108 114.228 184.055 115.119 183.948H115.117C117.715 183.81 120.902 181.362 124.68 176.604C124.689 176.592 124.699 176.58 124.707 176.568C133.815 163.513 140.734 153.224 145.465 145.698L145.469 145.693C150.363 137.79 153.42 132.476 154.641 129.751V129.753C156.551 125.944 158.974 119.647 161.906 110.859H161.903C163.174 108.317 164.028 106.833 164.469 106.406C164.506 106.369 164.539 106.329 164.568 106.288C167.212 102.351 174.706 96.4593 187.053 88.6149H187.051C187.073 88.6117 187.097 88.6069 187.12 88.6006C187.137 88.5958 187.152 88.5926 187.166 88.5894H187.169C187.172 88.6006 187.175 88.6117 187.179 88.6245C187.886 91.3211 182.416 104.525 170.773 128.239V128.24C157.67 154.749 147.15 172.459 139.211 181.37L139.196 181.387C127.964 194.84 112.494 208.157 92.7808 221.339L88.1478 216.807L88.1382 216.797C65.4703 195.458 52.7346 182.527 49.9312 178.002C49.9153 177.978 49.8993 177.954 49.8818 177.932C40.8229 166.548 28.4331 147.871 12.7108 121.899C10.6325 117.494 9.67946 113.748 9.85159 110.663C9.85318 110.647 9.85318 110.631 9.85318 110.615C9.61571 86.8522 10.4476 68.6006 12.3474 55.857ZM137.054 42.9603C131.44 42.9603 126.038 43.7827 120.842 45.4259C107.823 49.4931 98.5964 58.9919 93.1649 73.9237C88.8187 58.1153 80.0212 48.6309 66.7724 45.4737C66.7437 45.4673 66.7118 45.4657 66.6831 45.4577C61.2309 44.1955 56.1596 43.6074 51.4963 43.6074C35.6735 43.6074 24.5316 50.3617 19.0491 60.3561C18.3447 56.3909 15.9047 54.3955 11.7258 54.3668C11.7242 54.3668 11.7226 54.3668 11.7211 54.3668C11.3609 54.3668 11.0533 54.6298 10.9975 54.9884C9.01487 67.8324 8.14627 86.3741 8.38693 110.612C8.20843 113.946 9.21249 117.929 11.4007 122.555C11.4119 122.578 11.423 122.6 11.4358 122.622C27.1868 148.645 39.6133 167.376 48.712 178.816C51.6333 183.486 64.4407 196.502 87.1341 217.865L92.1815 222.802C92.3202 222.939 92.5067 223.011 92.6947 223.011C92.8334 223.011 92.9752 222.971 93.0995 222.888C113.157 209.526 128.892 196.013 140.305 182.345C148.333 173.335 158.926 155.517 172.086 128.887L172.087 128.886C183.892 104.846 189.395 91.3004 188.595 88.2531C188.54 88.0396 188.457 87.8547 188.348 87.6969C188.348 87.6953 188.347 87.6937 188.347 87.6921H188.344C191.41 85.0417 193.004 81.902 193.126 78.2731H193.123C194.237 70.537 189.268 60.8884 178.212 49.329C178.204 49.3194 178.195 49.3114 178.187 49.3035C175.892 47.128 173.804 45.888 171.92 45.582H171.918C171.703 45.5103 171.451 45.4737 171.165 45.4737C169.746 45.4737 167.454 46.355 164.291 48.1161C160.988 45.8896 153.378 44.2274 141.46 43.1261H141.448C139.969 43.0161 138.504 42.9603 137.054 42.9603Z" fill="black" fill-opacity="0.992"/>
</g>
<mask id="mask1_1194_77" style="mask-type:luminance" maskUnits="userSpaceOnUse" x="59" y="0" width="68" height="75">
<path d="M59.806 0.372192H126.718V74.2074H59.806V0.372192Z" fill="white"/>
</mask>
<g mask="url(#mask1_1194_77)">
<path d="M108.238 2.2321C108.262 2.2321 108.285 2.23369 108.309 2.23369V2.23529C108.339 2.23529 108.371 2.23847 108.403 2.24166C108.93 2.30222 109.585 2.66401 110.068 3.5326C111.168 5.51522 111.206 9.60957 111.016 14.386C108.608 9.95063 106.721 6.07782 106.831 3.90075C106.892 2.6911 107.588 2.2321 108.238 2.2321ZM122.675 8.10188C122.812 8.10188 122.944 8.10825 123.073 8.12419C124.468 8.28197 125.126 9.13782 125.046 9.83907C125.024 10.0383 124.946 10.2726 124.778 10.5323C123.609 12.346 119.097 14.4099 113.837 16.6173C116.408 12.703 118.83 9.37847 121.167 8.41107C121.686 8.19432 122.2 8.10188 122.675 8.10188ZM70.1191 8.75691C71.469 8.75691 73.6652 10.3459 74.4812 12.0145C75.2653 13.6163 74.6804 15.2355 73.772 17.1878H73.7704C73.7528 17.1942 73.7353 17.2022 73.7178 17.2118C73.7146 17.2133 73.7114 17.2149 73.7082 17.2165C71.5949 16.681 69.9326 16.1057 69.1437 14.4912C69.1342 14.4721 69.1246 14.453 69.115 14.4338V14.4323C68.1221 12.3142 68.6258 9.32588 69.6362 8.85094C69.7605 8.79197 69.9183 8.75691 70.1191 8.75691ZM84.6095 16.5344C85.8494 16.5344 87.9404 18.6987 88.3994 20.7594C88.7915 22.5126 87.8288 23.9565 86.4742 25.6586C84.525 24.637 83.0253 23.6888 82.6316 21.9229C82.6268 21.9006 82.6221 21.8814 82.6173 21.8591C82.1455 19.5673 83.3329 16.7783 84.4262 16.5519C84.4836 16.5408 84.5441 16.5344 84.6095 16.5344ZM121.118 20.7499C121.184 20.7499 121.245 20.7547 121.301 20.761C121.774 20.8136 121.918 21.0415 121.873 21.4304C121.828 21.8241 121.551 22.4408 120.808 23.1166C119.082 24.6864 115.385 26.1591 111.055 27.6524C114.768 24.3422 118.08 21.6201 120.19 20.922C120.569 20.7961 120.878 20.7499 121.118 20.7499ZM67.3826 22.9429C68.774 22.9429 70.7199 23.8577 71.7128 25.0148C72.8396 26.328 72.7631 28.003 72.4492 30.0494H72.4476C72.4348 30.0558 72.4221 30.0638 72.4077 30.0717C72.2946 30.1403 72.2069 30.2327 72.1448 30.3395H72.1432C71.9264 30.3443 71.7128 30.349 71.5009 30.349C69.7238 30.349 68.3166 30.0893 67.3284 28.9418C65.8112 27.1743 65.4717 24.0091 66.3371 23.2393C66.5316 23.0672 66.8678 22.9429 67.3826 22.9429ZM99.3548 18.2652C99.3803 18.2652 99.4058 18.2668 99.4298 18.27C99.4329 18.27 99.4377 18.27 99.4393 18.27C99.8027 18.3114 100.361 18.6158 100.757 19.5785C101.629 21.6918 101.417 26.0204 100.95 31.0343C99.1253 26.4746 97.734 22.4743 97.9731 20.1618C98.1261 18.6732 98.8911 18.2652 99.3548 18.2652ZM114.443 34.7255C114.942 34.7255 115.294 34.8083 115.527 34.9151C115.959 35.1112 116.025 35.3725 115.863 35.7279C115.699 36.0897 115.245 36.5902 114.33 37.0029C112.204 37.964 108.232 38.2222 103.653 38.3066C108.207 36.3049 112.197 34.7366 114.419 34.7255C114.427 34.7255 114.435 34.7255 114.443 34.7255ZM64.6573 33.8266C65.5371 33.8266 66.3977 33.9812 67.0591 34.2697C68.7198 34.99 69.3668 36.6412 70.0028 38.7497L70.0012 38.7513C68.6465 39.4605 67.4464 40.0119 66.2527 40.0119C65.7825 40.0119 65.3108 39.9243 64.8278 39.7155C62.6922 38.7879 61.0044 36.0881 61.4491 35.0187C61.7057 34.3972 62.9233 33.8266 64.6573 33.8266ZM108.232 0.372192C106.508 0.372192 105.078 1.70457 104.973 3.80672C104.81 7.04204 107.881 12.5931 110.75 17.7664H110.749C109.904 21.7906 109.056 25.5981 106.371 29.0916C105.57 30.1307 104.601 31.1523 103.521 32.2886C103.226 32.5994 102.926 32.915 102.62 33.2401C103.199 27.5456 103.683 21.7555 102.49 18.8629C101.911 17.4604 100.877 16.5472 99.6513 16.4069C99.6401 16.4069 99.6338 16.4053 99.621 16.4037L99.6226 16.4053C99.519 16.3942 99.4186 16.3894 99.3198 16.3894C97.6161 16.3894 96.3203 17.9018 96.1084 19.9689C95.7482 23.4593 98.303 29.5665 100.644 35.2418C100.662 35.2865 100.684 35.3311 100.71 35.3725H100.708C98.8608 37.556 97.0312 40.192 95.694 43.6919C94.0477 48.0046 93.1599 53.6194 92.5894 59.7282C92.3949 59.0875 92.1591 58.4357 91.877 57.7711C91.8499 57.7089 91.8228 57.6452 91.7941 57.583C91.0116 55.798 89.8943 53.9286 88.7644 52.0336C87.9277 50.6327 87.0798 49.2111 86.3212 47.7623L86.3196 47.7639L87.4463 26.9496C87.4479 26.9193 87.4479 26.889 87.4463 26.8603H87.4448C88.8393 25.1359 90.4585 23.064 89.8704 20.4311C89.3525 18.1074 86.9156 15.0267 84.6095 15.0267C84.4485 15.0267 84.2843 15.0411 84.1218 15.0745V15.0761C81.6355 15.5877 80.6522 19.7888 81.1415 22.1635C81.1478 22.1938 81.1526 22.2209 81.159 22.2512C81.7312 24.8123 83.9672 26.0634 85.9307 27.0771H85.9291L84.9665 44.8649C84.6716 44.1382 84.4055 43.4003 84.16 42.6544C83.6006 40.9602 83.1432 39.2294 82.6763 37.4508C82.1981 35.6387 81.7088 33.7772 81.0905 31.9061C79.5732 27.3113 77.291 22.6831 75.0071 18.1074H75.0055C75.9522 16.1168 77.0089 13.7485 75.8359 11.3515C74.8541 9.34501 72.2213 7.24922 70.1191 7.24922C69.7382 7.24922 69.3557 7.31616 68.9971 7.4851C66.6973 8.56407 66.7212 12.8783 67.7508 15.0729V15.0745C67.7635 15.1016 67.7763 15.1271 67.789 15.1542C68.9588 17.5448 71.4802 18.2254 73.6461 18.7561C75.9395 23.3525 78.1771 27.8931 79.6593 32.3795C80.1932 33.9987 80.6315 35.6164 81.0586 37.2356C78.6345 35.1048 76.4017 33.1365 75.1251 31.981C74.4876 31.4041 74.0987 31.0375 73.858 30.7985V30.8001C74.223 28.6071 74.58 26.0395 72.8572 24.0314C71.5965 22.5652 69.2425 21.4336 67.3826 21.4336C66.6559 21.4336 65.9052 21.6073 65.3363 22.1125C63.4381 23.7987 64.5888 28.0652 66.1857 29.9235C67.6297 31.6065 69.6426 31.8567 71.5009 31.8567C71.9184 31.8567 72.3392 31.844 72.7536 31.828C73.0325 32.1053 73.4516 32.499 74.113 33.0983C75.694 34.531 78.719 37.1878 81.7567 39.8558H81.7551C82.0547 40.9523 82.3703 42.0456 82.7273 43.1277C83.0715 44.1668 83.454 45.1996 83.9018 46.2212C83.9911 46.4236 84.0819 46.6244 84.176 46.8268C82.4627 45.1406 80.7526 43.5835 79.0855 42.3866C76.4622 40.5028 73.9584 39.5131 71.5375 38.6158H71.5359C70.9048 36.4658 70.1159 33.9525 67.6599 32.8863C66.7674 32.4974 65.6933 32.3173 64.6573 32.3173C62.9074 32.3173 60.7112 32.8592 60.0562 34.4418C59.084 36.7862 61.9814 40.1235 64.2286 41.0989C64.9091 41.3953 65.5849 41.5212 66.2527 41.5212C67.9102 41.5212 69.4896 40.7307 70.8921 39.9864H70.8937C73.3385 40.8901 75.7132 41.8208 78.2058 43.6122C80.8817 45.5343 83.709 48.4556 86.6033 51.4503C86.6399 51.4901 86.6813 51.5236 86.7244 51.5523C86.973 51.9762 87.2232 52.3938 87.4687 52.8066C88.613 54.7223 89.6776 56.5073 90.4139 58.1887C90.4394 58.2444 90.4649 58.3066 90.4888 58.3624C91.8244 61.4941 91.9933 64.3007 92.0332 67.1726H92.0316C91.9088 69.1744 91.8005 71.1921 91.6905 73.2034C91.6634 73.7086 92.0523 74.1421 92.5591 74.1692C92.575 74.1708 92.5926 74.1708 92.6085 74.1708C93.093 74.1708 93.4994 73.7915 93.5249 73.3022C94.1242 62.2288 94.7218 51.3913 97.4105 44.3485C98.0049 42.7914 98.703 41.4192 99.4616 40.1825H99.46C105.502 40.1506 111.882 40.1219 115.085 38.6748C116.263 38.1425 117.128 37.3759 117.532 36.4882C118.115 35.2052 117.635 33.8601 116.285 33.2449C115.763 33.0074 115.139 32.8911 114.443 32.8911C114.432 32.8911 114.421 32.8911 114.409 32.8911C111.555 32.907 106.603 34.9709 101.561 37.2261C102.646 35.8793 103.774 34.6904 104.852 33.5557C105.725 32.6377 106.579 31.7388 107.338 30.8224L107.336 30.824C107.379 30.816 107.421 30.8048 107.462 30.7905C113.252 28.878 119.414 26.8635 122.042 24.4729C122.998 23.6027 123.585 22.6082 123.695 21.6376C123.854 20.2383 122.982 19.1067 121.508 18.9378C121.38 18.9234 121.25 18.9171 121.118 18.9171C120.644 18.9171 120.141 19.0063 119.615 19.18C117.272 19.9546 113.909 22.6703 110.39 25.7861C111.367 23.4816 111.914 21.1308 112.401 18.8374H112.4C118.185 16.4404 124.396 13.884 126.034 11.3436C126.312 10.9133 126.48 10.4622 126.531 10.008C126.747 8.11941 125.033 6.84122 123.242 6.63882C123.057 6.61651 122.867 6.60535 122.675 6.60535C122.004 6.60535 121.296 6.73922 120.595 7.02929C117.898 8.1465 115.299 11.6783 112.836 15.414C113.071 10.3363 113.144 5.24429 111.695 2.63054C110.964 1.31251 109.821 0.529974 108.613 0.392911C108.543 0.384942 108.473 0.380161 108.403 0.37538C108.345 0.373786 108.288 0.372192 108.232 0.372192Z" fill="#003049"/>
</g>
<path d="M81.9974 157.691C81.8826 156.097 82.0197 154.59 82.2396 153.066C82.2428 153.047 82.2604 153.031 82.2811 153.033C82.2954 153.033 82.3082 153.041 82.3145 153.052C84.0071 154.838 85.5084 156.767 86.4471 159.703C87.2552 162.232 87.6584 165.547 87.9214 169.2C87.9644 169.809 88.0074 170.462 88.0457 171.085L88.0441 171.098C88.0393 171.114 88.0265 171.127 88.0106 171.128C87.9947 171.131 87.9787 171.125 87.9708 171.111C85.655 167.561 83.6294 164.181 82.6827 161.22C82.6811 161.218 82.6811 161.215 82.6795 161.213C82.2843 159.977 82.0787 158.812 81.9974 157.691Z" fill="#003049"/>
<path d="M82.3098 150.326C84.5394 152.566 86.9237 154.947 88.2592 159.122C89.5645 163.202 89.8514 168.98 90.1383 174.558C90.1606 174.994 89.888 175.393 89.4721 175.53C89.0577 175.667 88.6019 175.511 88.3596 175.146C85.3299 170.6 82.1759 165.885 80.8674 161.793C79.5319 157.613 80.1215 154.124 80.6634 150.854C80.724 150.494 80.979 150.197 81.3264 150.087C81.6739 149.976 82.0532 150.068 82.3098 150.326ZM80.9344 151.699L82.5807 151.171C82.0356 154.453 81.54 157.516 82.7178 161.201C83.9242 164.975 86.8886 169.435 89.9757 174.068L88.1971 174.657C87.907 168.978 87.6185 163.499 86.4089 159.715C85.2279 156.026 83.1576 153.933 80.9344 151.699Z" fill="black" fill-opacity="0.992"/>
<path d="M60.9248 173.218C60.9216 173.202 60.928 173.187 60.9408 173.178C63.0764 171.662 65.22 170.397 68.0377 170.041C70.8555 169.684 74.3809 170.221 78.1644 170.964C78.1804 170.967 78.1931 170.98 78.1963 170.996C78.1963 170.999 78.1963 171.001 78.1963 171.004C78.1963 171.02 78.1867 171.034 78.174 171.041C74.5753 172.759 71.1918 174.207 68.3565 174.567C65.569 174.92 63.2788 174.214 60.9487 173.249L60.9248 173.219V173.218Z" fill="#003049"/>
<path d="M80.9566 171.573C76.9977 170.754 73.1727 169.968 69.9677 169.968C69.2888 169.968 68.6465 170.005 68.0424 170.081C64.6366 170.511 62.2189 172.274 59.594 174.207L59.4091 172.543C61.8922 173.63 64.176 174.618 66.9093 174.618C67.3747 174.618 67.8544 174.59 68.3516 174.526C71.8451 174.085 76.1754 171.981 80.7287 169.758L80.9566 171.573ZM81.3487 169.679C81.7535 169.762 82.0595 170.094 82.1121 170.505C82.1631 170.915 81.9479 171.313 81.5766 171.495C77.138 173.664 72.4779 175.952 68.5939 176.445C68.0154 176.518 67.4559 176.552 66.9093 176.552C63.7138 176.552 61.0746 175.383 58.6329 174.314C58.3174 174.175 58.099 173.879 58.0608 173.536C58.0225 173.192 58.1708 172.854 58.4481 172.65C61.0347 170.744 63.8302 168.664 67.8002 168.162C68.4967 168.073 69.2218 168.035 69.9677 168.035C73.4118 168.035 77.4472 168.873 81.3487 169.679Z" fill="black" fill-opacity="0.992"/>
<path d="M44.3975 160.055C44.3943 160.042 44.3991 160.028 44.4102 160.018C46.3435 158.295 48.3054 156.902 51.4084 156.746C54.5768 156.585 58.9405 157.694 63.65 159.067C63.6659 159.07 63.6755 159.083 63.6787 159.097C63.6787 159.1 63.6803 159.103 63.6787 159.107C63.6787 159.126 63.6643 159.142 63.6468 159.145C59.2943 160.603 55.2143 161.83 52.0539 161.99C48.8919 162.149 46.6463 161.236 44.4182 160.085L44.3975 160.056V160.055Z" fill="#003049"/>
<path d="M66.538 159.964C61.0698 158.33 55.8168 156.772 52.0317 156.772C51.8181 156.772 51.6125 156.776 51.4101 156.786C47.7859 156.969 45.7268 158.844 43.4318 160.965L43.2342 159.411C45.722 160.748 48.0186 161.967 51.3432 161.967C51.5743 161.967 51.8085 161.963 52.0508 161.95C55.8901 161.755 61.0937 159.983 66.5013 158.133L66.538 159.964ZM67.0878 158.122C67.4878 158.241 67.7652 158.604 67.7731 159.024C67.7827 159.441 67.5197 159.817 67.1245 159.953C61.8237 161.766 56.3204 163.66 52.148 163.87C51.8739 163.885 51.6077 163.891 51.3432 163.891C47.4879 163.891 44.8088 162.441 42.3241 161.107C42.05 160.958 41.8651 160.689 41.8253 160.38C41.7854 160.072 41.8986 159.763 42.1265 159.553C44.4088 157.444 46.9269 155.087 51.3129 154.866C51.5487 154.853 51.7894 154.848 52.0317 154.848C56.1658 154.848 61.7344 156.521 67.0878 158.122Z" fill="#003049"/>
<path d="M68.4441 149.509C68.0775 147.509 68.2767 145.794 68.6321 144.068C68.6369 144.049 68.6529 144.036 68.672 144.036C68.6863 144.036 68.6975 144.042 68.7054 144.052C70.4012 145.662 71.9105 147.416 72.8811 150.284C72.8811 150.285 72.8827 150.287 72.8827 150.288C73.2158 151.275 73.4899 152.41 73.7194 153.659C74.1449 155.983 74.4047 158.652 74.6167 161.446V161.457C74.6135 161.473 74.6007 161.486 74.5848 161.489C74.5689 161.492 74.5529 161.486 74.5434 161.472C72.073 157.76 69.9087 154.258 68.9334 151.377V151.375C68.9334 151.374 68.9318 151.372 68.9318 151.37C68.7102 150.717 68.5524 150.099 68.4441 149.509Z" fill="#003049"/>
<path d="M74.8287 165.045C74.4494 159.392 74.0749 153.94 72.8429 150.296C71.6476 146.761 69.6315 144.925 67.4496 142.952L69.0354 142.457C68.3772 145.263 67.7811 147.847 68.9701 151.358C70.2004 154.995 73.3306 159.631 76.5898 164.438L74.8287 165.045ZM76.7539 164.916C76.7826 165.349 76.5165 165.751 76.1053 165.893C75.6925 166.035 75.2367 165.882 74.9929 165.521C71.7974 160.807 68.476 155.921 67.142 151.976C65.765 147.906 66.4934 144.85 67.158 142.017C67.2361 141.684 67.4831 141.417 67.8098 141.315C68.1349 141.213 68.4904 141.292 68.7438 141.521C70.9399 143.508 73.3003 145.631 74.6693 149.678C76.0017 153.616 76.381 159.366 76.7539 164.916Z" fill="black" fill-opacity="0.992"/>
<path d="M53.2269 135.105C53.0691 133.438 53.1791 131.871 53.364 130.282L53.3655 130.28C53.3655 130.276 53.3671 130.269 53.3687 130.264H53.3703C53.3719 130.26 53.3751 130.255 53.3799 130.252C53.3895 130.244 53.4006 130.24 53.4134 130.244C53.4229 130.245 53.4309 130.25 53.4357 130.256C55.4964 131.906 57.3037 133.699 58.3715 136.776C58.3715 136.778 58.3715 136.78 58.3731 136.781C58.9963 138.584 59.3772 140.864 59.6226 143.441C59.7979 145.287 59.8999 147.254 59.978 149.278L59.9764 149.294C59.97 149.308 59.9573 149.319 59.943 149.321C59.927 149.322 59.9127 149.316 59.9047 149.303C57.369 145.54 55.1235 141.95 54.0413 138.831C53.5871 137.516 53.3385 136.284 53.2269 135.105Z" fill="#003049"/>
<path d="M60.0498 152.631C59.8602 146.513 59.6673 140.638 58.3334 136.789C57.0424 133.069 54.6677 131.232 52.0667 129.243L53.6206 128.599C53.176 131.923 52.7696 135.036 54.0796 138.818C55.4216 142.688 58.5629 147.289 61.8237 152.051L60.0498 152.631ZM61.9942 152.571C62.007 153.002 61.7344 153.391 61.3232 153.525C60.9136 153.659 60.4642 153.508 60.2188 153.151C57.0153 148.471 53.6892 143.628 52.242 139.456C50.7646 135.192 51.2491 131.662 51.6938 128.341C51.74 127.996 51.9647 127.703 52.2851 127.571C52.6054 127.439 52.972 127.486 53.2477 127.697C55.8471 129.686 58.6712 131.828 60.171 136.152C61.6245 140.346 61.8077 146.58 61.9942 152.571Z" fill="black" fill-opacity="0.992"/>
<path d="M50.763 147.871L50.5957 147.864C46.6607 147.702 42.7592 147.542 39.3295 147.542C36.8591 147.542 34.6646 147.625 32.8955 147.842C28.7167 148.357 26.8791 149.624 24.9459 150.95L24.8757 149.31L24.8949 149.319V149.321C26.9221 150.47 28.7772 151.507 31.7464 151.507C32.2931 151.507 32.8796 151.472 33.5186 151.393C37.7708 150.87 44.0199 148.476 50.4554 146.001L50.763 147.871ZM50.8427 145.937C51.3017 145.956 51.6826 146.294 51.7575 146.747C51.8324 147.2 51.5774 147.643 51.1503 147.807C44.8199 150.24 38.3015 152.755 33.7545 153.315C33.0421 153.401 32.3759 153.442 31.7464 153.442C28.2322 153.442 25.9961 152.169 23.9402 151.004H23.9418L23.9227 150.993C23.6326 150.829 23.4477 150.526 23.4334 150.193C23.4191 149.86 23.5768 149.542 23.8526 149.353C25.8973 147.95 28.0361 146.49 32.6596 145.921C34.5434 145.69 36.8289 145.607 39.3295 145.607C42.8086 145.607 46.7484 145.768 50.6754 145.931L50.8427 145.937Z" fill="#003049"/>
<path d="M26.2208 150.081C26.2176 150.064 26.2256 150.048 26.2399 150.04C27.805 149.056 29.6426 148.202 32.8906 147.802C36.1961 147.396 40.9231 147.463 46.0391 147.644C46.0582 147.646 46.0741 147.659 46.0773 147.678C46.0773 147.679 46.0789 147.681 46.0789 147.682C46.0789 147.7 46.0678 147.718 46.0518 147.722C41.2483 149.522 36.7969 151.031 33.5234 151.434C30.2323 151.837 28.1684 151.114 26.2495 150.113C26.2351 150.108 26.224 150.097 26.2208 150.081Z" fill="#003049"/>
<path d="M31.0436 128.54L31.0579 128.506V128.505L31.0547 128.508L31.0436 128.54ZM31.2013 129.577C31.1201 129.232 31.0563 128.889 31.0053 128.549C31.0021 128.54 31.0037 128.53 31.0069 128.522C31.0149 128.506 31.0308 128.497 31.0483 128.498C31.0547 128.5 31.0611 128.502 31.0659 128.505C33.0437 129.267 34.8957 130.204 36.6424 132.18C38.3461 134.108 39.9606 137.028 41.5894 140.267C41.591 140.27 41.5926 140.273 41.5926 140.276C41.5942 140.284 41.5942 140.294 41.5894 140.302C41.5846 140.313 41.5751 140.321 41.5623 140.324L41.5304 140.319C39.0394 138.668 36.7683 137.086 35.1666 135.68C32.9943 133.772 32.1002 132.22 31.5966 130.88C31.4277 130.432 31.3002 129.998 31.2013 129.577Z" fill="#003049"/>
<path d="M43.1131 143.448L43.0955 143.411C40.9296 138.976 38.845 134.735 36.6121 132.207C34.4446 129.754 32.1162 128.91 29.5773 128.001L30.8587 126.996C30.9942 128.307 31.1217 129.503 31.6333 130.865C32.1353 132.199 33.0262 133.747 35.1937 135.65C37.4074 137.594 40.9089 139.878 44.5044 142.218L43.1131 143.448ZM44.8439 142.602C45.0335 142.992 44.9411 143.459 44.616 143.746C44.2924 144.034 43.8159 144.069 43.4541 143.832C39.9064 141.523 36.2663 139.154 33.9235 137.097C31.5329 134.999 30.4507 133.194 29.8307 131.543C29.2219 129.92 29.0785 128.499 28.943 127.193C28.9096 126.863 29.0466 126.54 29.308 126.336C29.5678 126.132 29.9152 126.076 30.226 126.188C32.7728 127.099 35.5316 128.075 38.0561 130.932C40.5009 133.701 42.7051 138.225 44.8263 142.565L44.8439 142.602Z" fill="#003049"/>
<path d="M8.24817 140.694L8.26411 140.659C10.4077 139.098 12.5593 137.844 15.7229 137.831C18.9773 137.817 23.3171 139.103 27.9692 140.648C27.9852 140.654 27.9963 140.668 27.9979 140.684C27.9979 140.686 27.9979 140.689 27.9963 140.692C27.9947 140.707 27.9836 140.719 27.9692 140.724H27.9708C23.6725 142.243 19.6451 143.499 16.4321 143.513C13.1968 143.526 10.7519 142.267 8.26729 140.726L8.24817 140.694Z" fill="#003049"/>
<path d="M30.5879 141.572C24.9826 139.674 19.6229 137.871 15.7724 137.871C15.7516 137.871 15.7421 137.871 15.7229 137.871C12.0239 137.887 9.71292 139.605 7.16451 141.527L7.10236 139.943C10.0078 141.795 12.6741 143.472 16.3828 143.472C16.4035 143.472 16.4114 143.472 16.4322 143.472C20.2795 143.456 25.3014 141.653 30.5687 139.749L30.5879 141.572ZM31.2062 139.742C31.5951 139.875 31.8581 140.236 31.8613 140.648C31.866 141.057 31.611 141.425 31.2254 141.564C26.0839 143.424 20.6986 145.386 16.4401 145.402H16.4417C16.4162 145.403 16.4035 145.403 16.3828 145.403C12.0414 145.403 8.93357 143.398 6.06482 141.57C5.79867 141.401 5.63133 141.111 5.62017 140.794C5.60742 140.479 5.75086 140.176 6.00267 139.986C8.53673 138.074 11.3099 135.959 15.715 135.941C15.7341 135.941 15.7548 135.941 15.7724 135.941C20.0165 135.941 25.7333 137.889 31.2062 139.742Z" fill="black" fill-opacity="0.992"/>
<path d="M30.6785 139.875C34.7107 140.26 38.8258 140.651 43.9975 142.649C49.1325 144.634 55.3004 148.202 61.3949 151.726C61.7519 151.931 61.8746 152.389 61.6674 152.747C61.4602 153.104 61.0028 153.227 60.6458 153.02C54.5162 149.477 48.46 145.977 43.4588 144.046C38.4927 142.127 34.5577 141.747 30.5367 141.365C30.1255 141.325 29.8243 140.96 29.8641 140.549C29.9024 140.138 30.2673 139.836 30.6785 139.875Z" fill="#003049"/>
<path d="M105.188 98.1694C105.18 98.1694 105.174 98.1726 105.169 98.179C105.166 98.1854 105.166 98.1933 105.169 98.1997C106.509 101.068 108.202 103.55 111.265 105.075V105.077C114.983 106.927 120.753 107.412 126.994 107.686H126.995C127.006 107.686 127.016 107.678 127.016 107.667L127.006 107.646C125.703 106.889 124.442 106.006 123.339 104.86H123.338L123.336 104.857C122.796 104.294 122.297 103.674 121.824 103.083L121.812 103.07C120.558 101.505 119.468 100.184 117.873 99.7106C117.619 99.6357 117.345 99.5799 117.052 99.5401C116.668 99.4907 116.261 99.4699 115.839 99.4699C114.975 99.4699 114.037 99.556 113.053 99.6468L113.001 99.6516L112.946 99.6564C112.048 99.7409 111.11 99.8269 110.215 99.8269C109.759 99.8269 109.316 99.8046 108.893 99.7488C107.41 99.5528 106.219 98.952 105.202 98.1742L105.19 98.1694H105.188Z" fill="black" fill-opacity="0.992"/>
<path d="M145.341 107.133C145.328 107.133 145.315 107.139 145.307 107.149C143.164 109.493 141.444 111.638 140.842 113.406C140.397 114.711 140.571 115.825 140.789 117.126V117.129C140.789 117.132 140.791 117.135 140.792 117.138H140.791L140.799 117.184L140.808 117.243C140.968 118.193 141.141 119.29 140.923 120.466C140.434 123.089 137.989 125.934 135.788 128.494L135.638 128.669C135.598 128.715 135.555 128.757 135.509 128.793C135.496 128.803 135.49 128.819 135.492 128.835H135.49C135.292 129.609 135.069 130.382 134.825 131.154C134.37 132.606 133.839 134.062 133.273 135.506C133.268 135.521 133.27 135.537 133.278 135.549C133.286 135.56 133.297 135.567 133.31 135.568H133.308C133.31 135.57 133.313 135.57 133.316 135.57C133.324 135.57 133.33 135.568 133.338 135.564H133.337C137.71 133.302 141.548 131.053 143.229 127.662C144.662 124.776 144.589 120.957 144.495 117.194V117.183L144.493 117.124C144.464 115.999 144.439 114.885 144.463 113.841C144.522 111.248 144.892 109.111 145.387 107.192L145.389 107.179C145.389 107.153 145.368 107.133 145.343 107.133H145.341Z" fill="black" fill-opacity="0.992"/>
<path d="M120.125 113.828C120.112 113.828 120.102 113.838 120.099 113.849H120.101L120.099 113.85C119.678 116.907 119.207 120.001 118.539 123.177L118.537 123.18C118.446 123.614 118.352 124.044 118.258 124.476V124.477C117.439 128.228 116.681 131.799 117.833 135.434C118.832 138.581 121.272 141.835 124.155 145.214C124.16 145.219 124.166 145.222 124.173 145.222C124.176 145.222 124.179 145.222 124.181 145.22C124.19 145.217 124.197 145.207 124.197 145.198V145.191C122.794 140.01 121.608 135.007 121.623 131.366C121.632 128.911 122.181 127.08 122.646 125.528V125.529C122.646 125.528 122.651 125.509 122.652 125.507V125.504C123.086 124.058 123.409 122.943 123.328 121.684C123.189 119.505 121.848 116.807 120.147 113.841L120.125 113.828Z" fill="black" fill-opacity="0.992"/>
<path d="M132.68 72.6057C132.68 73.4217 132.019 74.0847 131.201 74.0847C130.385 74.0847 129.724 73.4217 129.724 72.6057C129.724 71.7897 130.385 71.1267 131.201 71.1267C132.019 71.1267 132.68 71.7897 132.68 72.6057Z" fill="black" fill-opacity="0.992"/>
<path d="M105.926 162.351L107.253 158.694L108.554 162.638L112.489 162.565L109.596 165.706L110.639 169.598L106.7 167.222L103.35 170.403L104.31 164.847L101.757 162.248L105.926 162.351Z" fill="#003049"/>
<path d="M147.336 170.495C154.191 162.887 161.078 155.243 166.044 150.446C171.039 145.619 174.105 143.658 177.143 141.719C177.425 141.539 177.785 141.54 178.065 141.722C178.344 141.904 178.493 142.232 178.443 142.563C177.944 145.862 177.423 149.305 173.92 153.646C170.484 157.905 164.181 163.026 159.455 166.191C154.683 169.386 151.455 170.632 148.273 171.86C147.907 172.002 147.489 171.872 147.266 171.547C147.043 171.224 147.072 170.787 147.336 170.495ZM148.6 171.635L147.661 170.271C150.803 169.059 153.893 167.866 158.507 164.775C163.167 161.655 169.313 156.644 172.596 152.577C175.809 148.596 176.272 145.523 176.76 142.308L178.059 143.153C175.069 145.062 172.108 146.954 167.226 151.67C162.313 156.416 155.472 164.007 148.6 171.635Z" fill="black" fill-opacity="0.992"/>
<path d="M176.456 144.187L176.438 144.163L176.44 144.162L176.456 144.187ZM176.481 144.17C176.472 144.155 176.454 144.151 176.438 144.16C173.936 145.8 171.219 147.768 167.204 151.648C162.88 155.826 157.063 162.206 151.045 168.876C151.035 168.887 151.034 168.902 151.042 168.913C151.042 168.914 151.043 168.916 151.045 168.918C151.055 168.929 151.071 168.932 151.085 168.924C153.213 167.995 155.554 166.791 158.524 164.801C163.186 161.679 169.335 156.666 172.62 152.598C175.205 149.393 176.014 146.776 176.484 144.2C176.488 144.191 176.488 144.179 176.481 144.171V144.17Z" fill="#003049"/>
<path d="M154.444 148.569C154.438 148.561 154.429 148.557 154.419 148.557C154.409 148.557 154.4 148.562 154.395 148.57C150.443 154.128 146.629 159.707 143.652 165.768C141.114 170.937 139.178 176.467 137.388 182.122C137.385 182.131 137.388 182.142 137.393 182.15C137.396 182.152 137.398 182.155 137.401 182.157C137.412 182.165 137.426 182.163 137.438 182.155L137.444 182.147L138.845 179.97V179.972C138.846 179.97 138.846 179.97 138.846 179.97C144.029 171.381 149.169 162.86 151.804 157.116C153.544 153.319 154.178 150.76 154.451 148.592L154.444 148.57V148.569Z" fill="#003049"/>
<path d="M133.958 187.564C136.3 179.891 138.663 172.137 142.152 165.03C145.642 157.924 150.248 151.488 154.805 145.118C155.025 144.81 155.42 144.685 155.777 144.809C156.134 144.933 156.366 145.277 156.347 145.654V145.677C156.198 148.76 156.033 151.899 153.322 157.814C150.639 163.665 145.437 172.285 140.278 180.834L140.265 180.855L135.488 188.274C135.257 188.632 134.8 188.765 134.414 188.586C134.028 188.408 133.834 187.971 133.958 187.564ZM135.587 188.062L134.057 187.352L138.832 179.934L138.819 179.954C144.002 171.366 149.142 162.845 151.775 157.103C154.366 151.452 154.505 148.545 154.647 145.595V145.572L156.19 146.109C151.619 152.499 147.097 158.823 143.68 165.783C140.262 172.743 137.935 180.362 135.587 188.062Z" fill="#003049"/>
<path d="M134.889 187.002C139.707 186.041 144.418 185.097 149.332 182.761C154.267 180.415 159.433 176.652 164.683 172.824L165.389 174.338C160.18 175.626 155.069 176.893 150.136 179.237C145.197 181.585 140.415 185.027 135.552 188.527L134.889 187.002ZM135.222 188.671C134.829 188.75 134.435 188.543 134.275 188.177C134.115 187.808 134.232 187.38 134.558 187.145C139.391 183.665 144.302 180.126 149.407 177.699C154.518 175.269 159.796 173.967 164.981 172.685C165.376 172.588 165.784 172.782 165.956 173.152C166.128 173.52 166.015 173.96 165.685 174.199C160.472 178.002 155.17 181.872 150.063 184.299C144.933 186.739 140.024 187.714 135.222 188.671Z" fill="#003049"/>
<path d="M161.11 175.412L161.089 175.404C157.363 176.389 153.699 177.522 150.129 179.219C146.297 181.041 142.56 183.519 138.808 186.173L138.802 186.2L138.823 186.21C142.3 185.441 145.767 184.479 149.341 182.78C153.149 180.969 157.092 178.316 161.106 175.442L161.111 175.414L161.11 175.412Z" fill="#003049"/>
<path d="M9.40518 24.3948L13.8565 14.9757L17.9541 24.5271L26.9492 28.258L18.1437 31.3547L14.2597 43.8975L9.67452 32.4432L0.370209 28.9338L9.40518 24.3948Z" fill="#003049"/>
<path d="M26.5794 40.7769C26.5794 41.5961 25.9164 42.2606 25.0972 42.2606C24.2796 42.2606 23.6151 41.5961 23.6151 40.7769C23.6151 39.9593 24.2796 39.2947 25.0972 39.2947C25.9164 39.2947 26.5794 39.9593 26.5794 40.7769Z" fill="black" fill-opacity="0.992"/>
<path d="M144.431 26.7725C144.431 27.1742 144.106 27.4993 143.704 27.4993C143.302 27.4993 142.977 27.1742 142.977 26.7725C142.977 26.3709 143.302 26.0458 143.704 26.0458C144.106 26.0458 144.431 26.3709 144.431 26.7725Z" fill="black" fill-opacity="0.992"/>
<path d="M91.2187 32.95L92.0363 30.3203L93.4611 32.6695L95.9537 33.315L93.7623 34.4497L93.2077 37.8763L91.5852 35.0474L89.0209 34.472L91.2187 32.95Z" fill="#003049"/>
<path d="M167.26 34.6776L169.161 36.2474L166.56 36.8498L165.24 39.4046L164.939 36.4243L162.765 35.0999L165.331 34.2775L166.53 31.1315L167.26 34.6776Z" fill="#003049"/>
<path d="M133.848 25.9279L137.571 25.0163L135.973 29.2445L138.754 33.5779L133.211 32.8097L129.719 36.9312L129.51 30.9546L125.508 28.8509L129.319 27.4675L130.651 23.4624L133.848 25.9279Z" fill="#003049"/>
<path d="M47.7285 86.9733L49.6298 88.5448L47.0288 89.1472L45.7108 91.702L45.408 88.7217L43.2341 87.3957L45.8016 86.5733L46.9985 83.4272L47.7285 86.9733Z" fill="#003049"/>
<path d="M95.7004 201.271L97.6017 202.842L95.0007 203.444L93.6827 205.999L93.3799 203.019L91.206 201.693L93.7735 200.871L94.9704 197.726L95.7004 201.271Z" fill="#003049"/>
<path d="M173.581 70.3474L175.57 66.1351L177.402 70.4064L181.423 72.075L177.487 73.4584L175.75 79.0668L173.7 73.9461L169.54 72.3763L173.581 70.3474Z" fill="#003049"/>
<path d="M37.4202 177.516C37.9812 178.596 38.6585 179.583 39.5494 180.263C40.265 180.809 41.0953 181.14 41.787 181.419C42.4723 181.695 43.011 181.918 43.4238 182.233C43.5959 182.364 43.7362 182.504 43.8462 182.662C44.4884 183.574 44.4613 185.336 44.294 187.549C41.6149 186.65 39.3709 185.732 38.3111 183.877C37.4345 182.343 37.3118 180.101 37.4202 177.516ZM55.8869 183.894C57.2193 185.102 58.3078 186.294 58.8242 187.647C59.331 188.972 59.3119 190.503 59.2737 192.374C59.2593 193.119 59.2434 193.909 59.2689 194.722C59.3294 196.698 59.6338 198.789 60.0036 200.89C58.4943 199.188 57.1556 197.583 56.3252 196.209C55.2239 194.381 55.0502 192.998 55.2 191.517C55.2733 190.798 55.4232 190.055 55.5825 189.268C55.7371 188.5 55.9029 187.689 55.9826 186.892C55.9953 186.776 56.0049 186.658 56.0128 186.54C56.0766 185.622 56.0097 184.74 55.8853 183.894H55.8869ZM46.9524 196.708C47.3811 196.708 47.856 196.765 48.3852 196.904C50.1096 197.358 52.3393 198.649 54.7633 200.195V200.197C54.0334 200.201 53.3051 200.259 52.615 200.413C52.1464 200.52 51.7049 200.67 51.3129 200.804C50.9113 200.941 50.5574 201.06 50.1909 201.143C49.8976 201.209 49.6092 201.248 49.3063 201.248C49.1119 201.248 48.9095 201.232 48.6943 201.194C47.6743 201.014 46.3818 200.362 45.1004 199.709C44.5665 199.436 44.0358 199.165 43.5657 198.958C43.1608 198.78 42.7991 198.649 42.4676 198.553C42.8533 198.313 43.266 198.061 43.7203 197.793C44.6574 197.24 45.6328 196.708 46.9524 196.708ZM71.7288 192.083C72.3695 192.84 73.0102 193.654 73.6573 194.594C74.9227 196.434 76.1722 198.695 76.6296 200.997C77.0217 202.979 76.8416 205.038 76.5643 207.206C75.5809 206.677 74.6486 206.106 73.7656 205.29C72.5687 204.186 71.5551 202.718 71.3862 201.392C71.2889 200.638 71.4499 199.875 71.6714 198.877C71.8324 198.155 72.0157 197.331 72.0763 196.415C72.1639 195.092 71.9902 193.602 71.7272 192.083H71.7288ZM72.2181 209.252L76.1881 209.447L76.1865 209.448C75.0231 210.129 73.9393 210.805 73.1026 211.444C72.3392 212.025 71.7846 212.574 71.2794 213.071C70.8634 213.482 70.4889 213.85 70.0378 214.212C69.072 214.988 67.8241 215.678 66.3866 215.678C66.3212 215.678 66.2607 215.677 66.1921 215.673V215.675C65.1371 215.629 63.9338 215.216 62.6221 214.759C61.9878 214.537 61.3328 214.309 60.7017 214.135C59.9526 213.931 59.2466 213.807 58.5708 213.732C59.4522 213.273 60.2921 212.805 61.0348 212.328C61.3726 212.111 61.6898 211.891 61.9894 211.686C62.2811 211.483 62.5568 211.294 62.8389 211.112C63.5258 210.671 64.2334 210.293 65.1673 210.024V210.025C66.9237 209.518 69.5008 209.386 72.2181 209.252ZM36.8623 173.619C36.8241 173.619 36.7843 173.622 36.746 173.629C36.3986 173.683 36.1356 173.968 36.1101 174.317C35.8392 177.972 35.5093 182.012 37.001 184.624C38.48 187.214 41.65 188.274 44.4741 189.198C46.6543 191.624 48.8489 194.067 51.0658 196.327C50.2514 195.938 49.4785 195.632 48.7693 195.446C48.119 195.273 47.5166 195.2 46.9524 195.2C45.1945 195.2 43.9115 195.93 42.9553 196.493C41.6866 197.242 40.7415 197.86 39.8108 198.47C39.5223 198.659 39.3996 199.017 39.508 199.342C39.6132 199.65 39.9016 199.855 40.2236 199.855C40.2411 199.855 40.2586 199.855 40.2762 199.854H40.2778C40.4881 199.84 40.673 199.828 40.8674 199.828C41.3631 199.828 41.9687 199.903 42.9584 200.34C43.3808 200.525 43.8701 200.775 44.4151 201.052C45.6232 201.669 47.1404 202.452 48.433 202.68C48.7358 202.734 49.0258 202.758 49.3063 202.758C49.743 202.758 50.1463 202.699 50.5224 202.614C50.9798 202.511 51.4085 202.364 51.7974 202.232C52.2022 202.095 52.5688 201.97 52.9481 201.886C53.5298 201.754 54.1832 201.704 54.8956 201.704C55.5905 201.704 56.3173 201.75 57.0695 201.806C60.7782 204.716 64.6382 206.739 69.4848 207.893H69.4832C67.7301 208.014 66.0583 208.199 64.7498 208.575C63.6342 208.895 62.7895 209.351 62.0229 209.843C61.7185 210.04 61.4204 210.245 61.1336 210.443C60.8308 210.652 60.5327 210.857 60.2188 211.058V211.06C58.8418 211.944 57.0838 212.808 55.2718 213.699L55.2447 213.712C54.9466 213.872 54.7904 214.215 54.8685 214.547C54.9482 214.888 55.2526 215.13 55.6033 215.13H55.6048H55.6399C55.7547 215.13 55.871 215.13 55.9858 215.13C57.393 215.13 58.7477 215.165 60.3032 215.591C60.8754 215.748 61.481 215.959 62.1265 216.183C63.3776 216.619 64.8056 217.124 66.1268 217.181C66.216 217.184 66.3005 217.187 66.3866 217.187C68.3118 217.187 69.888 216.268 70.9829 215.388C71.5009 214.971 71.928 214.55 72.3376 214.145C72.8428 213.648 73.3369 213.162 74.0158 212.644H74.0174C75.2335 211.715 77.0551 210.675 78.9613 209.596H78.9628C81.1925 210.041 83.2309 210.602 84.8645 211.506C88.6449 213.594 90.3613 217.576 92.1862 221.881C92.3089 222.17 92.5878 222.342 92.8811 222.342C92.9799 222.342 93.0787 222.323 93.1759 222.281C93.5584 222.119 93.7385 221.677 93.5759 221.293C91.7957 217.092 89.9071 212.567 85.5928 210.185C83.4604 209.007 80.759 208.371 77.9986 207.88H77.997C78.3078 205.544 78.5819 203.092 78.1086 200.703C77.5922 198.106 76.2104 195.645 74.8988 193.739C73.5839 191.828 72.2946 190.414 71.0387 189.037L71.0196 189.016C70.873 188.855 70.669 188.771 70.4618 188.771C70.347 188.771 70.2291 188.796 70.1207 188.852C69.8179 189.007 69.6553 189.343 69.7239 189.676C70.2275 192.135 70.6945 194.451 70.5718 196.316C70.5192 197.101 70.3614 197.817 70.1988 198.55C69.99 199.495 69.7542 200.523 69.8896 201.583C70.1255 203.425 71.4403 205.196 72.7424 206.398C73.0468 206.68 73.356 206.935 73.6668 207.169C72.3727 206.954 71.112 206.726 69.9151 206.446C66.9571 205.749 64.388 204.716 61.9846 203.331L61.983 203.333C61.9814 203.301 61.9783 203.269 61.9719 203.239C61.4077 200.251 60.8578 197.337 60.775 194.674C60.7511 193.906 60.767 193.154 60.7813 192.405C60.818 190.607 60.8642 188.76 60.2331 187.109C59.3502 184.799 57.1779 182.979 55.2287 181.325C55.0901 181.207 54.9163 181.145 54.741 181.145C54.6088 181.145 54.4749 181.18 54.3553 181.252C54.078 181.417 53.9378 181.739 54.0031 182.055C54.3219 183.561 54.6103 184.954 54.5083 186.438C54.502 186.536 54.4924 186.638 54.4828 186.739C54.4111 187.448 54.2629 188.186 54.1035 188.969C53.9473 189.742 53.7816 190.559 53.7003 191.366C53.5186 193.149 53.7529 194.864 55.0343 196.988C55.6001 197.925 56.3746 198.949 57.256 200.012C57.2353 199.999 57.2161 199.986 57.197 199.972L57.1954 199.973C57.1763 199.956 57.1556 199.94 57.1364 199.924C53.3178 196.765 49.5534 192.594 45.7443 188.355H45.7427C45.9388 186.047 46.1635 183.335 45.0797 181.793C44.8662 181.491 44.6112 181.242 44.3386 181.033C43.7346 180.573 42.9919 180.278 42.3512 180.02C41.6277 179.728 40.9918 179.465 40.4642 179.063C39.2068 178.106 38.4322 176.247 37.5604 174.091C37.4441 173.802 37.1652 173.619 36.8623 173.619Z" fill="black" fill-opacity="0.992"/>
<path d="M38.4019 184.065C39.508 185.81 41.7026 186.699 44.2908 187.566C44.2972 187.568 44.3052 187.566 44.3099 187.56C44.3147 187.555 44.3147 187.547 44.3115 187.541L44.3131 187.542C44.4757 185.407 44.5076 183.668 43.9083 182.723C43.894 182.699 43.8764 182.673 43.8621 182.653L43.8605 182.651H43.8621C43.7489 182.492 43.6087 182.35 43.435 182.219C43.0206 181.902 42.4787 181.679 41.795 181.402H41.7934L41.7567 181.387L41.7185 181.371C41.0412 181.099 40.2491 180.774 39.5606 180.249C38.9215 179.762 38.4051 179.13 37.9684 178.44C37.7803 178.142 37.6034 177.83 37.4361 177.505L37.4106 177.498H37.409L37.401 177.513C37.2942 180.096 37.4154 182.343 38.2935 183.883L38.2951 183.885C38.3286 183.945 38.3652 184.006 38.4019 184.065Z" fill="#003049"/>
<path d="M42.4547 198.563L42.4659 198.571C42.7926 198.667 43.1528 198.796 43.5576 198.974C44.023 199.18 44.5505 199.449 45.0812 199.718C45.0892 199.723 45.0908 199.725 45.0908 199.725H45.0924C46.3722 200.378 47.6663 201.032 48.6911 201.212C49.2362 201.309 49.7175 201.268 50.194 201.161C50.5606 201.078 50.9176 200.957 51.3176 200.821H51.3192C51.324 200.82 51.3351 200.815 51.3351 200.815C51.3399 200.813 51.3463 200.812 51.3479 200.812C51.7336 200.679 52.1623 200.534 52.6197 200.431C53.297 200.278 54.0238 200.22 54.7649 200.214V200.212L54.7633 200.209H54.7665L54.7649 200.212L54.7665 200.214C54.7728 200.212 54.7776 200.209 54.7808 200.204C54.7824 200.2 54.7824 200.193 54.7808 200.189L54.7824 200.19C54.7808 200.189 54.7808 200.187 54.7792 200.185C54.7776 200.184 54.776 200.182 54.7728 200.181H54.7744C52.3488 198.635 50.1175 197.341 48.3899 196.886C46.2734 196.33 44.9251 197.062 43.7122 197.777C43.2564 198.045 42.8452 198.297 42.4595 198.537L42.4532 198.561L42.4547 198.563Z" fill="#003049"/>
<path d="M56.4591 196.459C57.2974 197.782 58.5692 199.301 59.9924 200.903C59.9972 200.909 60.0084 200.911 60.0163 200.904C60.0227 200.899 60.0259 200.888 60.0211 200.88V200.882C59.6514 198.784 59.347 196.695 59.2864 194.72C59.2609 193.911 59.2768 193.123 59.2912 192.382V192.376H59.2928C59.3294 190.505 59.3502 188.97 58.8418 187.641C58.6999 187.27 58.5134 186.908 58.2871 186.549C57.6927 185.614 56.8559 184.747 55.8997 183.88V183.878C55.8933 183.873 55.8853 183.87 55.8774 183.873C55.8694 183.877 55.8662 183.885 55.8662 183.892C55.9905 184.739 56.0575 185.617 55.9953 186.535L55.9969 186.537L55.9953 186.54C55.9873 186.654 55.9762 186.772 55.965 186.887V186.89C55.8853 187.679 55.7228 188.484 55.5682 189.247L55.5634 189.265L55.5618 189.276C55.404 190.059 55.2542 190.798 55.1825 191.515C55.0311 192.999 55.2064 194.386 56.3093 196.215L56.3109 196.217C56.3587 196.297 56.4081 196.378 56.4591 196.459Z" fill="#003049"/>
<path d="M58.5532 213.745L58.5708 213.756C59.2449 213.831 59.9493 213.954 60.6952 214.159C61.32 214.33 61.9718 214.556 62.6013 214.776L62.6141 214.781C63.9242 215.238 65.1322 215.653 66.1921 215.697C67.7189 215.764 69.0401 215.044 70.0537 214.231V214.229C70.5048 213.868 70.8793 213.498 71.2968 213.088L71.3032 213.08L71.3112 213.072C71.8132 212.578 72.3615 212.038 73.1169 211.463C73.952 210.825 75.0358 210.149 76.1992 209.467C76.204 209.464 76.2088 209.459 76.2104 209.453C76.212 209.447 76.2104 209.44 76.2072 209.434L76.1881 209.424L72.2356 209.23H72.2372L72.2324 209.228C69.5103 209.362 66.9236 209.494 65.1609 210.001L65.1545 210.004V210.003C64.2222 210.272 63.513 210.651 62.8261 211.093C62.544 211.275 62.2667 211.464 61.975 211.665L61.9718 211.668L61.967 211.671C61.6706 211.875 61.355 212.092 61.0219 212.307C60.2793 212.784 59.4425 213.251 58.5612 213.71C58.5564 213.713 58.5516 213.718 58.55 213.726C58.5484 213.731 58.55 213.739 58.5532 213.743V213.745Z" fill="#003049"/>
<path d="M72.1734 203.44C72.6069 204.125 73.1647 204.767 73.7496 205.308C74.6357 206.127 75.5681 206.697 76.5546 207.227C76.5642 207.233 76.5753 207.23 76.5833 207.222C76.5881 207.215 76.5897 207.207 76.5881 207.2C76.867 205.035 77.0455 202.976 76.6518 200.992C76.2661 199.047 75.3147 197.129 74.2612 195.465C74.0683 195.162 73.8707 194.864 73.6763 194.58C73.0292 193.64 72.3885 192.825 71.7463 192.067L71.7447 192.065C71.7383 192.057 71.7271 192.054 71.7176 192.059C71.708 192.064 71.7016 192.073 71.7032 192.084C71.9662 193.603 72.1399 195.092 72.0523 196.413C71.9933 197.32 71.8116 198.136 71.6522 198.853C71.6522 198.853 71.6506 198.861 71.649 198.867L71.6506 198.869L71.649 198.872V198.874H71.6474C71.4275 199.87 71.2649 200.636 71.3622 201.395C71.4466 202.05 71.7367 202.75 72.1734 203.44Z" fill="#003049"/>
<path d="M21.2132 169.326L23.1145 170.897L20.5135 171.5L19.1939 174.054L18.8927 171.072L16.7188 169.748L19.2847 168.926L20.4832 165.78L21.2132 169.326Z" fill="#003049"/>
<path d="M27.3524 188.06V188.062C27.3524 188.878 26.691 189.539 25.8734 189.539C25.0574 189.539 24.396 188.878 24.396 188.062V188.06C24.396 187.244 25.0574 186.583 25.8734 186.583C26.691 186.583 27.3524 187.244 27.3524 188.06Z" fill="black" fill-opacity="0.992"/>
<path d="M64.6574 33.801C62.9234 33.801 61.6898 34.3716 61.4252 35.0091V35.0139H61.4236C60.9774 36.1072 62.6827 38.8118 64.8183 39.7377C65.3044 39.9497 65.7794 40.0374 66.2527 40.0374C67.4528 40.0374 68.6577 39.4827 70.0108 38.7735H70.0092C70.0155 38.7719 70.0203 38.7687 70.0235 38.7624C70.0267 38.7576 70.0283 38.7496 70.0251 38.7432C69.3908 36.6363 68.7405 34.9724 67.0703 34.2457C66.4041 33.9572 65.5403 33.801 64.6574 33.801Z" fill="#353535"/>
<path d="M67.3827 22.9174C66.8647 22.9174 66.5221 23.0433 66.3213 23.2218C65.4383 24.0043 65.7921 27.1886 67.311 28.9577C68.3039 30.1147 69.7223 30.3729 71.5009 30.3729C71.7129 30.3729 71.9281 30.3697 72.1448 30.3634H72.1512L72.1655 30.3506C72.2261 30.2486 72.3122 30.1594 72.4205 30.0924C72.4333 30.086 72.4444 30.0797 72.4572 30.0733H72.4556L72.4731 30.0526C72.7871 28.0094 72.8668 26.3232 71.7336 25.002L71.732 24.9988C70.7344 23.837 68.7804 22.9174 67.3827 22.9174Z" fill="#353535"/>
<path d="M84.6096 16.5104C84.5426 16.5104 84.4789 16.5168 84.4215 16.5279C83.3043 16.759 82.1217 19.5704 82.5935 21.8638L82.5951 21.8702C82.5983 21.8893 82.603 21.9084 82.6078 21.9275C83.0047 23.7062 84.5155 24.6592 86.4631 25.6808C86.4679 25.6824 86.4711 25.6824 86.4743 25.6824C86.4822 25.6824 86.4902 25.6792 86.495 25.6744C87.8465 23.9739 88.8171 22.5204 88.4234 20.7529C87.9628 18.689 85.867 16.5104 84.6096 16.5104Z" fill="#353535"/>
<path d="M114.443 34.7095C114.437 34.7095 114.427 34.7095 114.419 34.7095C112.193 34.7206 108.199 36.2905 103.647 38.2922C103.64 38.2954 103.637 38.3034 103.639 38.3098C103.639 38.3177 103.645 38.3225 103.653 38.3225C108.232 38.238 112.207 37.9798 114.336 37.0172C115.254 36.6028 115.712 36.1008 115.877 35.7343C116.043 35.3709 115.973 35.0999 115.533 34.9007C115.299 34.7939 114.943 34.7095 114.443 34.7095Z" fill="#353535"/>
<path d="M99.3548 18.2412C98.8751 18.2412 98.1021 18.662 97.9491 20.1585C97.7101 22.479 99.1046 26.4857 100.929 31.0438C100.933 31.0518 100.941 31.0581 100.95 31.0581C100.952 31.0581 100.953 31.0581 100.955 31.0581C100.964 31.0566 100.974 31.047 100.974 31.0374C101.441 26.0251 101.655 21.6901 100.78 19.5704C100.38 18.5998 99.817 18.289 99.4425 18.246V18.2476C99.4425 18.246 99.4409 18.246 99.4409 18.246C99.4393 18.246 99.4345 18.246 99.4329 18.246H99.4313C99.4074 18.2428 99.3819 18.2412 99.3548 18.2412Z" fill="#353535"/>
<path d="M121.118 20.7275C120.875 20.7275 120.564 20.7738 120.184 20.8997C118.067 21.5993 114.75 24.3262 111.039 27.6349C111.029 27.6412 111.027 27.654 111.034 27.6635C111.037 27.6715 111.045 27.6763 111.055 27.6763C111.056 27.6763 111.059 27.6763 111.061 27.6747C115.39 26.1814 119.093 24.7087 120.824 23.1341C121.57 22.4552 121.851 21.8352 121.897 21.4336C121.943 21.0319 121.788 20.7929 121.304 20.7371C121.247 20.7307 121.184 20.7275 121.118 20.7275Z" fill="#353535"/>
<path d="M122.675 8.078C122.196 8.078 121.68 8.17203 121.157 8.38878C118.813 9.36097 116.386 12.6919 113.818 16.6046C113.812 16.6141 113.813 16.6253 113.82 16.6333C113.825 16.638 113.831 16.6412 113.837 16.6412C113.84 16.6412 113.844 16.6412 113.847 16.6396C119.098 14.4355 123.618 12.3684 124.796 10.5499H124.794L124.797 10.5451C124.968 10.2822 125.046 10.0447 125.07 9.84069C125.151 9.1235 124.477 8.25969 123.076 8.10032C122.946 8.08597 122.812 8.078 122.675 8.078Z" fill="#353535"/>
<path d="M108.238 2.20813C107.574 2.20813 106.868 2.67829 106.807 3.8991C106.697 6.08413 108.587 9.96491 110.996 14.3971C110.999 14.4051 111.007 14.4099 111.016 14.4099C111.018 14.4099 111.02 14.4099 111.021 14.4083C111.032 14.4067 111.039 14.3971 111.04 14.386C111.23 9.61429 111.192 5.51038 110.089 3.52138C109.603 2.64641 108.941 2.27985 108.406 2.21769C108.375 2.2145 108.345 2.21291 108.315 2.21132H108.313C108.312 2.21132 108.31 2.21132 108.31 2.21132C108.286 2.20972 108.262 2.20813 108.238 2.20813Z" fill="#353535"/>
<path d="M70.1191 8.72498C69.9151 8.72498 69.751 8.76163 69.6235 8.82219C69.6219 8.82219 69.6203 8.82379 69.6187 8.82379H69.6171C68.5827 9.31944 68.0935 12.33 69.0864 14.4465L69.0895 14.4513C69.0975 14.4689 69.1055 14.4864 69.115 14.5055L69.1166 14.5087C69.9135 16.1343 71.5901 16.7113 73.7003 17.2468L73.7226 17.2436C73.7242 17.2436 73.729 17.2404 73.7321 17.2404C73.7481 17.2324 73.764 17.2244 73.7784 17.2181L73.8007 17.2005C74.7091 15.2498 75.302 13.6178 74.5099 12.0001C73.6907 10.3235 71.485 8.72498 70.1191 8.72498Z" fill="#353535"/>
</svg>
