<svg width="260" height="229" viewBox="0 0 260 229" fill="none" xmlns="http://www.w3.org/2000/svg">
<path d="M14.5674 189.734C15.9199 190.92 16.513 191.174 18.5418 191.174C20.5706 191.174 21.0783 191.003 21.8399 189.988C23.5295 187.874 22.8533 186.773 18.625 184.319C17.441 183.641 16.4277 182.879 16.2591 182.542C15.7514 181.273 14.9045 181.61 14.145 183.387C13.7226 184.403 13.2149 185.926 13.1295 186.773C12.961 188.127 13.1295 188.55 14.5674 189.734ZM14.6527 185.25C15.329 183.219 15.329 183.219 16.2591 183.98C16.7647 184.403 18.0341 185.335 19.0495 186.011C21.4154 187.534 21.7546 188.381 20.4853 189.48C18.8789 190.749 17.1039 190.495 15.329 188.804L13.8058 187.281L14.6527 185.25ZM10.6783 192.273C9.7482 192.612 6.45007 191.765 4.1674 190.666C2.1386 189.651 1.63086 189.565 0.700731 190.495C0.107665 191.003 0.0244646 191.596 0.192998 193.034C0.446864 195.236 0.783931 195.573 2.6442 196.251C3.4058 196.505 4.33593 197.267 4.75833 198.028C6.87247 201.919 17.1893 201.075 29.7866 196.166C31.5637 195.49 44.4149 188.211 48.2207 185.757C55.2373 181.273 65.5541 174.248 66.9066 173.147C67.4143 172.725 69.1893 171.37 70.881 170.101C72.5706 168.831 75.7834 165.956 77.9829 163.754C82.9706 158.847 83.9007 156.9 89.5669 140.23C90.2431 138.199 91.5957 134.222 92.6111 131.428C93.6245 128.635 95.0623 124.319 95.9093 121.866C97.5989 116.957 98.2751 115.351 98.3605 116.535C98.3605 116.957 98.8682 118.82 99.4591 120.682C100.052 122.628 100.728 125.674 100.982 127.451C101.151 129.228 101.659 133.122 102.081 135.999C103.773 148.607 104.024 155.208 103.18 161.723C102.25 168.748 100.812 173.233 98.4458 176.279C97.2618 177.802 96.8394 177.973 93.7098 178.48C80.097 180.595 64.4533 183.726 55.9989 186.097C51.0111 187.449 46.7829 188.804 46.3605 189.143C46.1066 189.311 45.345 189.565 44.5834 189.734C42.0469 190.327 36.0437 193.459 34.2687 195.065C31.393 197.689 30.5482 199.635 30.5482 204.036C30.5482 207.675 30.5482 207.844 32.3231 210.382C34.8597 214.276 39.2565 217.068 45.5135 218.845C50.5034 220.283 54.8149 221.045 60.9034 221.553C64.0309 221.806 68.1738 222.231 70.1194 222.485C72.065 222.739 80.5194 222.907 89.0591 222.907C97.5157 222.907 106.139 223.076 108.253 223.33C110.282 223.583 115.608 223.923 120.091 224.177C127.869 224.599 141.821 226.293 146.894 227.391C148.5 227.731 154.42 227.899 164.989 227.816C177.334 227.731 181.138 227.899 182.998 228.407C185.281 229 185.452 229 186.973 227.985C189.087 226.63 189.509 225.361 188.157 224.008C187.649 223.415 186.973 222.907 186.719 222.907C186.465 222.907 185.62 222.653 184.944 222.314C183.845 221.806 185.198 221.806 193.315 221.977C210.141 222.314 217.243 221.045 224.347 216.221C228.912 213.175 230.604 210.382 230.858 205.474C231.026 201.582 230.096 198.619 227.982 196.334C226.29 194.557 226.375 194.303 228.236 195.319C230.096 196.334 236.861 198.619 240.664 199.551C247.261 201.158 255.124 200.396 255.124 198.111C255.124 197.521 255.715 197.013 257.068 196.42C259.436 195.404 259.521 195.236 259.775 192.697C259.943 190.92 259.858 190.666 258.845 190.158C257.915 189.734 257.407 189.819 255.886 190.581C253.601 191.765 250.134 192.612 249.121 192.273C248.445 192.019 248.528 191.85 249.543 190.749C250.896 189.311 250.981 188.381 249.88 186.011C249.121 184.488 248.699 182.965 247.683 178.141C247.515 177.294 247.09 176.872 246.668 176.872C246.245 176.872 245.232 176.957 244.385 176.957C243.118 177.041 242.61 177.38 241.172 179.242C239.227 181.781 237.874 182.372 233.648 182.372C232.125 182.372 230.096 182.626 229.166 182.879L227.474 183.387L221.302 177.294C215.975 172.049 192.807 148.776 190.356 146.154C189.848 145.646 189.341 144.377 189.172 143.276C188.664 139.637 187.48 133.375 186.804 130.751C186.465 129.314 185.874 126.521 185.452 124.573C184.099 117.973 182.915 112.895 180.547 103.927C179.195 98.8496 176.912 91.8245 175.982 89.9642C174.375 86.8325 171.331 83.193 168.878 81.5845C166.595 80.0613 161.268 78.201 159.325 78.201C157.464 78.201 155.35 76.8464 154.42 75.0693C152.306 71.0074 152.138 69.8234 151.884 61.6997C151.713 55.8608 151.884 52.5605 152.391 49.1749C152.814 46.6362 153.49 41.6421 153.998 38.1733C154.503 34.7045 155.096 30.7258 155.35 29.3733C155.941 26.073 155.858 20.7418 155.182 18.3717C154.081 14.3952 152.56 12.1104 148.163 7.70929C144.611 4.24049 140.214 1.87035 135.48 0.940219C131.675 0.178619 129.646 0.178619 126.262 0.940219C120.513 2.20955 115.103 5.42449 109.859 10.6704C105.208 15.3253 103.687 20.6565 104.11 30.7258C104.364 37.7509 104.955 43.5045 105.716 47.4832C106.055 49.0896 106.309 53.9984 106.309 58.9072C106.309 67.4533 106.309 67.4533 104.871 71.8544C103.096 77.3541 102.503 78.201 100.897 78.201C99.1221 78.201 93.9637 79.8928 92.1034 81.0768C89.7354 82.6 85.761 87.001 84.4938 89.4565C82.9706 92.5029 81.5349 96.9872 78.6591 107.481C77.6437 111.204 76.2079 117.55 74.0938 127.536C72.4874 135.067 71.8943 138.284 71.6405 140.315C70.881 145.983 71.5573 145.139 51.6021 165.109C34.4373 182.289 33.0847 183.473 31.9861 183.219C31.3098 183.05 28.9418 182.796 26.6591 182.626C21.8399 182.289 21.2469 182.035 19.0495 179.325C17.6949 177.719 17.1893 177.38 15.5829 177.211C12.7925 176.872 12.1994 177.38 12.1994 179.918C12.1994 181.273 11.6917 183.219 10.8469 185.25C9.24047 189.143 9.24046 189.48 10.6783 191.003C11.2693 191.85 11.3546 192.019 10.6783 192.273ZM186.636 224.43L187.82 225.531L186.55 226.63C185.62 227.477 184.944 227.731 184.099 227.477C179.617 226.461 174.036 226.207 166.934 226.801C158.224 227.477 152.306 227.138 142.497 225.446C139.116 224.853 130.068 223.837 122.712 223.33C119.583 223.076 114.427 222.653 111.297 222.399C108.17 222.146 96.6687 221.723 85.761 221.553C74.8554 221.299 64.2015 220.959 62.0021 220.706C59.8047 220.452 56.929 220.115 55.6597 220.029C49.9103 219.522 42.1322 216.983 37.8186 214.359C34.3519 212.245 32.4085 209.706 31.4783 206.489C30.8021 204.036 30.8853 203.106 31.9007 200.313C34.2687 193.966 40.8629 190.749 53.2085 190.073C53.9701 190.073 58.0277 190.412 62.2559 190.835C66.4842 191.342 71.4719 192.019 73.2469 192.443C83.7322 194.811 95.0623 198.028 99.4591 199.889C101.151 200.65 108.846 203.274 113.243 204.629C117.976 206.067 121.021 206.66 127.278 207.336C132.605 207.844 132.859 207.844 135.649 206.828C139.96 205.305 143.681 205.39 147.316 207.167C148.839 207.929 150.7 208.945 151.376 209.535C154.166 211.906 158.732 215.121 160.255 215.882C162.115 216.814 163.382 217.151 169.217 217.913C172.598 218.338 173.951 218.76 175.643 219.775C176.827 220.537 179.448 221.638 181.563 222.314C183.675 222.822 185.959 223.837 186.636 224.43ZM226.798 196.759C229.08 199.212 230.011 202.09 229.757 205.39C229.42 208.774 228.321 211.144 225.784 213.514C223.246 215.799 216.144 219.268 212.846 219.861C206.337 220.876 198.22 221.215 188.918 220.876C179.109 220.454 179.448 220.537 174.712 218.084C173.614 217.491 171.5 217.068 168.963 216.814C163.128 216.221 160.507 215.121 155.35 211.229C149.855 207.082 148.163 206.067 145.034 205.137C142.16 204.29 139.453 204.543 135.227 205.898C133.027 206.66 131.76 206.743 129.56 206.574C122.373 205.898 118.484 205.137 111.212 202.935C109.776 202.513 109.944 202.09 111.89 201.243C112.818 200.821 114.173 200.142 114.849 199.805C115.862 199.212 117.217 199.044 120.344 199.127C124.065 199.127 124.827 199.298 127.446 200.567C130.154 201.836 130.744 202.005 134.887 202.005C137.341 202.005 141.23 201.836 143.598 201.582C149.347 200.989 154.757 199.805 163.468 197.267C165.074 196.842 167.948 196.081 169.808 195.658C189.763 191.342 192.468 191.003 206.506 191.257C215.468 191.428 216.144 191.428 218.934 192.526C223.416 193.966 225.023 194.897 226.798 196.759ZM208.957 187.534C201.01 185.164 196.528 184.149 182.576 181.273C178.855 180.511 170.57 179.071 166.173 178.395C164.398 178.141 162.621 177.719 162.198 177.548C161.014 176.872 158.224 170.862 157.294 166.971C155.858 160.962 155.687 150.892 156.871 141.245C158.309 129.482 159.071 124.405 160.001 121.19C160.423 119.581 160.931 117.804 161.1 117.128C161.354 115.859 162.198 115.434 162.198 116.535C162.198 117.297 163.468 121.19 166.341 129.314C167.442 132.445 168.541 135.66 168.709 136.337C168.878 137.015 169.386 138.284 169.808 139.046C170.232 139.807 170.57 140.652 170.57 140.991C170.57 141.753 174.122 151.654 174.629 152.162C174.798 152.415 174.966 152.923 174.966 153.431C174.966 155.039 178.096 160.285 180.632 162.824C184.859 167.225 191.37 172.217 202.023 179.325C210.902 185.25 213.1 186.687 213.607 186.687C213.861 186.687 214.115 186.858 214.2 187.027C214.284 187.195 216.061 188.296 218.173 189.48C220.287 190.666 222.147 191.765 222.318 192.019C222.486 192.273 222.401 192.358 222.232 192.273C221.048 191.765 212.17 188.465 208.957 187.534ZM153.659 75.9994C154.503 77.1002 153.998 76.9317 151.713 75.6624C145.964 72.2768 143.681 65.0832 144.189 51.7136C144.443 44.0122 145.034 38.9349 145.627 39.528C145.71 39.6112 146.134 40.7973 146.471 42.1498C146.811 43.4192 147.824 46.297 148.754 48.4986L150.446 52.4752L150.531 60.1765C150.531 68.9765 151.376 73.2069 153.659 75.9994ZM141.061 52.2213L143.005 49.9365L143.344 57.4672C143.598 63.9845 143.766 65.4224 144.78 68.0464C146.049 71.5152 147.57 73.7146 149.684 75.0693C151.291 76.0848 151.713 77.0149 150.446 76.5072C148.163 75.6624 144.103 72.953 142.751 71.4298C140.637 69.0618 139.792 66.0986 139.538 59.752L139.284 54.5061L141.061 52.2213ZM131.338 58.2288C129.477 58.8218 129.392 58.8218 126.516 57.2986C124.741 56.3685 122.373 54.5914 120.513 52.729C117.554 49.768 117.386 49.5141 116.455 45.8746C115.948 43.7584 115.271 40.7973 115.018 39.2741C114.764 37.7509 114.427 35.72 114.341 34.873C113.665 30.5573 115.779 28.6117 123.472 26.1562C125.418 25.5653 128.208 23.6176 128.97 22.265L129.729 20.9957L131.675 23.1098C133.112 24.633 134.38 25.48 136.579 26.3269C138.186 26.9178 140.046 27.5962 140.722 27.7648C141.398 27.9333 142.668 28.6949 143.427 29.4565C144.95 30.8965 144.95 30.9797 144.95 34.4506C144.95 36.3962 144.611 39.3573 144.274 40.9658C143.935 42.5744 143.344 44.9424 143.09 46.1285C142.836 47.3125 141.989 49.1749 141.313 50.1904C139.707 52.729 133.703 57.4672 131.338 58.2288ZM152.475 38.8496C152.138 40.8805 151.798 44.0122 151.713 45.704C151.544 49.0896 151.207 50.952 150.868 50.6128C150.785 50.5296 150.277 49.3434 149.77 48.1594C149.262 46.8901 148.5 44.8592 147.995 43.5898C147.402 41.9813 146.979 39.7818 146.811 36.3962C146.557 32.3344 146.388 31.3189 145.458 30.1349C144.189 28.3578 141.906 26.8346 139.116 26.1562C137.932 25.8192 136.916 25.3946 136.748 25.2261C136.579 25.0576 136.24 24.8869 135.818 24.8869C134.804 24.8869 131.76 22.3482 130.998 20.825C130.491 19.8949 130.407 18.9648 130.576 17.5248C131.421 12.025 126.516 6.35462 121.021 6.35462C119.583 6.35462 119.246 6.27142 119.754 5.84689C120.852 5.08529 129.392 5.76369 131.506 6.77915C132.519 7.28689 133.535 7.62395 133.703 7.62395C134.55 7.62395 140.637 11.9397 142.668 13.9706C146.894 18.2032 150.36 24.633 151.884 31.065C152.982 34.7877 152.982 35.3808 152.475 38.8496ZM123.05 2.80049C127.363 1.27729 132.605 1.10875 136.494 2.20955C140.214 3.30822 141.738 4.06982 145.204 6.60849C149.347 9.74022 151.967 13.2944 153.744 18.1178C154.674 20.5712 154.674 21.3328 154.42 25.5653C154.081 30.7258 153.827 32.3344 153.236 31.9952C152.982 31.8266 152.814 31.1504 152.814 30.3888C152.814 28.104 150.531 22.6874 147.824 18.457C143.85 12.2789 137.763 7.54075 130.744 5.25595C127.954 4.32369 121.275 4.32369 119.16 5.25595C118.316 5.59302 117.469 5.84689 117.386 5.76369C116.963 5.33915 119.583 3.98662 123.05 2.80049ZM104.532 30.3034C104.449 20.2341 106.815 13.5482 111.805 9.74022C114.764 7.45542 115.862 7.20155 120.091 7.37009C122.966 7.54075 123.98 7.70929 125.418 8.63942C127.617 10.0794 127.786 10.5018 126.77 12.5328C125.757 14.5637 123.896 16.0016 119.329 18.3717C117.386 19.3872 114.764 20.9104 113.496 21.8405C109.776 24.5498 105.97 30.5573 105.462 34.5338C105.04 38.1733 104.532 36.057 104.532 30.3034ZM104.955 73.7146C105.294 73.1237 105.97 70.7536 106.563 68.4688C107.83 63.3914 107.916 57.1301 106.9 50.8666C105.802 44.0976 105.633 37.3264 106.563 34.5338C109.014 27.1717 112.989 22.7728 120.598 19.2186C123.726 17.7786 127.363 14.7322 127.954 13.0405C128.376 11.9397 128.376 11.9397 129.053 12.7866C129.392 13.2944 129.646 14.649 129.646 16.2554C129.646 21.1642 127.192 23.9568 120.935 26.073C115.779 27.8501 114.256 29.288 112.989 33.4352C112.059 36.3109 111.973 37.2432 112.227 41.305C112.396 43.8437 112.82 46.9754 113.157 48.2448C114.087 51.545 114.51 60.7674 113.834 63.3914C113.072 66.4378 110.198 70.1605 106.139 73.4608C104.532 74.5616 104.449 74.6469 104.955 73.7146ZM107.999 73.0384C111.212 70.4144 113.072 68.1296 114.427 65.0832C115.018 63.7306 115.186 62.2074 115.186 57.8064C115.186 54.76 114.932 51.3744 114.678 50.3589C113.919 47.3125 112.903 40.2896 112.903 38.1733C112.903 35.3808 113.58 35.8032 113.919 38.7664C114.678 45.113 116.37 50.0218 118.653 52.4752L120.43 54.4208L120.091 60.345C119.837 64.9146 119.583 66.777 118.907 68.3834C117.3 72.1082 112.82 75.2378 106.732 76.8464C105.379 77.1856 104.195 77.4394 104.11 77.3541C103.687 77.0149 105.208 75.3232 107.999 73.0384ZM11.6917 190.749C10.1706 189.058 10.1706 188.718 11.8623 183.895C12.4533 182.203 12.961 180.172 12.961 179.411C12.961 177.973 13.9743 177.38 14.3989 178.564C14.5674 178.903 15.0751 179.071 15.9199 178.988C16.9354 178.818 17.2725 178.988 17.6949 179.918C17.9487 180.511 19.0495 181.61 19.9797 182.203C21.5007 183.219 22.2623 183.387 25.6437 183.473C27.7578 183.558 30.0405 183.812 30.7167 184.066C31.6469 184.403 32.2399 184.403 32.9162 184.066C34.0149 183.473 67.7514 150.045 69.7802 147.507C70.7957 146.237 71.3034 144.885 71.9797 141.331C72.4874 138.792 73.2469 134.899 73.7546 132.614C74.2623 130.329 74.9386 126.943 75.2778 125.166C76.2911 120.004 79.1669 107.989 80.1802 104.518C82.2943 97.1557 84.1546 91.7413 85.2554 89.7082C87.9605 84.8016 94.049 79.8928 97.4303 79.8928C98.0213 79.8928 99.2053 79.7242 100.052 79.4704C100.897 79.2165 103.011 78.792 104.703 78.5381C108.084 78.0304 112.82 76.3386 114.849 74.8154C119.754 71.176 121.189 67.7925 121.189 60.1765C121.189 57.9749 121.36 56.0293 121.528 55.944C121.697 55.8608 123.05 56.537 124.402 57.4672C128.63 60.4304 131.928 60.1765 136.24 56.7909L138.1 55.2677L138.439 61.192C138.693 65.8448 138.947 67.5386 139.707 69.2304C140.891 71.9376 142.414 73.4608 145.373 75.2378C148.586 77.1856 150.614 77.7765 160.76 79.6389C165.157 80.4858 167.611 81.7552 170.655 84.8848C174.29 88.6096 175.728 91.7413 178.772 102.572C179.278 104.518 180.125 107.396 180.632 109.004C181.055 110.611 181.477 112.219 181.477 112.642C181.477 113.066 181.731 114.504 182.068 115.688C182.83 118.48 184.351 125.252 185.198 129.651C185.535 131.428 186.211 134.813 186.719 137.015C187.227 139.3 187.649 141.668 187.649 142.429C187.649 145.393 188.833 146.745 207.943 165.87C224.347 182.203 226.966 184.742 227.813 184.403C228.321 184.234 230.772 183.98 233.223 183.726C238.213 183.387 239.82 182.711 241.595 180.341C242.356 179.325 243.032 178.818 243.54 178.988C243.963 179.071 244.724 178.903 245.232 178.478C246.499 177.634 246.753 178.056 247.175 181.527C247.344 182.965 247.768 184.657 248.106 185.164C248.445 185.672 248.867 186.773 249.036 187.62C249.29 188.889 249.121 189.397 247.937 190.835L246.584 192.526L247.598 192.951C249.121 193.542 253.601 192.951 255.207 191.935C256.731 191.003 258.506 190.749 258.506 191.511C258.506 191.765 258.083 192.189 257.575 192.443C256.731 192.866 256.731 192.951 257.407 193.459C258.506 194.22 257.915 194.811 255.378 195.658C253.518 196.251 253.179 196.505 253.432 197.267C253.855 198.619 252.925 198.958 247.429 198.958C242.442 198.958 240.581 198.619 236.099 197.013C235.254 196.674 232.97 195.912 231.026 195.236C229.08 194.557 227.22 193.796 226.798 193.459C226.375 193.119 225.953 192.866 225.699 192.866C225.531 192.866 224.347 192.189 223.077 191.428C221.893 190.666 220.541 189.819 220.118 189.565C219.696 189.311 218.258 188.465 216.82 187.62C215.382 186.773 213.776 185.757 213.185 185.418C209.972 183.473 202.192 178.395 201.77 177.971C201.686 177.887 200.671 177.126 199.572 176.447C192.807 171.963 184.268 165.277 181.477 162.316C179.617 160.371 176.741 156.055 176.741 155.208C176.741 154.869 176.404 153.77 175.896 152.755C175.474 151.739 174.966 150.47 174.798 150.045C174.459 148.693 173.191 145.307 172.769 144.292C172.515 143.784 172.091 142.515 171.754 141.414C171.414 140.315 170.401 137.437 169.554 135.067C168.709 132.614 166.595 126.69 164.989 121.866C162.115 113.574 160.931 111.204 160.931 113.911C160.931 114.589 160.255 117.128 159.408 119.581C158.563 122.035 157.802 125.42 157.633 127.112C157.464 128.806 157.125 131.259 156.871 132.614C155.434 139.722 154.757 157.407 155.604 163.417C156.28 168.07 157.718 172.556 159.662 175.857C161.268 178.649 161.354 178.732 167.525 179.665C169.302 179.918 172.515 180.511 174.544 180.849C176.573 181.273 179.363 181.695 180.716 181.864C182.068 182.035 183.845 182.457 184.69 182.711C185.535 182.965 187.312 183.387 188.664 183.558C195.512 184.742 212.423 189.058 212.423 189.565C212.423 189.734 210.648 189.734 208.449 189.565C203.122 189.226 191.455 189.905 186.89 190.749C184.859 191.174 181.392 191.765 179.195 192.104C174.036 192.951 165.665 194.982 159.662 196.674C152.391 198.79 144.696 200.059 137.592 200.482C132.605 200.735 131.928 200.735 131.76 200.059C130.998 198.111 134.719 193.966 140.976 189.651C148.417 184.573 151.037 181.273 151.798 176.194C152.475 171.624 152.475 171.624 151.037 172.217C146.725 174.079 139.116 179.411 137.341 181.781C135.818 183.812 135.734 183.219 137.17 180.426C137.846 179.071 138.776 177.126 139.201 175.94C139.623 174.841 140.807 172.979 141.821 171.963C144.528 169.171 149.77 162.402 150.785 160.371C151.291 159.438 151.967 157.493 152.391 156.223C153.236 153.431 154.081 145.139 153.659 143.362C153.49 142.346 153.322 142.261 152.56 142.6C150.785 143.53 144.78 154.532 144.696 156.985C144.696 157.239 144.528 157.578 144.357 157.747C144.189 157.832 144.02 153.262 144.02 147.507V137.098L145.627 134.645C146.557 133.29 148.925 130.412 150.954 128.213C155.519 123.389 157.464 119.581 158.309 114.082C158.563 112.051 158.732 109.849 158.563 109.173C158.309 107.903 158.224 107.903 157.125 108.496C155.35 109.427 149.43 115.688 147.655 118.48C145.541 121.781 144.02 125.335 143.681 127.705C143.512 128.806 143.173 129.99 142.919 130.329C142.243 131.344 142.668 118.566 143.512 112.473C143.935 109.595 144.528 106.295 144.865 105.196C145.373 103.419 145.541 103.248 147.148 102.995C149.516 102.658 151.291 101.642 152.982 99.6944C155.434 96.9018 156.112 95.0416 156.112 91.3168C156.112 89.4544 155.941 88.0165 155.773 88.0165C155.604 88.0165 154.589 88.8634 153.573 89.8789L151.713 91.7392V89.5397C151.713 86.5786 150.446 84.4624 148.671 84.4624C147.741 84.4624 146.894 84.9701 145.627 86.408C144.611 87.5088 143.85 88.6096 143.85 88.8634C143.85 90.1328 143.005 89.032 142.328 86.9157C141.906 85.5632 141.398 84.4624 141.23 84.4624C140.637 84.4624 139.03 87.2549 138.523 89.1173C137.255 93.9408 138.186 97.9173 141.398 101.049C142.668 102.318 143.681 103.673 143.681 104.095C143.681 104.518 143.427 106.295 143.09 107.989C142.751 109.68 142.328 112.219 142.16 113.742L141.821 116.366L140.976 113.489C139.707 109.173 136.579 103.756 132.944 99.9482C130.491 97.4096 130.322 97.8341 130.576 104.095C130.744 108.411 131.084 110.442 131.928 112.895C133.027 116.027 135.227 120.343 136.494 121.866C137.341 122.796 139.03 125.843 140.383 128.806C142.751 133.883 143.935 156.138 142.075 162.485C141.738 163.671 141.144 165.785 140.807 167.14C140.468 168.494 139.792 170.609 139.284 171.963C137.002 178.056 136.071 180.511 135.903 180.68C135.48 181.102 135.734 178.478 136.411 175.686C136.916 173.486 137.087 170.779 137.002 164.516C136.916 157.324 137.002 156.138 137.678 154.532C138.608 152.584 139.538 149.454 140.131 146.323C140.722 143.191 139.37 137.183 136.579 130.837L135.649 128.635L134.296 132.782C132.519 138.367 131.675 143.445 132.014 146.408C132.266 148.693 132.182 148.776 131.589 148.014C131.252 147.507 130.913 146.916 130.913 146.662C130.913 146.408 130.576 145.9 130.237 145.561C128.799 144.377 124.827 138.538 124.827 137.691C124.827 137.183 125.332 134.899 125.925 132.614C127.109 128.213 127.363 124.066 126.602 120.851C125.503 116.281 124.827 112.558 124.827 111.204V109.766L123.472 111.289C120.767 114.504 118.738 120.682 118.653 126.013V129.06L117.808 126.858C116.792 124.066 115.186 118.227 115.186 117.382C115.186 117.043 116.033 115.942 116.963 114.926C119.246 112.727 120.005 111.035 120.005 107.903C120.005 105.533 118.57 101.471 117.723 101.471C117.469 101.471 117.046 102.233 116.624 103.248L115.948 105.026L115.186 103.756C114.087 101.979 112.396 100.964 111.297 101.303C110.198 101.642 109.1 103.673 109.1 105.279C109.1 106.719 108.675 106.719 107.408 105.279C106.309 104.01 105.802 103.927 105.379 104.857C103.941 108.58 107.576 115.097 111.551 116.112C112.566 116.366 113.58 116.789 113.834 117.128C114.087 117.382 114.595 119.074 115.018 120.936C115.948 124.827 117.215 128.635 118.145 130.075L118.823 131.091L116.792 129.99C115.694 129.397 113.58 128.467 112.059 127.959C108.76 126.858 105.716 125.335 104.278 124.066C102.672 122.628 102.757 123.643 104.532 127.451C108.929 136.507 111.973 139.214 120.852 141.753C125.332 143.022 126.855 143.784 128.63 145.476C130.322 147.17 132.605 151.146 134.126 155.377C135.564 159.438 135.649 159.863 135.818 167.308C135.986 174.248 135.903 175.517 134.887 180.511C134.296 183.558 133.535 186.604 133.366 187.366C133.112 188.127 132.69 189.565 132.351 190.666L131.76 192.612L131.421 189.311C131.252 187.534 130.744 184.657 130.407 182.965C129.729 180.087 129.729 179.579 130.407 176.194C132.266 166.463 130.322 157.832 125.249 152.838C123.135 150.807 122.712 151.061 123.726 153.599C123.98 154.361 124.234 157.832 124.15 162.57C124.15 166.801 124.319 170.948 124.573 171.795C124.827 172.639 124.91 173.401 124.827 173.486C124.487 173.826 119.754 170.018 118.57 168.409L117.469 166.971L118.907 165.448C120.259 164.093 120.344 163.671 120.43 161.215C120.513 156.816 118.57 153.599 117.554 156.309L117.132 157.493L115.948 156.309C115.271 155.63 114.427 155.123 114.002 155.123C113.072 155.123 111.89 156.816 111.89 158.086C111.89 159.27 111.551 159.355 110.367 158.423C109.268 157.578 108.76 157.915 108.76 159.692C108.76 162.824 112.142 167.054 114.678 167.054C115.271 167.054 116.709 168.155 118.484 169.932C120.091 171.541 122.205 173.318 123.22 173.994C125.164 175.178 127.446 178.225 128.799 181.356C129.56 183.133 131.252 192.526 131.252 195.065C131.252 195.827 131.084 196.505 130.83 196.505C130.407 196.505 129.9 194.982 129.9 193.542C129.9 192.443 128.547 189.565 127.109 187.62C126.094 186.265 122.542 183.387 120.684 182.372C118.653 181.356 115.186 178.818 113.496 177.209L111.805 175.603L112.059 179.24C112.566 185.843 115.862 190.666 122.627 194.643C126.011 196.588 130.576 199.974 130.237 200.313C130.154 200.396 128.884 199.889 127.363 199.127C124.91 197.943 124.15 197.858 120.513 197.858C116.455 197.858 116.287 197.858 112.566 199.889C108.421 202.09 109.014 202.09 103.265 199.974C99.713 198.619 93.9637 196.674 90.8341 195.743C82.7189 193.373 82.0405 193.205 71.8943 191.089C67.2437 190.073 56.3359 189.143 52.193 189.397C48.897 189.565 48.7263 189.565 49.7418 188.889C50.3327 188.55 51.2629 188.211 51.8559 188.211C52.4469 188.211 53.7994 187.957 54.9002 187.62C57.9445 186.687 63.5231 185.335 67.329 184.573C69.1039 184.149 72.1482 183.558 73.9253 183.133C75.7002 182.711 78.2367 182.289 79.4207 182.118C80.6047 181.949 83.3098 181.527 85.3386 181.102C87.3674 180.68 91.0879 180.002 93.6245 179.665C97.9381 178.986 98.1919 178.818 99.3759 177.38C103.687 171.963 105.294 161.64 104.278 146.069C103.687 136.59 101.827 123.729 100.558 119.921C99.2906 116.281 98.9514 114.926 98.9514 114.082C98.9514 112.558 98.3605 112.558 97.8527 113.996C97.0911 116.112 92.4426 129.228 91.7642 131.259C91.4271 132.189 90.3285 135.321 89.313 138.114C88.2975 140.906 87.2842 143.784 87.1157 144.46C86.6079 146.154 85.4239 149.538 84.9162 150.638C84.6623 151.146 83.9007 153.008 83.2245 154.869C81.7887 158.677 79.8431 161.132 74.0938 166.293C69.4431 170.44 53.7162 181.356 43.9071 187.195C41.2021 188.804 38.6655 190.412 38.2431 190.666C37.9039 190.92 36.4661 191.765 35.1989 192.526C33.9295 193.288 32.4085 194.05 31.9007 194.303C30.7167 194.982 23.9519 197.35 20.3167 198.365C18.2026 198.958 16.0053 199.212 12.3679 199.212C7.12633 199.212 5.26606 198.705 6.11086 197.689C6.78927 196.842 6.36473 196.334 4.67513 195.997C3.8282 195.827 2.81487 195.49 2.39246 195.15C1.71407 194.643 1.63086 194.474 2.1386 193.881C2.6442 193.288 2.561 193.034 1.96793 192.443C1.20846 191.682 1.20846 191.682 1.96793 191.511C2.39246 191.428 3.49113 191.765 4.33593 192.273C5.18073 192.78 6.87247 193.288 7.97113 193.459C10.0853 193.796 13.1295 193.459 13.1295 192.866C13.0442 192.358 12.4533 191.596 11.6917 190.749ZM131.338 196.42C131.338 195.49 134.634 186.941 135.48 185.589C137.17 182.965 142.328 178.395 145.795 176.447C146.64 175.94 147.995 175.178 148.839 174.587C150.868 173.233 151.037 173.318 150.614 175.263C149.77 179.411 149.516 180.087 148.078 182.035C147.233 183.219 145.541 184.827 144.274 185.757C143.005 186.687 141.906 187.534 141.738 187.703C141.652 187.874 140.3 188.804 138.693 189.819C137.17 190.835 134.804 192.78 133.535 194.135C132.351 195.49 131.338 196.505 131.338 196.42ZM142.836 164.94C145.373 157.324 147.148 152.838 147.655 152.247C147.909 151.993 148.078 151.568 148.078 151.315C148.078 151.061 149.008 149.284 150.192 147.338L152.306 143.869L152.475 146.237C152.56 147.592 152.391 150.045 152.138 151.739C151.207 157.324 150.023 160.031 146.388 164.855C144.528 167.308 142.497 169.847 141.906 170.44C140.637 171.455 140.722 171.116 142.836 164.94ZM143.09 136.844L143.344 133.544C143.935 126.013 147.316 119.242 153.49 113.066C155.265 111.289 156.957 109.766 157.211 109.766C157.464 109.766 157.633 110.188 157.633 110.611C157.633 112.558 155.773 119.413 154.674 121.612C153.998 122.882 151.798 125.759 149.684 127.959C145.627 132.275 145.373 132.529 144.02 135.067L143.09 136.844ZM147.233 99.9482C145.71 102.826 144.78 102.404 145.964 99.4405C146.471 98.088 146.725 96.7333 146.557 96.2256C146.134 95.1248 145.541 96.1402 144.95 99.272C144.696 100.627 144.274 101.725 144.103 101.557C143.85 101.388 143.681 99.0181 143.681 96.2256C143.681 90.5552 144.274 88.7781 146.811 86.6618C148.5 85.224 149.601 85.6464 150.277 88.0165C151.122 91.3168 150.531 93.7722 147.233 99.9482ZM153.236 91.4021C154.081 90.3866 154.928 89.5397 155.011 89.5397C155.096 89.5397 155.096 90.809 154.928 92.4176C154.757 94.3632 154.252 95.9717 153.573 97.241C152.391 99.272 149.262 101.896 147.995 101.896C147.316 101.896 147.316 101.725 148.332 100.202C148.925 99.272 149.601 98.2565 149.684 97.9173C151.207 94.1946 151.884 93.0106 153.236 91.4021ZM141.738 100.627C139.03 98.1712 138.1 93.0106 139.623 88.9466C140.131 87.5941 140.637 86.408 140.722 86.408C140.807 86.408 141.144 87.4234 141.567 88.6928C141.906 89.9642 142.243 93.3477 142.414 96.1402C142.582 101.303 142.582 101.388 141.738 100.627ZM141.23 128.127C140.976 128.044 140.722 127.62 140.554 127.112C140.383 126.604 139.96 125.674 139.453 124.912C138.947 124.151 138.017 122.628 137.255 121.358C136.494 120.174 135.649 118.734 135.31 118.312C134.973 117.804 134.55 116.957 134.296 116.366C134.043 115.773 133.62 114.926 133.45 114.504C132.182 112.134 130.744 100.541 131.675 100.541C131.843 100.541 132.773 101.642 133.789 102.995C134.719 104.349 136.071 106.126 136.662 106.973C137.846 108.496 139.792 113.149 140.637 116.366C141.313 118.651 141.738 128.298 141.23 128.127ZM135.734 157.239C135.564 157.239 135.227 156.309 134.887 155.123C134.55 153.939 134.043 152.162 133.703 151.061C132.859 148.1 132.944 141.668 133.957 138.284C135.395 133.29 135.818 132.106 135.986 132.106C136.071 132.106 136.748 134.052 137.509 136.337C139.37 142.346 139.37 146.069 137.424 152.415C136.579 155.123 135.818 157.239 135.734 157.239ZM120.767 135.321C120.767 135.492 121.951 137.098 123.389 138.96C124.827 140.738 126.011 142.346 126.011 142.515C126.011 142.683 125.249 142.429 124.234 141.922C123.303 141.414 122.119 140.991 121.697 140.991C120.513 140.991 116.37 139.554 114.256 138.453C111.805 137.183 108.507 133.375 106.309 129.314L104.449 125.928L106.309 127.029C107.323 127.62 109.437 128.552 111.043 129.06C115.186 130.412 117.976 131.935 119.414 133.544C120.176 134.391 120.767 135.152 120.767 135.321ZM119.922 126.436C119.922 121.698 120.684 118.48 122.796 113.996L123.643 112.304L124.234 115.097C124.573 116.62 125.08 119.159 125.418 120.765C126.262 124.319 126.262 128.127 125.503 130.075C125.164 130.92 124.656 132.868 124.319 134.559C123.98 136.168 123.643 137.523 123.472 137.523C123.303 137.523 122.459 136.083 121.614 134.306C119.922 131.174 119.922 130.92 119.922 126.436ZM113.243 110.357C112.396 109.849 112.312 110.611 112.989 112.473C114.427 116.366 113.326 116.027 111.551 112.134C109.944 108.58 109.691 107.65 110.03 105.958C110.706 102.233 111.719 101.896 113.919 104.603C115.186 106.212 115.271 106.549 115.44 110.527C115.525 114.082 115.44 114.926 114.849 115.434C114.427 115.773 114.173 115.859 114.256 115.605C114.51 114.843 113.665 110.696 113.243 110.357ZM109.437 114.25C107.745 112.981 105.802 109.087 105.802 107.056V105.619L107.239 107.142C107.999 107.989 109.437 110.274 110.452 112.304C112.396 116.027 112.227 116.366 109.437 114.25ZM116.116 114.673L116.37 110.103C116.624 105.45 117.046 103.588 117.639 103.588C117.808 103.588 118.062 104.01 118.23 104.603C118.399 105.111 118.484 107.056 118.484 108.75C118.484 111.626 118.399 112.051 117.3 113.32L116.116 114.673ZM129.477 173.74C129.223 176.364 128.884 178.734 128.716 178.903C128.547 179.071 127.617 177.634 126.687 175.603L124.995 171.963V154.024L126.011 155.293C126.516 155.97 127.532 157.832 128.123 159.355C129.646 163.417 130.068 167.816 129.477 173.74ZM117.723 161.64C117.723 159.778 117.808 157.915 117.976 157.493C118.484 156.309 119.5 160.285 119.16 162.062C118.992 162.824 118.653 163.839 118.316 164.262C117.808 164.855 117.723 164.516 117.723 161.64ZM115.271 163.246C115.525 166.124 115.357 166.039 113.496 162.485C112.312 160.285 112.059 157.832 112.903 156.985C113.58 156.309 113.919 156.309 114.764 157.154C115.948 158.34 116.455 159.692 116.709 162.485C117.046 166.039 116.287 166.463 115.525 163.078L115.018 160.625L115.271 163.246ZM112.566 165.194C111.719 164.686 110.789 163.5 110.282 162.316C108.929 159.27 109.1 158.594 110.706 160.117C111.466 160.793 112.059 161.555 112.059 161.809C112.059 162.062 112.65 163.078 113.326 164.179C114.764 166.293 114.595 166.463 112.566 165.194ZM129.9 198.451C129.814 198.536 129.223 198.028 128.462 197.435C127.278 196.251 125.08 194.897 121.443 192.951C119.329 191.765 115.694 188.042 114.51 185.843C113.665 184.234 112.396 179.75 112.396 178.48C112.396 178.056 112.735 178.141 113.58 178.988C114.256 179.579 116.033 180.934 117.554 181.949C119.075 182.965 120.513 183.812 120.767 183.812C121.021 183.812 122.627 185.164 124.234 186.773C127.109 189.565 127.278 189.988 128.63 194.05C129.392 196.334 129.983 198.365 129.9 198.451ZM133.112 31.912C133.112 31.1504 134.126 30.3034 135.818 29.5418C136.664 29.2026 137.932 28.8656 138.693 28.8656C140.976 28.7802 144.103 30.472 144.103 31.7413C144.103 32.1658 143.598 31.9952 142.582 31.2336C139.96 29.288 137.341 29.3733 134.043 31.7413C133.45 32.1658 133.112 32.249 133.112 31.912ZM140.046 153.853C140.383 151.822 140.554 153.008 140.468 156.731L140.383 160.539L140.131 157.661C140.046 156.138 139.96 154.446 140.046 153.853ZM133.112 48.0741C132.351 47.3125 127.446 47.3125 126.516 48.0741C126.094 48.4133 125.249 48.6672 124.573 48.6672C123.05 48.6672 123.135 48.921 125.671 51.2058C127.446 52.8976 127.954 53.0682 129.814 53.0682C131.76 53.0682 132.182 52.8976 134.296 50.8666L136.664 48.6672H135.141C134.38 48.5818 133.45 48.328 133.112 48.0741ZM129.646 48.5818C131.252 48.5818 132.605 48.7525 132.605 48.921C132.605 49.9365 128.716 50.105 127.532 49.1749C126.77 48.6672 126.941 48.5818 129.646 48.5818ZM132.519 50.952C131.084 52.2213 128.97 52.4752 127.446 51.3744C126.262 50.5296 126.094 49.5973 127.278 50.105C127.7 50.2757 128.799 50.4442 129.814 50.4442C130.744 50.4442 132.097 50.2757 132.69 50.105L133.789 49.768L132.519 50.952ZM141.484 35.5493C140.3 35.72 139.201 36.057 139.03 36.2277C138.354 37.3264 134.38 36.1424 133.789 34.6192C133.535 34.0261 133.789 34.0261 135.056 34.7877C137.002 35.9738 137.509 35.9738 139.284 34.873C140.976 33.8576 142.414 33.7722 143.09 34.6192C143.598 35.1269 143.259 35.2954 141.484 35.5493ZM117.469 30.9797C116.116 31.912 115.525 32.0805 115.525 31.6581C115.525 31.065 117.3 29.6272 118.57 29.1194C120.935 28.2725 126.094 29.881 126.433 31.5728C126.516 32.1658 126.179 32.0805 124.234 30.9797C121.189 29.3733 119.837 29.288 117.469 30.9797ZM125.418 35.3808C124.319 36.6501 122.205 36.904 120.005 36.057C118.907 35.72 117.639 35.3808 117.046 35.3808C115.948 35.3808 115.608 34.7045 116.539 34.3653C117.723 33.8576 119.16 34.1114 120.259 34.9584C121.614 35.9738 122.373 36.057 124.065 35.2122C125.757 34.28 126.348 34.3653 125.418 35.3808Z" fill="url(#paint0_linear_1194_148)"/>
<defs>
<linearGradient id="paint0_linear_1194_148" x1="129.98" y1="0.369019" x2="129.98" y2="228.809" gradientUnits="userSpaceOnUse">
<stop stop-color="#353535"/>
<stop offset="1" stop-color="#003049"/>
</linearGradient>
</defs>
</svg>
