<svg width="252" height="243" viewBox="0 0 252 243" fill="none" xmlns="http://www.w3.org/2000/svg">
<mask id="mask0_1194_10" style="mask-type:luminance" maskUnits="userSpaceOnUse" x="0" y="0" width="252" height="243">
<path d="M0.364868 0.561401H251.635V243H0.364868V0.561401Z" fill="white"/>
</mask>
<g mask="url(#mask0_1194_10)">
<path d="M161.98 182.876C159.903 183.532 164.049 182.226 161.98 182.876V182.876ZM251.536 241.709C243.119 243.544 231.652 242.008 222.678 242.045C207.935 242.105 193.19 242.152 178.447 242.181C146.957 242.245 115.467 242.222 83.9787 242.196C100.891 215.226 84.2242 188.28 61.7326 171.33C42.2461 157.124 67.2725 145.848 80.1012 141.591C95.5081 136.55 111.761 132.747 127.823 130.503C125.196 125.848 125.441 119.84 128.362 115.385C130.109 112.718 132.711 110.676 135.754 109.696C135.729 109.705 141.063 108.504 141.063 109.554C141.063 109.882 136.492 111.299 136.41 111.34C133.877 112.642 131.785 114.651 130.503 117.206C127.794 122.595 129.543 129.342 134.564 132.671C135.323 131.38 141.411 125.481 139.578 124.134C137.127 122.422 133.456 123.033 131.884 119.926C131.872 119.9 130.828 115.905 131.955 116.076C132.054 116.09 134.155 120.473 135.873 120.995C137.536 121.521 140.176 121.702 141.32 123.268C143.624 126.463 137.253 131.658 135.001 132.951C141.927 137.188 151.243 132.854 152.709 124.953C153.516 120.605 151.874 116.14 148.562 113.25C148.023 112.78 141.063 109.769 141.063 109.554C141.063 106.731 151.967 113.062 152.808 114.081C155.25 117.055 156.55 121.09 156.047 124.936C164.257 122.729 172.648 121.164 180.906 119.145C182.079 118.854 194.931 114.533 194.824 114.432C159.279 100.498 118.134 104.386 80.722 102.624L80.6272 98.9405C116.261 95.3662 155.444 92.1652 190.459 101.572C196.946 103.315 207.244 106.155 210.084 113.172C213.017 120.417 204.018 125.59 198.722 128.061C186.384 133.815 172.382 136.123 159.336 139.819C171.111 140.881 177.515 149.773 181.516 160.013C182.442 162.395 189.15 177.767 182.461 178.093C177.717 177.742 175.059 169.633 173.403 166.298C171.006 161.469 169.201 156.577 163.866 154.453C163.057 156.678 168.021 172.18 167.318 172.456C166.384 172.828 160.846 154.114 161.432 151.439C166.235 152.716 170.146 157.305 175.092 154.106C167.797 141.564 153.332 141.647 141.174 146.281C136.032 148.24 135.745 152.182 134.807 157.15C134.427 159.163 133.796 161.131 132.559 162.785C133.122 164.974 133.924 167.131 135.081 169.08C136.869 166.964 140.306 157.957 142.51 157.353C145.586 156.523 145.171 161.568 145.641 163.61C146.318 166.547 147.267 169.4 148.221 172.256C148.075 171.373 146.621 159.904 147.894 159.803C149.937 159.638 149.125 181.24 153.572 181.711C157.54 182.129 162.997 182.109 166.013 178.99C167.753 177.21 166.363 173.411 167.318 172.456C167.32 172.456 167.32 172.454 167.32 172.454C168.007 172.178 171.456 182.354 172.639 182.903C177.078 184.965 181.374 187.267 185.666 189.616C194.855 194.768 203.748 200.444 212.293 206.607C226.497 216.856 240.157 228.325 251.536 241.709ZM181.209 169.078C180.019 164.93 178.439 160.859 176.579 156.969C175.449 158.178 173.733 158.668 172.111 158.53C173.019 160.009 179.893 175.336 182.082 174.682C182.923 174.457 181.356 169.581 181.263 169.253C180.809 167.659 181.04 168.476 181.209 169.078ZM150.133 179.481C150.319 180.49 150.14 181.047 151.02 181.344C150.686 180.739 150.391 180.118 150.133 179.481ZM140.33 167.1C141.638 167.211 142.935 167.649 144.088 168.263C143.467 166.384 143.022 164.489 142.508 162.587C142.263 163.402 141.937 164.136 141.535 164.891C141.164 165.631 140.757 166.368 140.33 167.1ZM129.642 165.677C129.044 162.181 130.045 165.819 128.116 163.654C126.547 161.89 123.665 160.502 121.817 158.93C122.11 159.182 122.576 159.584 121.768 158.891C121.974 159.069 118.247 155.857 118.247 155.892C117.8 158.021 122.133 163.101 123.288 164.718C125.21 167.411 129.552 174.193 133.231 170.959C131.29 169.95 130.003 167.785 129.642 165.677ZM129.766 160.345C131.559 157.81 131.389 154.201 132.025 151.276C132.035 151.227 132.049 151.177 132.062 151.126C129.35 152.815 126.408 154.339 123.418 155.474C124.115 156.074 128.762 160.849 129.766 160.345ZM190.348 238.594C183.243 233.149 177.187 226.046 171.612 219.091C165.858 211.908 159.889 204.118 159.175 194.595C156.024 196.235 147.883 194.09 147.561 198.157C147.029 204.701 147.337 211.295 146.817 217.848C146.613 220.337 146.454 225.415 144.148 227.179C137.888 231.955 135.549 207.249 135.407 205.799C134.9 200.56 133.316 191.772 136.874 187.282C139.464 184.006 144.389 182.614 148.358 182.125C147.704 179.137 146.914 176.28 145.922 173.38C144.93 170.687 141.087 171.718 138.786 169.521C130.443 181.445 121.712 170.033 116.568 160.63C113.126 154.341 113.171 146.611 121.576 153.902C123.401 151.563 126.204 149.975 128.886 148.828C130.331 148.21 131.878 147.669 133.448 147.475C134.419 145.856 135.82 144.656 137.534 143.901C141.199 141.764 145.759 140.743 149.863 140.143C153.549 139.605 156.659 139.605 160.198 138.353C164.158 136.952 168.133 135.667 172.153 134.453C180.085 132.079 188.378 130.161 195.884 126.588C201.488 124.089 213.11 117.396 204.59 110.948C197.132 105.2 186.215 103.573 177.173 102.201C156.445 99.054 135.191 99.1839 114.297 100.155C132.122 100.737 150.067 101.337 167.687 104.291C175.366 105.58 182.997 107.345 190.329 109.991C191.464 110.4 198.021 112.386 198.456 113.929C199.629 114.257 193.9 117.771 192.866 118.118C185.631 120.574 177.915 121.836 170.41 123.177C166.592 123.858 162.766 124.513 158.93 125.081C154.956 125.668 156.158 126.609 154.475 130.204C150.383 137.313 141.541 140.665 134.021 136.618C132.008 135.535 130.111 133.997 128.824 132.089C127.516 130.418 126.941 131.262 124.963 131.755C121.578 132.601 118.185 133.411 114.797 134.24C107.394 136.055 100.006 137.936 92.6907 140.075C85.373 142.212 48.2769 151.976 59.0926 164.924C63.7951 170.555 71.0613 174.24 76.3495 179.399C81.8688 184.78 86.6332 190.982 89.9538 197.963C96.0361 210.755 96.3187 225.671 90.3024 238.549C123.651 238.52 156.999 238.51 190.348 238.594ZM176.455 207.651C170.748 197.724 170.897 188.183 168.244 177.181C167.576 180.201 164.744 182.01 161.98 182.876C158.055 184.118 152.219 184.472 148.523 182.886C145.28 184.497 140.992 185.572 138.872 188.777C136.797 191.912 137.977 197.573 138.311 201.051C138.961 207.814 139.338 216.569 142.418 222.732C142.418 222.732 142.418 222.734 142.422 222.734C143.802 218.594 143.531 213.527 143.771 209.212C143.971 205.541 143.21 199.564 144.891 196.146C145.392 193.801 147.201 193.723 149.17 193.704C152.074 193.632 155.121 194.011 157.954 193.207C158.592 193.026 162.727 189.829 162.678 189.808C163.769 190.278 160.357 193.844 160.13 194.016C159.229 194.669 161.19 198.244 161.615 199.345C163.956 205.403 168.23 210.431 172.386 215.336C176.938 220.708 181.729 225.916 186.844 230.761C188.31 232.147 191.206 235.886 193.339 236.229C194.25 235.468 177.804 209.998 176.455 207.651ZM244.848 238.823C244.862 238.823 244.887 238.828 244.868 238.813C224.293 215.286 197.612 199.304 171.524 182.882C172.78 187.525 173.052 192.57 174.494 197.122C175.931 202.981 181.205 209.064 184.377 214.104C188.847 221.208 196.82 229.979 198.12 238.615C213.681 238.658 229.292 238.388 244.848 238.823ZM141.535 164.891C141.164 165.631 141.7 164.582 141.535 164.891V164.891ZM181.263 169.253C181.246 169.193 181.228 169.136 181.211 169.078C181.323 169.47 181.409 169.773 181.263 169.253ZM132.025 151.276C131.62 153.141 132.035 151.227 132.025 151.276V151.276ZM69.5227 86.2912C74.0004 87.0853 78.6121 83.5914 77.6778 78.7404C76.9827 74.0503 76.2774 69.3622 75.572 64.6741C78.6183 61.4835 81.6667 58.2969 84.7109 55.1021C84.7439 55.067 84.7893 55.0196 84.8574 54.9495C84.9419 54.8587 84.9398 54.8587 84.9027 54.8979C88.5554 50.8863 87.617 44.4286 81.5759 43.5294C77.8304 42.9354 71.053 43.2345 67.7799 41.3823C64.9584 39.786 62.0709 31.6494 60.3796 28.6815C58.8245 26.0786 55.3925 24.903 52.7752 26.6726C52.7607 26.6829 50.5023 28.6629 51.1045 28.9805C52.1131 29.5704 55.277 25.5815 57.9768 28.1266C60.6457 30.6429 62.0791 35.9188 63.692 39.1651C66.0412 43.8862 67.5489 43.8841 72.736 44.8721C75.4524 45.3898 81.4769 45.2743 83.4177 47.7039C87.584 52.7941 71.4779 60.5409 72.2019 65.759C72.635 68.8981 76.8487 80.8813 72.1503 82.6406C69.3412 83.6615 64.948 80.0934 62.9598 79.1096C61.0334 78.1608 59.107 77.2121 57.1807 76.2633C54.5489 74.9702 53.6229 76.2242 51.1066 77.4678C47.7633 79.124 44.0013 81.8362 40.3754 82.721C33.8228 84.6804 37.7602 70.6843 37.9829 69.0467C38.6635 64.0698 39.4143 64.1915 43.5537 61.7145C45.2512 60.6977 46.9568 59.6953 48.5821 58.565C48.9369 58.3175 53.2929 55.8384 53.0784 56.3994C53.6724 54.8257 33.1773 50.513 32.7421 52.2744C32.3935 53.679 48.578 55.824 50.0568 56.1168C46.2309 57.6699 41.0107 60.1635 38.7048 63.7605C39.2637 59.6334 16.5845 48.8135 31.5644 45.9095C35.6688 45.1113 43.7414 45.2145 45.6368 41.3308C46.1793 40.2129 51.7171 29.3043 51.1025 28.9805C50.525 28.6732 43.7868 41.5061 41.9491 41.7701C36.4917 42.5703 21.4561 42.098 23.7558 51.3463C25.2965 57.3605 35.8379 60.6667 34.9036 66.7635C34.192 71.4123 30.8549 80.279 34.817 84.4185C40.097 89.9563 50.3043 81.9744 55.3554 79.4994C59.8619 81.7207 64.6119 85.0682 69.5227 86.2912ZM55.3574 15.5124C58.0902 15.5124 58.0902 0.56958 55.3574 0.56958C52.6225 0.56958 52.6225 15.5124 55.3574 15.5124ZM94.1943 16.6695C92.2617 14.7348 81.7038 25.299 83.6364 27.2356C85.5689 29.1682 96.1269 18.6041 94.1943 16.6695ZM94.1943 16.6695C94.3263 16.8015 94.384 16.8592 94.3985 16.8736C94.3304 16.8056 93.6519 16.125 94.1943 16.6695ZM110.282 55.5352C110.282 52.7962 95.3514 52.7962 95.3514 55.5352C95.3514 58.268 110.282 58.268 110.282 55.5352ZM83.6364 83.8368C81.7038 85.7715 92.2617 96.3356 94.1943 94.403C96.1289 92.4663 85.5689 81.9022 83.6364 83.8368ZM55.3554 110.501C57.292 110.501 57.2116 103.994 57.2116 103.03C57.2116 102.065 57.292 95.558 55.3554 95.558C53.4187 95.558 53.5012 102.065 53.5012 103.03C53.5012 103.994 53.4187 110.501 55.3554 110.501ZM16.5164 94.401C18.449 96.3356 29.011 85.7715 27.0764 83.8348C25.1438 81.9022 14.5838 92.4663 16.5164 94.401ZM0.430969 55.5331C0.430969 58.2701 15.3635 58.2701 15.3635 55.5331C15.3635 52.7983 0.430969 52.7983 0.430969 55.5331ZM27.0785 27.2336C29.009 25.299 18.449 14.7348 16.5164 16.6674C14.5818 18.6041 25.1438 29.1682 27.0785 27.2336ZM48.6728 64.8288C48.6646 64.8371 48.7615 64.7257 48.9162 64.5525C48.5738 64.9093 47.7983 65.7343 48.6728 64.8288ZM48.9162 64.5525C49.1122 64.3483 49.1679 64.2967 48.6728 64.8288C47.5694 65.9694 37.061 79.6252 38.7893 80.5987C39.5937 81.0525 51.8532 63.2902 51.1561 62.723C50.8447 62.4714 49.4752 63.9296 48.9162 64.5525ZM54.1797 61.6237C53.066 61.6464 51.7666 74.6216 52.804 74.8237C54.5345 75.1702 55.8256 61.5763 54.1797 61.6237ZM54.1797 61.6237C53.6394 61.634 54.6644 61.6093 54.1797 61.6237V61.6237ZM63.8054 65.4414C63.0753 64.5339 58.7317 58.9734 58.0284 59.423C56.9765 60.0872 67.0291 73.6048 68.1944 72.8994C69.2607 72.2621 64.2819 66.0189 63.8797 65.5322C63.1846 64.6927 63.463 65.0289 63.8054 65.4414ZM63.8054 65.4414C63.8363 65.4806 63.8611 65.5115 63.8797 65.5322C64.6758 66.4912 64.1994 65.9158 63.8054 65.4414ZM53.3547 52.5487C55.2873 52.6951 56.4567 31.7649 54.7304 31.9216C53.7528 32.0041 52.4678 52.4806 53.3547 52.5487ZM53.3547 52.5487C53.1031 52.5301 53.6146 52.5673 53.3547 52.5487V52.5487ZM56.3763 58.8723C56.2649 58.8476 56.5124 58.9115 56.3763 58.8723V58.8723ZM56.3763 58.8723C57.4715 59.1941 74.4273 51.7051 74.516 51.998C74.1282 50.711 63.694 53.8522 62.77 54.1698C62.341 54.3204 55.0749 58.5815 56.3763 58.8723ZM152.565 173.005C151.851 173.463 153.254 181.08 154.213 180.981C155.997 180.793 154.188 174.527 153.706 173.832C153.466 173.312 153.087 173.036 152.565 173.005ZM153.706 173.832C153.499 173.485 154.178 174.511 153.706 173.832V173.832ZM119.301 141.973C119.516 141.874 119.722 141.777 119.86 141.715C119.767 141.75 119.695 141.781 119.654 141.799C119.6 141.824 119.476 141.886 119.301 141.973ZM119.301 141.973C118.532 142.325 117.67 142.717 119.654 141.799C120.118 141.589 120.087 141.607 119.86 141.715C121.046 141.236 126.072 139.343 125.907 138.629C125.522 136.917 112.029 142.315 112.992 144.128C113.388 144.885 117.94 142.645 119.301 141.973ZM96.3847 149.849C96.6982 149.709 96.9787 149.575 96.1681 149.938C95.9907 150.022 95.9907 150.025 96.067 149.992C90.1312 152.988 96.1248 163.293 96.7765 162.829C97.0261 162.655 94.9801 156.072 94.9595 155.321C94.9306 153.386 98.771 149.895 98.6988 149.629C98.6555 149.422 97.7583 149.294 96.3847 149.849ZM117.88 185.114C117.505 184.569 118.276 185.64 117.88 185.114V185.114ZM103.647 172.729C103.486 172.879 119.722 190.252 120.136 190.056C120.91 189.711 118.125 185.442 117.88 185.114C116.991 183.821 104.913 171.547 103.647 172.729ZM188.84 122.678C188.51 121.737 177.218 126.77 176.358 127.114C175.479 127.467 163.793 130.235 163.833 130.103C164.154 130.291 164.476 130.478 164.798 130.666C167.842 131.662 189.938 125.803 188.84 122.678ZM164.798 130.666C164.125 130.453 165.464 130.885 164.798 130.666V130.666ZM163.824 221.069C163.624 220.845 163.48 220.684 163.414 220.609C163.059 220.216 163.14 220.308 163.354 220.55C162.564 219.754 154.19 211.615 153.39 213.156C152.967 213.929 170.864 230.598 170.977 230.483C171.55 229.897 166.264 223.819 164.189 221.478C164.276 221.575 164.208 221.5 163.824 221.069Z" fill="black"/>
</g>
</svg>
