<svg width="1440" height="1531" viewBox="0 0 1440 1531" fill="none" xmlns="http://www.w3.org/2000/svg">
<path d="M684.883 367.716C666.734 486.103 680.619 600.97 685.665 715.884C688.89 801.964 687.254 865.935 673.691 941.25C664.11 999.872 630.65 1068.91 608.816 1094.4C556.132 1154.59 493.201 1165.61 424.405 1150.04C385.768 1141.41 333.414 1105.96 298.044 1056.21C231.331 962.345 181.529 842.386 78.3102 798.386C23.2869 773.594 -47.2685 778.572 -103.06 824.84C-145.661 858.239 -172.758 904.79 -185.396 962.141C-211.281 1086.21 -161.881 1196.01 -109.939 1285.53C-107.301 1290.06 -104.59 1294.55 -101.84 1298.96C-102.849 1296.2 -103.858 1293.43 -104.889 1290.63C-128.969 1218.78 -147.06 1144.84 -148.999 1076.82C-149.421 1062.55 -149.081 1048.07 -148.36 1033.62C-146.425 1003.3 -139.915 964.444 -119.706 925.177C-113.054 913.522 -99.225 891.556 -66.7587 867.874C-47.1841 856.514 -14.2054 840 34.4822 848.962C65.797 856.239 103.841 878.004 135.363 912.18C169.252 947.22 199.701 1002.95 235.535 1058.53C276.012 1122.3 327.944 1178.28 395.364 1199.39C429.613 1211.68 466.829 1213.04 504.149 1209.17C545.858 1202.41 588.37 1181.95 623.358 1147.96C676.796 1092.29 708.156 1011.05 721.704 932.763C734.893 847.549 736.082 762.338 730.731 679.37C724.452 554.643 710.707 439.959 738.748 327.424C762.88 235.107 819.293 170.561 900.223 153.866C947.886 143.984 1003.05 154.207 1060.09 169.721C1086.62 177.575 1150.19 199.345 1192.3 214.997C1229.27 227.051 1351.04 275.874 1381.33 238.484C1349.96 268.852 1246.96 201.511 1214.52 186.066C1166.44 160.466 1118.01 135.052 1066.47 118.165C1007.78 100.437 944.425 88.4367 880.529 105.416C772.434 136.305 704.342 240.004 684.883 367.716Z" fill="#8ECAE6" fill-opacity="0.65"/>
<path d="M251.281 911.053C308.04 971.202 387.852 1082.84 469.636 1088.16C510.775 1090.45 554.669 1063.29 581.794 1020.33C605.017 985.219 615.606 942.508 619.977 901.114C610.379 944.358 596.772 983.794 570.049 1016.38C537.889 1056.18 496.137 1074.94 453.326 1062.16C378.288 1037.15 310.699 938.142 243.583 871.225C197.687 823.857 146.448 782.854 88.0151 757.921C67.4915 748.952 45.9488 742.3 23.4429 739.973C13.1014 738.905 2.497 737.867 -8.16185 740.839C79.3735 739.265 189.126 845.407 251.281 911.053Z" fill="#8ECAE6" fill-opacity="0.65"/>
<path d="M825.832 333.309C790.592 385.602 784.18 438.473 784.645 498.629C791.535 439.636 802.584 391.244 836.69 347.387C908.447 257.625 1018.77 235.407 1105.18 268.328C1145.35 282.179 1182.51 304.284 1223.68 315.246C1256.84 323.186 1292.95 323.401 1327.98 312.156C1366.42 298.741 1403 273.484 1437.23 246.001C1397.39 270.403 1358.34 291.251 1317.92 298.738C1261.06 306.168 1223.23 291.782 1171.49 267.888C1130.95 248.899 1089.19 231.026 1043.87 227.32C967.747 221.34 880.911 252.861 825.832 333.309Z" fill="#8ECAE6" fill-opacity="0.65"/>
<path d="M765.564 886.315C760.13 937.836 751.899 990.769 733.697 1038.05C707.659 1105.42 663.509 1160.34 609.703 1198.72C531.642 1255.63 461.236 1266.27 378.976 1247.4C312.047 1231.69 253.531 1188.05 203.108 1135.89C215.159 1148.72 225.732 1163.49 238.374 1175.54C256.133 1193.7 276.129 1208.55 297.107 1221.36C358.57 1257.32 431.544 1272.95 504.824 1257.02C534.478 1250.94 563.435 1236.06 591.256 1219.32C633.928 1192.97 673.36 1156.16 703.958 1110.12C751.302 1039.02 769.004 949.621 771.671 866.469C772.377 844.531 771.819 822.054 770.809 800.921C769.998 828.826 768.263 860.132 765.564 886.315Z" fill="#8ECAE6" fill-opacity="0.65"/>
<path d="M985.596 45.2881C1021.56 46.5763 1053.28 54.5313 1084.88 69.1492C1151.22 97.2642 1207.97 146.118 1274.32 174.068C1320.69 193.085 1372.06 199.792 1423.92 188.611C1454.96 181.648 1486.78 172.23 1516.1 154.034C1486.56 168.998 1455.39 175.713 1424.9 181.442C1374.51 191.177 1324.54 185.882 1279.76 167.559C1213.82 140.488 1157.83 91.815 1092.48 63.4362C1038.43 37.0935 981.977 29.1811 920.297 54.3111C931.338 51.5975 967.931 44.0794 985.596 45.2881Z" fill="#8ECAE6" fill-opacity="0.65"/>
<path d="M326.35 355.467C347.061 373.543 362.248 406.19 355.161 443.825C353.674 451.88 350.894 460.829 347.4 467.629C349.773 463.82 351.815 459.766 353.537 455.515C377.616 396.199 341.183 333.286 292.964 330.422C262.196 327.352 230.463 345.508 205.068 371.191C188.882 387.212 173.304 404.912 162.359 426.565C150.529 450.506 141.733 476.944 139.828 503.385C137.988 529.576 140.096 556.369 148.511 578.909C169.633 633.252 211.616 671.888 260.387 686.773C319.123 707.093 387.606 710.275 449.379 672.221C507.707 635.716 557.561 573.193 584.4 500.808C634.916 373.516 662.51 200.708 756.53 113.198C795.11 76.8341 843.552 60.0107 890.522 47.3604C844.848 54.6204 796.867 67.2742 756.709 103.157C648.34 200.029 626.381 392.961 565.067 527.226C543.758 573.414 512.327 612.089 475.11 643.702C406.759 702.632 322.956 701.317 253.582 674.375C211.64 659.58 174.984 621.281 157.208 578.478C139.638 531.802 144.275 478.175 169.528 429.189C180.86 407.44 198.578 387.674 218.096 370.216C251.803 338.243 297.512 329.291 326.35 355.467Z" fill="#8ECAE6" fill-opacity="0.65"/>
<path d="M1114.88 370.852C1055.07 360.817 994.642 368.7 944.134 427.908C888 489.015 859.694 598.328 886.423 672.918C897.614 703.22 920.735 728.251 949.976 730.339C977.748 731.632 1008.32 718.471 1029.83 692.072C1055.78 658.931 1072.17 591.462 1044.12 561.686C1042.1 559.816 1038.55 556.588 1037.04 555.98C1040.31 558.865 1043.27 562.334 1045.65 566.325C1063.8 596.835 1047.94 649.279 1030.84 676.413C1011.88 707.762 977.746 722.887 948.988 720.708C927.965 717.967 910.868 702.491 899.283 681.14C864.607 612.703 891.961 497.56 946.684 436.829C1042.62 322.712 1162.91 405.012 1271.12 412.472C1308.79 415.433 1348.44 406.313 1385.4 386.602C1428.32 363.579 1466.26 326.143 1500.67 286.217C1531.49 249.429 1556.99 206.697 1580.85 163.611C1503.22 282.156 1411.89 399.718 1292.86 403.744C1231.01 404.667 1174.55 380.332 1114.88 370.852Z" fill="#8ECAE6" fill-opacity="0.65"/>
</svg>
