<svg width="332" height="85" viewBox="0 0 332 85" fill="none" xmlns="http://www.w3.org/2000/svg">
<path d="M0.000359535 31.3318C0.000359535 30.7858 0.287359 30.4148 0.861359 30.2188L1.95336 29.9248C2.28936 29.8268 2.54136 29.6868 2.70936 29.5048C2.87736 29.3088 2.96136 29.0568 2.96136 28.7488V6.57284C2.96136 6.26484 2.87736 6.01984 2.70936 5.83784C2.54136 5.64184 2.28936 5.49484 1.95336 5.39684L0.861359 5.10284C0.287359 4.90684 0.000359535 4.53584 0.000359535 3.98984C0.000359535 3.66784 0.10536 3.41584 0.31536 3.23384C0.52536 3.05184 0.85436 2.96084 1.30236 2.96084H13.2304C15.8064 2.96084 18.1514 3.34584 20.2654 4.11584C22.3794 4.87184 24.1994 5.94984 25.7254 7.34984C27.2654 8.74984 28.4484 10.4158 29.2744 12.3478C30.1004 14.2798 30.5134 16.4288 30.5134 18.7948C30.5134 21.4548 29.8904 23.8068 28.6444 25.8508C27.3984 27.8808 25.6274 29.4768 23.3314 30.6388C21.0494 31.7868 18.3334 32.3608 15.1834 32.3608H1.30236C0.85436 32.3608 0.52536 32.2698 0.31536 32.0878C0.10536 31.8918 0.000359535 31.6398 0.000359535 31.3318ZM14.4064 30.1558C15.9324 30.1558 17.2834 29.7498 18.4594 28.9378C19.6354 28.1258 20.5524 26.8658 21.2104 25.1578C21.8824 23.4498 22.2184 21.2588 22.2184 18.5848C22.2184 16.4708 21.9944 14.5878 21.5464 12.9358C21.0984 11.2698 20.4474 9.86284 19.5934 8.71484C18.7534 7.55284 17.7314 6.67084 16.5274 6.06884C15.3234 5.46684 13.9724 5.16584 12.4744 5.16584H10.9834V28.2448C10.9834 28.9028 11.1584 29.3858 11.5084 29.6938C11.8724 30.0018 12.3974 30.1558 13.0834 30.1558H14.4064ZM45.5592 29.7148V29.2948H45.0552V16.0228C45.0552 15.2668 44.8592 14.6788 44.4672 14.2588C44.0892 13.8248 43.5572 13.6078 42.8712 13.6078C42.2692 13.6078 41.7862 13.7478 41.4222 14.0278C41.0582 14.3078 40.8762 14.6578 40.8762 15.0778V17.1358C40.8762 18.1158 40.5402 18.8858 39.8682 19.4458C39.2102 19.9918 38.2722 20.2648 37.0542 20.2648C36.0602 20.2648 35.3042 20.0338 34.7862 19.5718C34.2682 19.1098 34.0092 18.4658 34.0092 17.6398C34.0092 16.7578 34.3872 15.8898 35.1432 15.0358C35.8992 14.1678 37.0262 13.4468 38.5242 12.8728C40.0222 12.2988 41.8912 12.0118 44.1312 12.0118C46.8612 12.0118 48.8912 12.5438 50.2212 13.6078C51.5512 14.6578 52.2162 16.0998 52.2162 17.9338V28.4338C52.2162 28.7698 52.2862 29.0358 52.4262 29.2318C52.5802 29.4138 52.7972 29.5048 53.0772 29.5048C53.3432 29.5048 53.5532 29.4348 53.7072 29.2948C53.8752 29.1548 54.0082 28.9938 54.1062 28.8118C54.1902 28.7278 54.2672 28.6578 54.3372 28.6018C54.4212 28.5318 54.5262 28.4968 54.6522 28.4968C54.8202 28.4968 54.9462 28.5668 55.0302 28.7068C55.1142 28.8328 55.1562 29.0008 55.1562 29.2108C55.1562 29.7008 54.9672 30.2328 54.5892 30.8068C54.2252 31.3808 53.6652 31.8708 52.9092 32.2768C52.1532 32.6828 51.2082 32.8858 50.0742 32.8858C48.6882 32.8858 47.5892 32.5918 46.7772 32.0038C45.9652 31.4158 45.5592 30.6528 45.5592 29.7148ZM33.1272 27.9718C33.1272 26.1798 33.9252 24.7518 35.5212 23.6878C37.1312 22.6098 39.4202 22.0708 42.3882 22.0708C43.2422 22.0708 43.9842 22.1408 44.6142 22.2808C45.2582 22.4208 45.8042 22.6028 46.2522 22.8268L45.7482 24.1918C45.3562 23.9958 44.9642 23.8488 44.5722 23.7508C44.1942 23.6528 43.7812 23.6038 43.3332 23.6038C42.4232 23.6038 41.7092 23.8768 41.1912 24.4228C40.6732 24.9688 40.4142 25.7458 40.4142 26.7538C40.4142 27.7758 40.6522 28.5528 41.1282 29.0848C41.6042 29.6168 42.2202 29.8828 42.9762 29.8828C43.5362 29.8828 44.0682 29.7498 44.5722 29.4838C45.0902 29.2178 45.5102 28.8678 45.8322 28.4338L46.2942 29.6518C45.5802 30.6878 44.5932 31.4858 43.3332 32.0458C42.0872 32.6058 40.7572 32.8858 39.3432 32.8858C37.4952 32.8858 35.9972 32.4238 34.8492 31.4998C33.7012 30.5758 33.1272 29.3998 33.1272 27.9718ZM68.2031 32.4238H65.4521C65.0041 32.4238 64.6191 32.3118 64.2971 32.0878C63.9751 31.8638 63.7161 31.5138 63.5201 31.0378L57.4301 15.8758C57.2481 15.3998 57.0871 15.0778 56.9471 14.9098C56.8211 14.7278 56.6671 14.6088 56.4851 14.5528L55.8761 14.3638C55.6381 14.2658 55.4631 14.1468 55.3511 14.0068C55.2531 13.8668 55.2041 13.6778 55.2041 13.4398C55.2041 13.1598 55.3021 12.9428 55.4981 12.7888C55.7081 12.6208 55.9881 12.5368 56.3381 12.5368H66.7121C67.4681 12.5368 67.8461 12.8378 67.8461 13.4398C67.8461 13.6778 67.7761 13.8668 67.6361 14.0068C67.5101 14.1468 67.3001 14.2588 67.0061 14.3428L66.2711 14.5108C65.6691 14.6508 65.2981 14.8888 65.1581 15.2248C65.0321 15.5468 65.1231 16.0998 65.4311 16.8838L69.9671 28.7698L68.3711 30.0088L73.0961 17.0308C73.4041 16.1908 73.4881 15.5958 73.3481 15.2458C73.2081 14.8818 72.8441 14.6368 72.2561 14.5108L71.5211 14.3428C71.2271 14.2588 71.0171 14.1468 70.8911 14.0068C70.7651 13.8668 70.7021 13.6778 70.7021 13.4398C70.7021 13.1598 70.8001 12.9428 70.9961 12.7888C71.2061 12.6208 71.4791 12.5368 71.8151 12.5368H77.3381C77.7021 12.5368 77.9821 12.6208 78.1781 12.7888C78.3741 12.9428 78.4721 13.1598 78.4721 13.4398C78.4721 13.6498 78.4161 13.8318 78.3041 13.9858C78.2061 14.1258 78.0101 14.2448 77.7161 14.3428L77.1701 14.4898C76.8901 14.5738 76.6311 14.7978 76.3931 15.1618C76.1691 15.5258 75.8891 16.1418 75.5531 17.0098L70.1351 31.1638C69.9391 31.6678 69.6661 32.0038 69.3161 32.1718C68.9801 32.3398 68.6091 32.4238 68.2031 32.4238ZM93.749 28.4338L89.906 35.4268L81.044 16.2748C80.778 15.6868 80.505 15.2598 80.225 14.9938C79.959 14.7278 79.595 14.5178 79.133 14.3638C78.867 14.2658 78.678 14.1468 78.566 14.0068C78.468 13.8668 78.419 13.6778 78.419 13.4398C78.419 13.1598 78.517 12.9428 78.713 12.7888C78.923 12.6208 79.203 12.5368 79.553 12.5368H89.948C90.298 12.5368 90.571 12.6208 90.767 12.7888C90.963 12.9428 91.061 13.1598 91.061 13.4398C91.061 13.6778 90.998 13.8668 90.872 14.0068C90.746 14.1468 90.536 14.2588 90.242 14.3428L89.486 14.5108C88.926 14.6508 88.597 14.8958 88.499 15.2458C88.401 15.5818 88.527 16.1628 88.877 16.9888L93.749 28.4338ZM89.507 35.0488L90.557 32.4868L91.397 30.8488L96.752 17.3458C97.088 16.5058 97.2 15.8828 97.088 15.4768C96.976 15.0568 96.619 14.7698 96.017 14.6158L95.198 14.4058C94.904 14.3218 94.687 14.2028 94.547 14.0488C94.421 13.8808 94.358 13.6778 94.358 13.4398C94.358 13.1598 94.456 12.9428 94.652 12.7888C94.862 12.6208 95.135 12.5368 95.471 12.5368H101.288C101.638 12.5368 101.911 12.6208 102.107 12.7888C102.317 12.9428 102.422 13.1598 102.422 13.4398C102.422 13.6358 102.359 13.8108 102.233 13.9648C102.121 14.1188 101.925 14.2588 101.645 14.3848C101.029 14.6088 100.546 14.9028 100.196 15.2668C99.846 15.6168 99.503 16.2118 99.167 17.0518L92.153 34.4818C91.313 36.5398 90.55 38.1358 89.864 39.2698C89.192 40.4038 88.45 41.1948 87.638 41.6428C86.84 42.0908 85.839 42.3148 84.635 42.3148C82.913 42.3148 81.534 41.8458 80.498 40.9078C79.476 39.9698 78.965 38.8078 78.965 37.4218C78.965 36.4138 79.217 35.6228 79.721 35.0488C80.239 34.4748 80.911 34.1878 81.737 34.1878C82.549 34.1878 83.172 34.4188 83.606 34.8808C84.054 35.3568 84.432 36.0008 84.74 36.8128L85.076 37.7368C85.23 38.2128 85.433 38.5908 85.685 38.8708C85.937 39.1508 86.217 39.2908 86.525 39.2908C86.833 39.2908 87.113 39.1788 87.365 38.9548C87.631 38.7308 87.932 38.3108 88.268 37.6948C88.618 37.0928 89.031 36.2108 89.507 35.0488ZM107.16 7.24484C105.816 7.24484 104.801 6.93684 104.115 6.32084C103.443 5.70484 103.107 4.87184 103.107 3.82184C103.107 2.70184 103.513 1.78484 104.325 1.07084C105.151 0.356837 106.138 -0.00016284 107.286 -0.00016284C108.616 -0.00016284 109.708 0.447837 110.562 1.34384C111.43 2.22584 111.864 3.54884 111.864 5.31284C111.864 6.89484 111.584 8.30884 111.024 9.55484C110.464 10.8008 109.68 11.8368 108.672 12.6628C107.678 13.4748 106.53 14.0348 105.228 14.3428C104.752 14.4548 104.381 14.4618 104.115 14.3638C103.863 14.2658 103.702 14.0908 103.632 13.8388C103.562 13.6008 103.604 13.3698 103.758 13.1458C103.926 12.9218 104.241 12.7258 104.703 12.5578C105.655 12.2358 106.439 11.8228 107.055 11.3188C107.671 10.8008 108.126 10.2548 108.42 9.68084C108.714 9.10684 108.861 8.57484 108.861 8.08484C108.861 7.83284 108.791 7.62984 108.651 7.47584C108.511 7.32184 108.252 7.24484 107.874 7.24484H107.16ZM123.415 30.8908C124.297 30.8908 124.969 30.6878 125.431 30.2818C125.893 29.8618 126.124 29.3368 126.124 28.7068C126.124 28.3008 126.033 27.9298 125.851 27.5938C125.683 27.2578 125.34 26.9498 124.822 26.6698C124.318 26.3898 123.569 26.1378 122.575 25.9138C120.293 25.4518 118.536 24.8778 117.304 24.1918C116.086 23.4918 115.246 22.6798 114.784 21.7558C114.322 20.8318 114.091 19.7958 114.091 18.6478C114.091 16.5758 114.812 14.9518 116.254 13.7758C117.696 12.5858 119.789 11.9908 122.533 11.9908C123.513 11.9908 124.304 12.0748 124.906 12.2428C125.508 12.3968 125.991 12.5578 126.355 12.7258C126.733 12.8938 127.055 12.9778 127.321 12.9778C127.615 12.9778 127.867 12.8938 128.077 12.7258C128.301 12.5578 128.518 12.3968 128.728 12.2428C128.952 12.0748 129.218 11.9908 129.526 11.9908C129.75 11.9908 129.946 12.0678 130.114 12.2218C130.296 12.3618 130.45 12.6278 130.576 13.0198L131.773 17.3878C131.927 17.9198 131.969 18.3468 131.899 18.6688C131.843 18.9908 131.647 19.2148 131.311 19.3408C130.989 19.4668 130.709 19.4738 130.471 19.3618C130.233 19.2358 129.995 19.0048 129.757 18.6688C129.085 17.5348 128.385 16.6248 127.657 15.9388C126.929 15.2528 126.173 14.7558 125.389 14.4478C124.619 14.1258 123.807 13.9648 122.953 13.9648C121.903 13.9648 121.112 14.1818 120.58 14.6158C120.062 15.0358 119.803 15.6098 119.803 16.3378C119.803 16.7718 119.915 17.1708 120.139 17.5348C120.377 17.8848 120.818 18.2068 121.462 18.5008C122.106 18.7808 123.044 19.0608 124.276 19.3408C126.152 19.7188 127.636 20.2368 128.728 20.8948C129.82 21.5388 130.604 22.3228 131.08 23.2468C131.556 24.1708 131.794 25.2418 131.794 26.4598C131.794 27.7478 131.458 28.8748 130.786 29.8408C130.114 30.8068 129.19 31.5558 128.014 32.0878C126.838 32.6198 125.487 32.8858 123.961 32.8858C123.023 32.8858 122.267 32.7948 121.693 32.6128C121.119 32.4308 120.65 32.2558 120.286 32.0878C119.922 31.9058 119.586 31.8148 119.278 31.8148C118.984 31.8148 118.704 31.9058 118.438 32.0878C118.186 32.2558 117.934 32.4238 117.682 32.5918C117.444 32.7738 117.192 32.8648 116.926 32.8648C116.688 32.8648 116.485 32.7808 116.317 32.6128C116.163 32.4448 116.051 32.1578 115.981 31.7518L115.225 27.6988C115.127 27.1388 115.113 26.7188 115.183 26.4388C115.267 26.1588 115.456 25.9558 115.75 25.8298C116.072 25.7038 116.352 25.7178 116.59 25.8718C116.842 26.0118 117.094 26.2708 117.346 26.6488C118.312 28.1888 119.306 29.2808 120.328 29.9248C121.364 30.5688 122.393 30.8908 123.415 30.8908ZM149.32 2.96084H164.545C165.091 2.96084 165.546 2.90484 165.91 2.79284C166.288 2.66684 166.624 2.55484 166.918 2.45684C167.212 2.34484 167.506 2.28884 167.8 2.28884C168.29 2.28884 168.654 2.40784 168.892 2.64584C169.144 2.88384 169.347 3.28984 169.501 3.86384L170.866 11.0668C170.95 11.4868 170.915 11.8298 170.761 12.0958C170.621 12.3478 170.376 12.5088 170.026 12.5788C169.69 12.6488 169.396 12.6278 169.144 12.5158C168.892 12.3898 168.675 12.1448 168.493 11.7808C167.681 10.0168 166.967 8.66584 166.351 7.72784C165.749 6.78984 165.168 6.14584 164.608 5.79584C164.048 5.44584 163.425 5.27084 162.739 5.27084H160.954V28.7488C160.954 29.0568 161.038 29.3088 161.206 29.5048C161.388 29.6868 161.647 29.8338 161.983 29.9458L163.054 30.2188C163.628 30.4148 163.915 30.7858 163.915 31.3318C163.915 32.0178 163.474 32.3608 162.592 32.3608H151.273C150.825 32.3608 150.496 32.2698 150.286 32.0878C150.076 31.8918 149.971 31.6398 149.971 31.3318C149.971 30.7858 150.258 30.4148 150.832 30.2188L151.903 29.9458C152.253 29.8338 152.512 29.6868 152.68 29.5048C152.848 29.3088 152.932 29.0568 152.932 28.7488V5.27084H151.147C150.475 5.27084 149.859 5.45284 149.299 5.81684C148.739 6.18084 148.151 6.83184 147.535 7.76984C146.933 8.69384 146.212 10.0308 145.372 11.7808C145.204 12.1448 144.994 12.3898 144.742 12.5158C144.49 12.6278 144.196 12.6488 143.86 12.5788C143.524 12.5088 143.279 12.3478 143.125 12.0958C142.985 11.8298 142.95 11.4868 143.02 11.0668L144.385 3.86384C144.539 3.28984 144.735 2.88384 144.973 2.64584C145.225 2.40784 145.596 2.28884 146.086 2.28884C146.38 2.28884 146.667 2.34484 146.947 2.45684C147.241 2.55484 147.57 2.66684 147.934 2.79284C148.312 2.90484 148.774 2.96084 149.32 2.96084ZM182.196 11.9908C184.408 11.9908 186.347 12.4318 188.013 13.3138C189.679 14.1958 190.981 15.4278 191.919 17.0098C192.857 18.5918 193.326 20.4258 193.326 22.5118C193.326 24.4718 192.836 26.2358 191.856 27.8038C190.89 29.3718 189.553 30.6108 187.845 31.5208C186.137 32.4308 184.156 32.8858 181.902 32.8858C179.69 32.8858 177.751 32.4448 176.085 31.5628C174.419 30.6668 173.117 29.4348 172.179 27.8668C171.241 26.2848 170.772 24.4648 170.772 22.4068C170.772 20.4048 171.255 18.6268 172.221 17.0728C173.201 15.5048 174.545 14.2658 176.253 13.3558C177.961 12.4458 179.942 11.9908 182.196 11.9908ZM183.645 30.6388C184.373 30.5128 184.947 30.1068 185.367 29.4208C185.801 28.7348 186.046 27.7618 186.102 26.5018C186.172 25.2418 186.039 23.6808 185.703 21.8188C185.367 19.9988 184.94 18.5078 184.422 17.3458C183.904 16.1698 183.309 15.3298 182.637 14.8258C181.965 14.3078 181.244 14.1188 180.474 14.2588C179.746 14.3848 179.165 14.7908 178.731 15.4768C178.311 16.1628 178.066 17.1358 177.996 18.3958C177.94 19.6418 178.08 21.1958 178.416 23.0578C178.752 24.8778 179.179 26.3758 179.697 27.5518C180.229 28.7138 180.824 29.5538 181.482 30.0718C182.154 30.5898 182.875 30.7788 183.645 30.6388ZM210.871 29.2108V28.1818L210.661 28.1398V17.2828C210.661 16.9328 210.605 16.6808 210.493 16.5268C210.395 16.3728 210.234 16.2748 210.01 16.2328L209.191 16.1278C208.939 16.0578 208.757 15.9598 208.645 15.8338C208.547 15.6938 208.498 15.5188 208.498 15.3088C208.498 15.0708 208.568 14.8818 208.708 14.7418C208.848 14.5878 209.107 14.4408 209.485 14.3008L214.21 12.6208C214.742 12.4248 215.176 12.2848 215.512 12.2008C215.848 12.1028 216.17 12.0538 216.478 12.0538C216.94 12.0538 217.29 12.1868 217.528 12.4528C217.766 12.7048 217.885 13.0338 217.885 13.4398V28.8958C217.885 29.3578 217.934 29.6868 218.032 29.8828C218.13 30.0788 218.291 30.2188 218.515 30.3028L219.187 30.5128C219.453 30.6108 219.642 30.7368 219.754 30.8908C219.88 31.0448 219.943 31.2268 219.943 31.4368C219.943 31.7308 219.845 31.9618 219.649 32.1298C219.467 32.2838 219.173 32.3608 218.767 32.3608H213.643C212.887 32.3608 212.236 32.0598 211.69 31.4578C211.144 30.8418 210.871 30.0928 210.871 29.2108ZM197.473 26.5858V17.2828C197.473 16.9328 197.424 16.6808 197.326 16.5268C197.228 16.3728 197.067 16.2748 196.843 16.2328L196.003 16.1278C195.765 16.0578 195.59 15.9598 195.478 15.8338C195.366 15.6938 195.31 15.5188 195.31 15.3088C195.31 15.0708 195.38 14.8818 195.52 14.7418C195.66 14.5878 195.919 14.4408 196.297 14.3008L201.043 12.6208C201.603 12.4108 202.044 12.2638 202.366 12.1798C202.702 12.0958 202.996 12.0538 203.248 12.0538C203.738 12.0538 204.102 12.1868 204.34 12.4528C204.578 12.7048 204.697 13.0338 204.697 13.4398V25.5778C204.697 26.6418 204.942 27.4398 205.432 27.9718C205.936 28.4898 206.615 28.7488 207.469 28.7488C208.001 28.7488 208.561 28.6298 209.149 28.3918C209.737 28.1538 210.311 27.7968 210.871 27.3208L211.648 26.6278L212.614 27.6358L211.879 28.3078C210.073 30.0018 208.484 31.1918 207.112 31.8778C205.754 32.5498 204.494 32.8858 203.332 32.8858C201.596 32.8858 200.182 32.3188 199.09 31.1848C198.012 30.0508 197.473 28.5178 197.473 26.5858ZM236.419 30.0088C238.589 30.2748 240.318 30.6458 241.606 31.1218C242.894 31.5838 243.818 32.1928 244.378 32.9488C244.952 33.7048 245.239 34.6498 245.239 35.7838C245.239 37.7858 244.154 39.4308 241.984 40.7188C239.828 42.0068 236.706 42.6508 232.618 42.6508C229.972 42.6508 227.879 42.4618 226.339 42.0838C224.813 41.7058 223.721 41.1738 223.063 40.4878C222.419 39.8158 222.097 39.0388 222.097 38.1568C222.097 37.0928 222.601 36.1758 223.609 35.4058C224.617 34.6498 226.43 34.1178 229.048 33.8098L229.258 34.3978C228.684 34.5378 228.243 34.8038 227.935 35.1958C227.627 35.5878 227.473 36.0148 227.473 36.4768C227.473 37.7228 227.942 38.7168 228.88 39.4588C229.818 40.2148 231.428 40.5928 233.71 40.5928C235.012 40.5928 236.048 40.4948 236.818 40.2988C237.588 40.1028 238.141 39.8088 238.477 39.4168C238.813 39.0388 238.981 38.5768 238.981 38.0308C238.981 37.5548 238.785 37.1488 238.393 36.8128C238.015 36.4768 237.35 36.1828 236.398 35.9308C235.446 35.6788 234.116 35.4338 232.408 35.1958C230.35 34.9158 228.768 34.5938 227.662 34.2298C226.57 33.8658 225.814 33.4318 225.394 32.9278C224.974 32.4238 224.764 31.8078 224.764 31.0798C224.764 30.3938 224.953 29.7638 225.331 29.1898C225.723 28.6018 226.381 28.1188 227.305 27.7408C228.229 27.3488 229.496 27.1038 231.106 27.0058L231.4 27.3418C231.078 27.4678 230.84 27.6078 230.686 27.7618C230.532 27.9158 230.455 28.0908 230.455 28.2868C230.455 28.4828 230.567 28.6648 230.791 28.8328C231.015 29.0008 231.54 29.1828 232.366 29.3788C233.206 29.5608 234.557 29.7708 236.419 30.0088ZM236.482 13.9858L237.133 12.5368C237.819 10.9128 238.68 9.69484 239.716 8.88284C240.766 8.05684 241.9 7.64384 243.118 7.64384C244.112 7.64384 244.91 7.92384 245.512 8.48384C246.128 9.04384 246.436 9.82784 246.436 10.8358C246.436 11.7318 246.212 12.4528 245.764 12.9988C245.316 13.5308 244.714 13.7968 243.958 13.7968C243.454 13.7968 243.055 13.6848 242.761 13.4608C242.467 13.2228 242.215 12.9568 242.005 12.6628C241.795 12.3548 241.564 12.0888 241.312 11.8648C241.06 11.6268 240.71 11.5078 240.262 11.5078C239.786 11.5078 239.387 11.6968 239.065 12.0748C238.743 12.4388 238.358 13.1178 237.91 14.1118L236.482 13.9858ZM243.538 19.5298C243.538 21.1258 243.097 22.5398 242.215 23.7718C241.347 24.9898 240.108 25.9418 238.498 26.6278C236.902 27.3138 235.019 27.6568 232.849 27.6568C230.735 27.6568 228.922 27.3348 227.41 26.6908C225.898 26.0328 224.743 25.1438 223.945 24.0238C223.147 22.8898 222.748 21.6298 222.748 20.2438C222.748 18.6338 223.182 17.2128 224.05 15.9808C224.932 14.7488 226.178 13.7898 227.788 13.1038C229.398 12.4178 231.309 12.0748 233.521 12.0748C235.635 12.0748 237.434 12.4038 238.918 13.0618C240.416 13.7198 241.557 14.6158 242.341 15.7498C243.139 16.8698 243.538 18.1298 243.538 19.5298ZM232.219 13.9228C231.631 13.9928 231.155 14.2658 230.791 14.7418C230.441 15.2178 230.217 15.8968 230.119 16.7788C230.035 17.6608 230.091 18.7458 230.287 20.0338C230.483 21.3218 230.749 22.3998 231.085 23.2678C231.435 24.1358 231.855 24.7728 232.345 25.1788C232.849 25.5848 233.409 25.7598 234.025 25.7038C234.921 25.5918 235.537 25.0248 235.873 24.0028C236.223 22.9808 236.251 21.5108 235.957 19.5928C235.677 17.6328 235.215 16.1768 234.571 15.2248C233.927 14.2588 233.143 13.8248 232.219 13.9228ZM256.285 2.28884V28.8958C256.285 29.3578 256.334 29.6868 256.432 29.8828C256.53 30.0788 256.691 30.2188 256.915 30.3028L257.566 30.5338C257.972 30.7158 258.175 31.0028 258.175 31.3948C258.175 32.0388 257.776 32.3608 256.978 32.3608H248.158C247.752 32.3608 247.451 32.2838 247.255 32.1298C247.073 31.9618 246.982 31.7308 246.982 31.4368C246.982 31.2268 247.038 31.0448 247.15 30.8908C247.276 30.7368 247.472 30.6108 247.738 30.5128L248.431 30.3028C248.655 30.2188 248.816 30.0788 248.914 29.8828C249.012 29.6868 249.061 29.3648 249.061 28.9168V6.13184C249.061 5.78184 249.005 5.52984 248.893 5.37584C248.795 5.22184 248.634 5.12384 248.41 5.08184L247.591 4.97684C247.339 4.90684 247.157 4.80884 247.045 4.68284C246.947 4.54284 246.898 4.36784 246.898 4.15784C246.898 3.91984 246.968 3.73084 247.108 3.59084C247.248 3.43684 247.507 3.28984 247.885 3.14984L252.61 1.49084C253.156 1.28084 253.59 1.13384 253.912 1.04984C254.248 0.951839 254.57 0.902839 254.878 0.902839C255.34 0.902839 255.69 1.03584 255.928 1.30184C256.166 1.55384 256.285 1.88284 256.285 2.28884ZM255.613 18.2488L254.647 17.2408L255.382 16.5688C257.174 14.9308 258.714 13.7618 260.002 13.0618C261.29 12.3478 262.494 11.9908 263.614 11.9908C265.308 11.9908 266.624 12.5578 267.562 13.6918C268.514 14.8118 269.088 16.3238 269.284 18.2278L270.397 28.8748C270.453 29.3368 270.523 29.6728 270.607 29.8828C270.691 30.0928 270.845 30.2328 271.069 30.3028L271.72 30.5128C271.986 30.6108 272.175 30.7368 272.287 30.8908C272.399 31.0448 272.455 31.2268 272.455 31.4368C272.455 31.7308 272.364 31.9618 272.182 32.1298C272 32.2838 271.699 32.3608 271.279 32.3608H262.354C261.556 32.3608 261.157 32.0388 261.157 31.3948C261.157 31.0168 261.36 30.7298 261.766 30.5338L262.438 30.3028C262.676 30.2188 262.851 30.0788 262.963 29.8828C263.089 29.6728 263.131 29.3368 263.089 28.8748L262.081 19.2148C261.983 18.1788 261.731 17.4088 261.325 16.9048C260.933 16.3868 260.338 16.1278 259.54 16.1278C259.036 16.1278 258.518 16.2538 257.986 16.5058C257.454 16.7438 256.922 17.0938 256.39 17.5558L255.613 18.2488ZM293.857 20.0968C293.857 20.8388 293.647 21.4128 293.227 21.8188C292.821 22.2248 292.226 22.4278 291.442 22.4278H278.611V20.7688H285.709C286.367 20.7688 286.696 20.4608 286.696 19.8448C286.696 17.8988 286.416 16.4708 285.856 15.5608C285.31 14.6368 284.603 14.1748 283.735 14.1748C283.063 14.1748 282.468 14.3988 281.95 14.8468C281.432 15.2948 281.026 15.9738 280.732 16.8838C280.438 17.7798 280.291 18.8998 280.291 20.2438C280.291 22.9178 280.893 24.8988 282.097 26.1868C283.301 27.4748 284.918 28.1188 286.948 28.1188C288.096 28.1188 289.104 27.9088 289.972 27.4888C290.84 27.0548 291.54 26.4038 292.072 25.5358C292.352 25.2558 292.569 25.0668 292.723 24.9688C292.877 24.8708 293.031 24.8218 293.185 24.8218C293.395 24.8218 293.549 24.9268 293.647 25.1368C293.759 25.3468 293.808 25.5988 293.794 25.8928C293.766 27.1528 293.346 28.3148 292.534 29.3788C291.736 30.4428 290.637 31.2968 289.237 31.9408C287.851 32.5708 286.241 32.8858 284.407 32.8858C282.377 32.8858 280.557 32.4728 278.947 31.6468C277.351 30.8208 276.091 29.6588 275.167 28.1608C274.257 26.6628 273.802 24.9128 273.802 22.9108C273.802 20.7408 274.236 18.8368 275.104 17.1988C275.972 15.5608 277.218 14.2868 278.842 13.3768C280.466 12.4528 282.412 11.9908 284.68 11.9908C286.654 11.9908 288.32 12.3408 289.678 13.0408C291.05 13.7408 292.086 14.6998 292.786 15.9178C293.5 17.1358 293.857 18.5288 293.857 20.0968ZM305.647 30.8908C306.529 30.8908 307.201 30.6878 307.663 30.2818C308.125 29.8618 308.356 29.3368 308.356 28.7068C308.356 28.3008 308.265 27.9298 308.083 27.5938C307.915 27.2578 307.572 26.9498 307.054 26.6698C306.55 26.3898 305.801 26.1378 304.807 25.9138C302.525 25.4518 300.768 24.8778 299.536 24.1918C298.318 23.4918 297.478 22.6798 297.016 21.7558C296.554 20.8318 296.323 19.7958 296.323 18.6478C296.323 16.5758 297.044 14.9518 298.486 13.7758C299.928 12.5858 302.021 11.9908 304.765 11.9908C305.745 11.9908 306.536 12.0748 307.138 12.2428C307.74 12.3968 308.223 12.5578 308.587 12.7258C308.965 12.8938 309.287 12.9778 309.553 12.9778C309.847 12.9778 310.099 12.8938 310.309 12.7258C310.533 12.5578 310.75 12.3968 310.96 12.2428C311.184 12.0748 311.45 11.9908 311.758 11.9908C311.982 11.9908 312.178 12.0678 312.346 12.2218C312.528 12.3618 312.682 12.6278 312.808 13.0198L314.005 17.3878C314.159 17.9198 314.201 18.3468 314.131 18.6688C314.075 18.9908 313.879 19.2148 313.543 19.3408C313.221 19.4668 312.941 19.4738 312.703 19.3618C312.465 19.2358 312.227 19.0048 311.989 18.6688C311.317 17.5348 310.617 16.6248 309.889 15.9388C309.161 15.2528 308.405 14.7558 307.621 14.4478C306.851 14.1258 306.039 13.9648 305.185 13.9648C304.135 13.9648 303.344 14.1818 302.812 14.6158C302.294 15.0358 302.035 15.6098 302.035 16.3378C302.035 16.7718 302.147 17.1708 302.371 17.5348C302.609 17.8848 303.05 18.2068 303.694 18.5008C304.338 18.7808 305.276 19.0608 306.508 19.3408C308.384 19.7188 309.868 20.2368 310.96 20.8948C312.052 21.5388 312.836 22.3228 313.312 23.2468C313.788 24.1708 314.026 25.2418 314.026 26.4598C314.026 27.7478 313.69 28.8748 313.018 29.8408C312.346 30.8068 311.422 31.5558 310.246 32.0878C309.07 32.6198 307.719 32.8858 306.193 32.8858C305.255 32.8858 304.499 32.7948 303.925 32.6128C303.351 32.4308 302.882 32.2558 302.518 32.0878C302.154 31.9058 301.818 31.8148 301.51 31.8148C301.216 31.8148 300.936 31.9058 300.67 32.0878C300.418 32.2558 300.166 32.4238 299.914 32.5918C299.676 32.7738 299.424 32.8648 299.158 32.8648C298.92 32.8648 298.717 32.7808 298.549 32.6128C298.395 32.4448 298.283 32.1578 298.213 31.7518L297.457 27.6988C297.359 27.1388 297.345 26.7188 297.415 26.4388C297.499 26.1588 297.688 25.9558 297.982 25.8298C298.304 25.7038 298.584 25.7178 298.822 25.8718C299.074 26.0118 299.326 26.2708 299.578 26.6488C300.544 28.1888 301.538 29.2808 302.56 29.9248C303.596 30.5688 304.625 30.8908 305.647 30.8908ZM318.043 14.6368L317.077 14.3428C316.797 14.2448 316.594 14.1258 316.468 13.9858C316.342 13.8318 316.279 13.6498 316.279 13.4398C316.279 13.1458 316.377 12.9218 316.573 12.7678C316.769 12.6138 317.028 12.5368 317.35 12.5368H318.652C318.918 12.5368 319.149 12.4808 319.345 12.3688C319.555 12.2428 319.786 12.0328 320.038 11.7388L323.272 8.27384C323.594 7.90984 323.902 7.64384 324.196 7.47584C324.504 7.29384 324.791 7.20284 325.057 7.20284C325.365 7.20284 325.603 7.30784 325.771 7.51784C325.953 7.71384 326.044 8.00084 326.044 8.37884V25.7668C326.044 26.8028 326.233 27.5868 326.611 28.1188C326.989 28.6508 327.528 28.9168 328.228 28.9168C328.704 28.9168 329.082 28.8118 329.362 28.6018C329.642 28.3918 329.866 28.1468 330.034 27.8668C330.216 27.5868 330.391 27.3208 330.559 27.0688C330.741 26.8168 330.965 26.6558 331.231 26.5858C331.441 26.5578 331.609 26.6138 331.735 26.7538C331.861 26.8938 331.924 27.1388 331.924 27.4888C331.882 28.4968 331.574 29.4068 331 30.2188C330.44 31.0308 329.656 31.6748 328.648 32.1508C327.654 32.6128 326.506 32.8438 325.204 32.8438C323.202 32.8438 321.641 32.3608 320.521 31.3948C319.415 30.4148 318.862 28.9308 318.862 26.9428V15.8128C318.862 15.4628 318.799 15.2108 318.673 15.0568C318.547 14.8888 318.337 14.7488 318.043 14.6368ZM323.482 14.7208L323.524 12.5368H330.706C331.042 12.5368 331.301 12.6068 331.483 12.7468C331.679 12.8728 331.777 13.0688 331.777 13.3348C331.777 13.7268 331.581 14.0558 331.189 14.3218C330.811 14.5878 330.188 14.7208 329.32 14.7208H323.482ZM115.708 54.9608H130.933C131.479 54.9608 131.934 54.9048 132.298 54.7928C132.676 54.6668 133.012 54.5548 133.306 54.4568C133.6 54.3448 133.894 54.2888 134.188 54.2888C134.678 54.2888 135.042 54.4078 135.28 54.6458C135.532 54.8838 135.735 55.2898 135.889 55.8638L137.254 63.0668C137.338 63.4868 137.303 63.8298 137.149 64.0958C137.009 64.3478 136.764 64.5088 136.414 64.5788C136.078 64.6488 135.784 64.6278 135.532 64.5158C135.28 64.3898 135.063 64.1448 134.881 63.7808C134.069 62.0168 133.355 60.6658 132.739 59.7278C132.137 58.7898 131.556 58.1458 130.996 57.7958C130.436 57.4458 129.813 57.2708 129.127 57.2708H127.342V80.7488C127.342 81.0568 127.426 81.3088 127.594 81.5048C127.776 81.6868 128.035 81.8338 128.371 81.9458L129.442 82.2188C130.016 82.4148 130.303 82.7858 130.303 83.3318C130.303 84.0178 129.862 84.3608 128.98 84.3608H117.661C117.213 84.3608 116.884 84.2698 116.674 84.0878C116.464 83.8918 116.359 83.6398 116.359 83.3318C116.359 82.7858 116.646 82.4148 117.22 82.2188L118.291 81.9458C118.641 81.8338 118.9 81.6868 119.068 81.5048C119.236 81.3088 119.32 81.0568 119.32 80.7488V57.2708H117.535C116.863 57.2708 116.247 57.4528 115.687 57.8168C115.127 58.1808 114.539 58.8318 113.923 59.7698C113.321 60.6938 112.6 62.0308 111.76 63.7808C111.592 64.1448 111.382 64.3898 111.13 64.5158C110.878 64.6278 110.584 64.6488 110.248 64.5788C109.912 64.5088 109.667 64.3478 109.513 64.0958C109.373 63.8298 109.338 63.4868 109.408 63.0668L110.773 55.8638C110.927 55.2898 111.123 54.8838 111.361 54.6458C111.613 54.4078 111.984 54.2888 112.474 54.2888C112.768 54.2888 113.055 54.3448 113.335 54.4568C113.629 54.5548 113.958 54.6668 114.322 54.7928C114.7 54.9048 115.162 54.9608 115.708 54.9608ZM157.172 72.0968C157.172 72.8388 156.962 73.4128 156.542 73.8188C156.136 74.2248 155.541 74.4278 154.757 74.4278H141.926V72.7688H149.024C149.682 72.7688 150.011 72.4608 150.011 71.8448C150.011 69.8988 149.731 68.4708 149.171 67.5608C148.625 66.6368 147.918 66.1748 147.05 66.1748C146.378 66.1748 145.783 66.3988 145.265 66.8468C144.747 67.2948 144.341 67.9738 144.047 68.8838C143.753 69.7798 143.606 70.8998 143.606 72.2438C143.606 74.9178 144.208 76.8988 145.412 78.1868C146.616 79.4748 148.233 80.1188 150.263 80.1188C151.411 80.1188 152.419 79.9088 153.287 79.4888C154.155 79.0548 154.855 78.4038 155.387 77.5358C155.667 77.2558 155.884 77.0668 156.038 76.9688C156.192 76.8708 156.346 76.8218 156.5 76.8218C156.71 76.8218 156.864 76.9268 156.962 77.1368C157.074 77.3468 157.123 77.5988 157.109 77.8928C157.081 79.1528 156.661 80.3148 155.849 81.3788C155.051 82.4428 153.952 83.2968 152.552 83.9408C151.166 84.5708 149.556 84.8858 147.722 84.8858C145.692 84.8858 143.872 84.4728 142.262 83.6468C140.666 82.8208 139.406 81.6588 138.482 80.1608C137.572 78.6628 137.117 76.9128 137.117 74.9108C137.117 72.7408 137.551 70.8368 138.419 69.1988C139.287 67.5608 140.533 66.2868 142.157 65.3768C143.781 64.4528 145.727 63.9908 147.995 63.9908C149.969 63.9908 151.635 64.3408 152.993 65.0408C154.365 65.7408 155.401 66.6998 156.101 67.9178C156.815 69.1358 157.172 70.5288 157.172 72.0968ZM172.113 81.7148V81.2948H171.609V68.0228C171.609 67.2668 171.413 66.6788 171.021 66.2588C170.643 65.8248 170.111 65.6078 169.425 65.6078C168.823 65.6078 168.34 65.7478 167.976 66.0278C167.612 66.3078 167.43 66.6578 167.43 67.0778V69.1358C167.43 70.1158 167.094 70.8858 166.422 71.4458C165.764 71.9918 164.826 72.2648 163.608 72.2648C162.614 72.2648 161.858 72.0338 161.34 71.5718C160.822 71.1098 160.563 70.4658 160.563 69.6398C160.563 68.7578 160.941 67.8898 161.697 67.0358C162.453 66.1678 163.58 65.4468 165.078 64.8728C166.576 64.2988 168.445 64.0118 170.685 64.0118C173.415 64.0118 175.445 64.5438 176.775 65.6078C178.105 66.6578 178.77 68.0998 178.77 69.9338V80.4338C178.77 80.7698 178.84 81.0358 178.98 81.2318C179.134 81.4138 179.351 81.5048 179.631 81.5048C179.897 81.5048 180.107 81.4348 180.261 81.2948C180.429 81.1548 180.562 80.9938 180.66 80.8118C180.744 80.7278 180.821 80.6578 180.891 80.6018C180.975 80.5318 181.08 80.4968 181.206 80.4968C181.374 80.4968 181.5 80.5668 181.584 80.7068C181.668 80.8328 181.71 81.0008 181.71 81.2108C181.71 81.7008 181.521 82.2328 181.143 82.8068C180.779 83.3808 180.219 83.8708 179.463 84.2768C178.707 84.6828 177.762 84.8858 176.628 84.8858C175.242 84.8858 174.143 84.5918 173.331 84.0038C172.519 83.4158 172.113 82.6528 172.113 81.7148ZM159.681 79.9718C159.681 78.1798 160.479 76.7518 162.075 75.6878C163.685 74.6098 165.974 74.0708 168.942 74.0708C169.796 74.0708 170.538 74.1408 171.168 74.2808C171.812 74.4208 172.358 74.6028 172.806 74.8268L172.302 76.1918C171.91 75.9958 171.518 75.8488 171.126 75.7508C170.748 75.6528 170.335 75.6038 169.887 75.6038C168.977 75.6038 168.263 75.8768 167.745 76.4228C167.227 76.9688 166.968 77.7458 166.968 78.7538C166.968 79.7758 167.206 80.5528 167.682 81.0848C168.158 81.6168 168.774 81.8828 169.53 81.8828C170.09 81.8828 170.622 81.7498 171.126 81.4838C171.644 81.2178 172.064 80.8678 172.386 80.4338L172.848 81.6518C172.134 82.6878 171.147 83.4858 169.887 84.0458C168.641 84.6058 167.311 84.8858 165.897 84.8858C164.049 84.8858 162.551 84.4238 161.403 83.4998C160.255 82.5758 159.681 81.3998 159.681 79.9718ZM192.649 65.4398V80.9168C192.649 81.3508 192.698 81.6728 192.796 81.8828C192.894 82.0788 193.055 82.2188 193.279 82.3028L193.93 82.5338C194.336 82.7158 194.539 83.0028 194.539 83.3948C194.539 84.0388 194.14 84.3608 193.342 84.3608H184.522C184.116 84.3608 183.815 84.2838 183.619 84.1298C183.437 83.9618 183.346 83.7308 183.346 83.4368C183.346 83.2268 183.402 83.0448 183.514 82.8908C183.64 82.7368 183.836 82.6108 184.102 82.5128L184.795 82.3028C185.019 82.2188 185.18 82.0788 185.278 81.8828C185.376 81.6868 185.425 81.3718 185.425 80.9378V69.2828C185.425 68.9188 185.369 68.6598 185.257 68.5058C185.159 68.3518 184.998 68.2538 184.774 68.2118L183.934 68.1068C183.696 68.0508 183.521 67.9528 183.409 67.8128C183.311 67.6728 183.262 67.5048 183.262 67.3088C183.262 67.0568 183.332 66.8608 183.472 66.7208C183.612 66.5668 183.871 66.4198 184.249 66.2798L188.974 64.6208C189.506 64.4108 189.94 64.2638 190.276 64.1798C190.612 64.0818 190.934 64.0328 191.242 64.0328C191.704 64.0328 192.054 64.1658 192.292 64.4318C192.53 64.6838 192.649 65.0198 192.649 65.4398ZM191.977 70.2488L191.011 69.2408L191.746 68.5688C193.552 66.8748 195.127 65.6918 196.471 65.0198C197.815 64.3338 199.068 63.9908 200.23 63.9908C201.98 63.9908 203.38 64.5578 204.43 65.6918C205.48 66.8258 206.005 68.3588 206.005 70.2908V80.9168C206.005 81.3648 206.054 81.6868 206.152 81.8828C206.264 82.0788 206.432 82.2258 206.656 82.3238L207.244 82.5338C207.65 82.7298 207.853 83.0168 207.853 83.3948C207.853 84.0388 207.447 84.3608 206.635 84.3608H198.109C197.311 84.3608 196.912 84.0388 196.912 83.3948C196.912 83.0028 197.108 82.7158 197.5 82.5338L198.151 82.3238C198.389 82.2258 198.557 82.0718 198.655 81.8618C198.753 81.6518 198.802 81.3158 198.802 80.8538V71.2988C198.802 70.2488 198.564 69.4578 198.088 68.9258C197.612 68.3938 196.947 68.1278 196.093 68.1278C195.547 68.1278 194.994 68.2468 194.434 68.4848C193.874 68.7228 193.314 69.0798 192.754 69.5558L191.977 70.2488ZM205.333 70.2488L204.367 69.2408L205.081 68.5688C206.789 66.9448 208.273 65.7758 209.533 65.0618C210.793 64.3478 211.99 63.9908 213.124 63.9908C214.818 63.9908 216.148 64.5648 217.114 65.7128C218.094 66.8468 218.675 68.3798 218.857 70.3118L219.991 80.8958C220.047 81.3578 220.117 81.6938 220.201 81.9038C220.285 82.0998 220.439 82.2398 220.663 82.3238L221.272 82.5128C221.524 82.6108 221.706 82.7368 221.818 82.8908C221.93 83.0448 221.986 83.2268 221.986 83.4368C221.986 83.7308 221.895 83.9618 221.713 84.1298C221.531 84.2838 221.23 84.3608 220.81 84.3608H211.969C211.171 84.3608 210.772 84.0388 210.772 83.3948C210.772 83.0168 210.968 82.7298 211.36 82.5338L212.011 82.3238C212.249 82.2258 212.431 82.0718 212.557 81.8618C212.683 81.6518 212.718 81.3088 212.662 80.8328L211.675 71.2988C211.577 70.2628 211.318 69.4788 210.898 68.9468C210.478 68.4008 209.862 68.1278 209.05 68.1278C208.588 68.1278 208.105 68.2538 207.601 68.5058C207.111 68.7578 206.614 69.1078 206.11 69.5558L205.333 70.2488Z" fill="#E7590F"/>
</svg>
