<svg width="176" height="190" viewBox="0 0 176 190" fill="none" xmlns="http://www.w3.org/2000/svg">
<mask id="mask0_1090_178" style="mask-type:luminance" maskUnits="userSpaceOnUse" x="41" y="0" width="113" height="190">
<path d="M41.2344 -6.10352e-05H153.301V189.821H41.2344V-6.10352e-05Z" fill="white"/>
</mask>
<g mask="url(#mask0_1090_178)">
<path d="M63.9504 189.942C63.5774 189.942 63.2074 189.868 62.8618 189.726C62.6026 189.619 56.425 187.027 50.7658 180.484C45.5702 174.478 39.8074 163.855 41.8565 147.361C43.5802 133.487 50.4302 120.584 61.1438 111.033C67.0781 105.788 73.6416 101.301 80.6803 97.6738C92.9952 91.2658 101.134 84.014 105.559 75.5064C112.13 62.8748 114.739 51.156 113.312 40.6743C111.504 27.3874 103.124 15.4844 88.4074 5.29924C87.8573 4.91764 87.4584 4.35748 87.2799 3.71236C87.0998 3.06724 87.1531 2.38036 87.4267 1.77124C87.7018 1.16068 88.1813 0.666757 88.7832 0.374437C89.3851 0.0806768 90.0691 0.00867707 90.7186 0.168517C91.1405 0.272197 101.172 2.80516 111.659 11.1341C121.342 18.8237 133.24 33.1056 134.941 57.469C135.683 68.0861 138.845 76.8183 144.34 83.4207C146.173 85.6786 148.319 87.6658 150.71 89.3204C151.452 89.8172 152.054 90.494 152.463 91.2874C152.87 92.0794 153.071 92.9636 153.046 93.8549C153.02 94.7463 152.768 95.6161 152.315 96.3836C151.861 97.1525 151.22 97.7919 150.451 98.2455L141.494 103.522C141.34 103.608 141.221 103.743 141.156 103.908C141.091 104.072 141.084 104.253 141.137 104.422C141.533 105.578 142.236 106.605 143.172 107.394C143.803 107.906 144.297 108.569 144.606 109.322C144.917 110.074 145.035 110.89 144.949 111.699C144.88 112.382 144.672 113.043 144.34 113.642C144.006 114.241 143.552 114.765 143.008 115.183C143.52 115.747 143.883 116.43 144.063 117.17C144.245 117.91 144.236 118.683 144.042 119.419C143.846 120.157 143.47 120.832 142.947 121.386C142.423 121.939 141.769 122.353 141.045 122.589C140.795 122.671 140.535 122.75 140.273 122.832C139.463 123.084 137.988 123.542 137.578 123.925C137.595 124.066 137.627 124.206 137.676 124.341C137.945 124.947 139.271 127.931 140.808 131.43C141.64 133.32 141.987 135.386 141.82 137.444C141.653 139.501 140.976 141.484 139.85 143.214C138.744 144.93 137.228 146.344 135.438 147.326C133.649 148.31 131.643 148.833 129.601 148.846C125.846 148.823 122.134 148.049 118.683 146.569C111.406 143.552 104.2 141.977 97.2648 141.886C82.7525 141.702 64.5912 144.766 60.4642 160.466C59.459 164.503 59.4979 168.729 60.5765 172.747C62.0021 178.289 63.9691 182.717 66.119 185.214C66.4776 185.629 66.708 186.139 66.7843 186.68C66.8606 187.223 66.78 187.776 66.5525 188.274C66.3235 188.771 65.9578 189.193 65.4955 189.49C65.0347 189.785 64.4976 189.942 63.9504 189.942ZM108.366 15.8271C114.252 23.233 117.808 31.2812 118.981 39.9024C120.571 51.578 117.763 64.4458 110.635 78.1474C105.648 87.732 96.7147 95.7802 83.3213 102.75C76.703 106.158 70.5326 110.375 64.9512 115.302C55.273 123.932 49.0867 135.567 47.5344 148.067C46.0973 159.633 48.6403 169.281 55.0944 176.741C55.4299 177.129 55.7654 177.5 56.1024 177.854C55.6819 176.558 55.3277 175.31 55.0354 174.171C53.7134 169.209 53.6774 163.992 54.9302 159.012C57.2587 150.152 63.229 143.751 72.6768 139.987C79.357 137.324 87.6542 136.033 97.3382 136.165C105.003 136.264 112.922 137.987 120.874 141.284C123.579 142.455 126.49 143.08 129.437 143.125C129.478 143.125 129.519 143.125 129.561 143.125C130.656 143.123 131.733 142.847 132.693 142.318C133.652 141.79 134.461 141.028 135.048 140.102C135.657 139.166 136.024 138.095 136.115 136.981C136.205 135.87 136.018 134.751 135.569 133.73C133.852 129.82 132.399 126.559 132.398 126.556C132.369 126.491 132.342 126.425 132.317 126.357C131.661 124.521 131.697 122.851 132.427 121.391C133.423 119.393 135.356 118.453 137.206 117.811L136.11 116.942C135.734 116.644 135.441 116.258 135.253 115.819C135.066 115.38 134.991 114.901 135.037 114.424C135.084 113.949 135.248 113.492 135.516 113.096C135.783 112.7 136.146 112.378 136.571 112.157L138.698 111.057C137.393 109.74 136.394 108.151 135.77 106.405C135.249 104.979 135.246 103.415 135.762 101.987C136.277 100.558 137.278 99.3557 138.59 98.5925L146.942 93.6721C144.331 91.7885 141.978 89.5724 139.941 87.0812C133.662 79.537 130.061 69.7076 129.234 57.8693C127.994 40.1055 120.973 25.9604 108.366 15.8271Z" fill="#003049"/>
</g>
<path d="M67.5907 83.1571H57.7569C56.998 83.1571 56.2694 82.8561 55.7337 82.319C55.1966 81.7833 54.8956 81.0561 54.8956 80.2972V70.4635C54.9043 62.3995 58.1112 54.6695 63.8135 48.9686C69.5145 43.2662 77.2444 40.0593 85.3084 40.0507H95.1422C95.9011 40.0507 96.6283 40.3516 97.1654 40.8887C97.7011 41.4244 98.0035 42.1531 98.0035 42.9119V52.7457C97.9934 60.8083 94.7865 68.5382 89.0856 74.2406C83.3832 79.9415 75.6532 83.1484 67.5907 83.1571ZM60.6167 77.4359H67.5907C74.1369 77.4287 80.4124 74.8252 85.0406 70.1956C89.6702 65.5675 92.2737 59.2919 92.2809 52.7457V45.7718H85.3084C78.7622 45.779 72.4852 48.3839 67.8571 53.0121C63.2275 57.6403 60.6254 63.9172 60.6167 70.4635V77.4359Z" fill="#003049"/>
<path d="M57.7556 83.1571H47.9218C39.8593 83.1484 32.1294 79.9415 26.427 74.2406C20.726 68.5382 17.5191 60.8083 17.509 52.7457V42.9119C17.509 42.1531 17.8114 41.4244 18.3471 40.8887C18.8842 40.3516 19.6114 40.0507 20.3703 40.0507H30.2041C38.2681 40.0593 45.998 43.2662 51.699 48.9686C57.4014 54.6695 60.6082 62.3995 60.6169 70.4635V80.2972C60.6169 81.0561 60.3159 81.7833 59.7788 82.319C59.2431 82.8561 58.5145 83.1571 57.7556 83.1571ZM23.2316 45.7718V52.7457C23.2388 59.2919 25.8423 65.5675 30.4719 70.1956C35.1001 74.8252 41.3756 77.4287 47.9218 77.4359H54.8958V70.4635C54.8886 63.9172 52.2836 57.6403 47.6554 53.0121C43.0273 48.3839 36.7503 45.779 30.2041 45.7718H23.2316Z" fill="#003049"/>
<path d="M57.757 61.8163C57.3812 61.8163 57.0082 61.7428 56.6612 61.5988C56.3141 61.4548 55.9988 61.2446 55.7338 60.9782L48.78 54.0244C43.0848 48.3163 39.8866 40.582 39.8866 32.5195C39.8866 24.4569 43.0848 16.7227 48.78 11.0145L55.7338 4.06074C56.2695 3.52362 56.9981 3.22266 57.757 3.22266C58.1328 3.22266 58.5044 3.2961 58.8514 3.4401C59.1984 3.5841 59.5138 3.79578 59.7788 4.06074L66.734 11.0145C72.4364 16.7183 75.6404 24.454 75.6404 32.5195C75.6404 40.5849 72.4364 48.3206 66.734 54.0244L59.7788 60.9782C59.5138 61.2446 59.1984 61.4548 58.8514 61.5988C58.5044 61.7428 58.1328 61.8163 57.757 61.8163ZM57.757 10.1289L52.825 15.0609C48.2026 19.6948 45.6048 25.9732 45.6048 32.5195C45.6048 39.0657 48.2026 45.3441 52.825 49.978L57.757 54.9086L62.6876 49.978C64.98 47.6855 66.7988 44.9639 68.04 41.9687C69.2799 38.9721 69.9192 35.7623 69.9192 32.5195C69.9192 29.2766 69.2799 26.0668 68.04 23.0702C66.7988 20.075 64.98 17.3534 62.6876 15.0609L57.757 10.1289Z" fill="#003049"/>
<mask id="mask1_1090_178" style="mask-type:luminance" maskUnits="userSpaceOnUse" x="142" y="29" width="34" height="33">
<path d="M142.979 29.4307H175.379V61.871H142.979V29.4307Z" fill="white"/>
</mask>
<g mask="url(#mask1_1090_178)">
<path d="M159.314 61.6119C158.741 61.6119 158.18 61.4391 157.705 61.1165C157.231 60.7925 156.864 60.3346 156.653 59.8003L155.831 57.7181C155.061 55.7727 153.901 54.0072 152.421 52.5269C150.942 51.048 149.177 49.8888 147.231 49.1184L145.149 48.2962C144.615 48.0859 144.157 47.7202 143.833 47.245C143.51 46.7712 143.338 46.2096 143.338 45.6351C143.338 45.0619 143.51 44.5003 143.833 44.0266C144.156 43.5514 144.613 43.1856 145.148 42.9739L147.231 42.1531C149.175 41.3827 150.942 40.2221 152.421 38.7432C153.9 37.2643 155.061 35.4975 155.831 33.552L156.653 31.4698C156.864 30.9355 157.231 30.4776 157.705 30.1536C158.18 29.8311 158.74 29.6583 159.314 29.6583C159.889 29.6583 160.449 29.8311 160.924 30.1536C161.398 30.4776 161.765 30.9355 161.976 31.4698L162.796 33.552C163.567 35.4975 164.727 37.2629 166.206 38.7418C167.685 40.2221 169.452 41.3813 171.397 42.1517L173.48 42.9739C174.014 43.1856 174.472 43.5514 174.794 44.0266C175.117 44.5003 175.29 45.0619 175.29 45.6351C175.29 46.2096 175.117 46.7698 174.794 47.245C174.472 47.7202 174.014 48.0859 173.48 48.2962L171.396 49.1184C169.452 49.8888 167.685 51.048 166.206 52.5269C164.727 54.0072 163.567 55.7727 162.796 57.7181L161.976 59.8003C161.765 60.3346 161.398 60.7925 160.924 61.1151C160.449 61.4391 159.889 61.6119 159.314 61.6119ZM152.927 45.6351C155.491 47.2781 157.671 49.4568 159.314 52.0229C160.957 49.4568 163.136 47.2781 165.701 45.6351C163.136 43.992 160.957 41.8133 159.314 39.2487C157.671 41.8133 155.491 43.992 152.927 45.6351Z" fill="#003049"/>
</g>
<path d="M20.3704 128.089C19.7958 128.089 19.2356 127.917 18.7604 127.594C18.2867 127.27 17.9195 126.812 17.7092 126.278L16.612 123.497C15.5348 120.779 13.9134 118.31 11.8456 116.243C9.77772 114.176 7.30956 112.553 4.59084 111.476L1.81164 110.38C1.2774 110.17 0.819482 109.803 0.495482 109.329C0.172922 108.854 0.00012207 108.294 0.00012207 107.719C0.00012207 107.145 0.172922 106.585 0.495482 106.109C0.818042 105.636 1.2774 105.268 1.8102 105.058L4.59084 103.961C7.30956 102.884 9.77772 101.262 11.8456 99.1944C13.9134 97.128 15.5348 94.6584 16.612 91.9397L17.7092 89.1591C17.9195 88.6263 18.2867 88.1669 18.7604 87.8444C19.2356 87.5218 19.7958 87.349 20.3704 87.349C20.9435 87.349 21.5051 87.5218 21.9803 87.8444C22.454 88.1669 22.8212 88.6263 23.0315 89.1605L24.1273 91.9412C25.2044 94.6584 26.8273 97.128 28.8937 99.1944C30.9616 101.262 33.4297 102.884 36.1484 103.961L38.9291 105.058C39.4633 105.268 39.9212 105.636 40.2438 106.109C40.5678 106.585 40.7392 107.145 40.7392 107.719C40.7392 108.294 40.5678 108.854 40.2438 109.329C39.9212 109.804 39.4633 110.17 38.9291 110.38L36.1484 111.478C33.4297 112.553 30.9616 114.176 28.8937 116.244C26.8273 118.31 25.2044 120.78 24.1288 123.497L23.0315 126.278C22.8212 126.812 22.454 127.27 21.9803 127.594C21.5051 127.917 20.9449 128.089 20.3704 128.089ZM9.9822 107.719C14.3324 110.163 17.9252 113.757 20.3704 118.106C22.814 113.757 26.4083 110.163 30.7571 107.719C26.4083 105.274 22.814 101.681 20.3704 97.3311C17.9252 101.681 14.3324 105.274 9.9822 107.719Z" fill="#003049"/>
</svg>
