<svg width="961" height="579" viewBox="0 0 961 579" fill="none" xmlns="http://www.w3.org/2000/svg">
<path opacity="0.4" d="M480.4 -4.76915e-06C352.133 -3.49579e-06 272.387 64.106 240.2 192.8C288.24 128.694 344.447 104.594 408.34 120.5C444.85 129.658 471.272 156.168 500.096 185.57C547.176 233.77 600.5 289.2 720.6 289.2C848.867 289.2 928.613 225.094 960.8 96.4C912.76 160.506 856.553 184.606 792.66 168.7C756.15 159.542 730.208 133.032 700.904 103.63C653.824 55.43 600.5 -5.96143e-06 480.4 -4.76915e-06ZM240.2 289.2C111.933 289.2 32.1868 353.306 -2.18919e-06 482C48.04 417.894 104.247 393.794 168.14 409.7C204.65 418.858 230.592 445.368 259.896 474.77C306.976 522.97 360.3 578.4 480.4 578.4C608.667 578.4 688.413 514.294 720.6 385.6C672.56 449.706 616.353 473.806 552.46 457.9C515.95 448.742 490.008 422.232 460.704 392.83C413.624 344.63 360.3 289.2 240.2 289.2Z" fill="url(#paint0_linear_844_24)"/>
<defs>
<linearGradient id="paint0_linear_844_24" x1="181.653" y1="272.337" x2="573.074" y2="584.63" gradientUnits="userSpaceOnUse">
<stop stop-color="#1EB8FF"/>
<stop offset="1" stop-color="#8ECAE6"/>
</linearGradient>
</defs>
</svg>
